<?xml version="1.0" encoding="UTF-8"?>
<svg id="_2" data-name="2" xmlns="http://www.w3.org/2000/svg" xmlns:xlink="http://www.w3.org/1999/xlink" viewBox="0 0 1366 550">
  <defs>
    <style>
      .cls-1 {
        fill: url(#linear-gradient-61);
      }

      .cls-2 {
        fill: url(#linear-gradient-15);
      }

      .cls-3 {
        fill: url(#linear-gradient-13);
      }

      .cls-4 {
        fill: url(#radial-gradient-2);
        opacity: .6;
      }

      .cls-5 {
        fill: url(#linear-gradient-28);
      }

      .cls-6 {
        fill: url(#linear-gradient-65);
      }

      .cls-7 {
        fill: url(#linear-gradient-69);
      }

      .cls-8 {
        fill: url(#linear-gradient-53);
      }

      .cls-9 {
        fill: url(#linear-gradient-42);
      }

      .cls-10 {
        fill: url(#linear-gradient-46);
      }

      .cls-11 {
        fill: url(#linear-gradient-70);
      }

      .cls-12 {
        fill: url(#linear-gradient-60);
      }

      .cls-13 {
        fill: url(#linear-gradient-2);
      }

      .cls-14 {
        fill: url(#linear-gradient-64);
      }

      .cls-15 {
        fill: url(#linear-gradient-56);
      }

      .cls-16 {
        fill: url(#linear-gradient-43);
      }

      .cls-17 {
        fill: url(#linear-gradient-25);
      }

      .cls-18 {
        fill: url(#linear-gradient-10);
      }

      .cls-19 {
        fill: url(#linear-gradient-12);
      }

      .cls-20 {
        fill: url(#linear-gradient-40);
      }

      .cls-21 {
        fill: url(#linear-gradient-27);
      }

      .cls-22 {
        fill: url(#linear-gradient-68);
      }

      .cls-23 {
        fill: url(#linear-gradient-37);
      }

      .cls-24 {
        fill: url(#linear-gradient-55);
      }

      .cls-25 {
        fill: url(#linear-gradient-39);
      }

      .cls-26 {
        fill: url(#linear-gradient-52);
      }

      .cls-27 {
        fill: url(#linear-gradient-58);
      }

      .cls-28 {
        fill: url(#linear-gradient-47);
      }

      .cls-29 {
        fill: url(#linear-gradient-26);
      }

      .cls-30 {
        fill: url(#linear-gradient-72);
      }

      .cls-31 {
        fill: none;
      }

      .cls-32 {
        fill: url(#linear-gradient-4);
      }

      .cls-33 {
        fill: url(#linear-gradient-35);
      }

      .cls-34 {
        fill: url(#linear-gradient-30);
      }

      .cls-35 {
        fill: url(#radial-gradient);
      }

      .cls-36 {
        fill: url(#linear-gradient-73);
      }

      .cls-37 {
        opacity: .49;
      }

      .cls-38 {
        fill: url(#linear-gradient-71);
      }

      .cls-39 {
        fill: url(#linear-gradient-44);
      }

      .cls-40 {
        fill: url(#linear-gradient-49);
      }

      .cls-41 {
        fill: url(#linear-gradient-3);
      }

      .cls-42 {
        fill: url(#linear-gradient-34);
      }

      .cls-43 {
        fill: url(#linear-gradient-5);
      }

      .cls-44 {
        fill: url(#linear-gradient-38);
      }

      .cls-45 {
        fill: url(#linear-gradient-22);
      }

      .cls-46 {
        fill: url(#linear-gradient-24);
      }

      .cls-47 {
        fill: url(#linear-gradient-54);
      }

      .cls-48 {
        fill: url(#linear-gradient-33);
      }

      .cls-49 {
        fill: url(#linear-gradient-51);
      }

      .cls-50 {
        fill: url(#linear-gradient-8);
      }

      .cls-51 {
        fill: url(#linear-gradient-66);
      }

      .cls-52 {
        fill: url(#linear-gradient-57);
      }

      .cls-53 {
        fill: url(#linear-gradient-14);
      }

      .cls-54 {
        fill: url(#linear-gradient-62);
      }

      .cls-55 {
        fill: url(#linear-gradient-29);
      }

      .cls-56 {
        fill: url(#linear-gradient-20);
      }

      .cls-57 {
        fill: url(#linear-gradient-67);
      }

      .cls-58 {
        fill: url(#linear-gradient-17);
      }

      .cls-59 {
        fill: url(#linear-gradient-50);
      }

      .cls-60 {
        fill: url(#linear-gradient-7);
      }

      .cls-61 {
        fill: url(#linear-gradient-9);
      }

      .cls-62 {
        fill: url(#linear-gradient-59);
      }

      .cls-63 {
        fill: url(#linear-gradient-11);
      }

      .cls-64 {
        fill: url(#linear-gradient-19);
      }

      .cls-65 {
        fill: url(#linear-gradient-6);
      }

      .cls-66 {
        fill: #f2f2f2;
        filter: url(#outer-glow-1);
      }

      .cls-67 {
        fill: url(#linear-gradient-36);
      }

      .cls-68 {
        fill: url(#linear-gradient-21);
      }

      .cls-69 {
        fill: url(#linear-gradient-45);
      }

      .cls-70 {
        fill: url(#linear-gradient-48);
      }

      .cls-71 {
        fill: url(#linear-gradient-32);
      }

      .cls-72 {
        fill: url(#linear-gradient-41);
      }

      .cls-73 {
        fill: url(#linear-gradient-16);
      }

      .cls-74 {
        fill: url(#linear-gradient);
      }

      .cls-75 {
        fill: url(#linear-gradient-23);
      }

      .cls-76 {
        fill: url(#linear-gradient-31);
      }

      .cls-77 {
        clip-path: url(#clippath);
      }

      .cls-78 {
        fill: url(#linear-gradient-63);
      }

      .cls-79 {
        fill: url(#linear-gradient-18);
      }
    </style>
    <clipPath id="clippath">
      <rect class="cls-31" x="2.35" y="-1.56" width="1364.11" height="550"/>
    </clipPath>
    <radialGradient id="radial-gradient" cx="684.23" cy="600.88" fx="684.23" fy="600.88" r="906.35" gradientTransform="translate(0 331.81) scale(1 .29)" gradientUnits="userSpaceOnUse">
      <stop offset="0" stop-color="#152a36"/>
      <stop offset=".2" stop-color="#242d4a"/>
      <stop offset=".51" stop-color="#393266"/>
      <stop offset=".78" stop-color="#463577"/>
      <stop offset=".99" stop-color="#4b377d"/>
    </radialGradient>
    <linearGradient id="linear-gradient" x1="725.67" y1="412.72" x2="719.48" y2="442.53" gradientTransform="translate(1238.27) rotate(-180) scale(1 -1)" gradientUnits="userSpaceOnUse">
      <stop offset="0" stop-color="#594296"/>
      <stop offset=".39" stop-color="#3a376a"/>
      <stop offset=".78" stop-color="#1f2d44"/>
      <stop offset=".99" stop-color="#152a36"/>
    </linearGradient>
    <linearGradient id="linear-gradient-2" x1="667.41" y1="402.93" x2="661.22" y2="432.74" xlink:href="#linear-gradient"/>
    <linearGradient id="linear-gradient-3" x1="458.04" y1="401.42" x2="483.27" y2="416.06" gradientTransform="matrix(1,0,0,1,0,0)" xlink:href="#linear-gradient"/>
    <linearGradient id="linear-gradient-4" x1="469.28" y1="441.25" x2="469.28" y2="433.16" gradientTransform="matrix(1,0,0,1,0,0)" xlink:href="#linear-gradient"/>
    <linearGradient id="linear-gradient-5" x1="739.26" y1="416.77" x2="738.84" y2="420.09" xlink:href="#linear-gradient"/>
    <linearGradient id="linear-gradient-6" x1="800.01" y1="427.49" x2="799.59" y2="430.82" xlink:href="#linear-gradient"/>
    <linearGradient id="linear-gradient-7" x1="818.7" y1="425.76" x2="818.28" y2="429.09" xlink:href="#linear-gradient"/>
    <linearGradient id="linear-gradient-8" x1="690.37" y1="401.79" x2="689.96" y2="405.11" xlink:href="#linear-gradient"/>
    <linearGradient id="linear-gradient-9" x1="435.56" y1="436.69" x2="429.37" y2="466.51" xlink:href="#linear-gradient"/>
    <linearGradient id="linear-gradient-10" x1="377.29" y1="426.91" x2="371.11" y2="456.72" xlink:href="#linear-gradient"/>
    <linearGradient id="linear-gradient-11" x1="748.15" y1="425.4" x2="773.38" y2="440.04" gradientTransform="matrix(1,0,0,1,0,0)" xlink:href="#linear-gradient"/>
    <linearGradient id="linear-gradient-12" x1="759.39" y1="465.23" x2="759.39" y2="457.13" gradientTransform="matrix(1,0,0,1,0,0)" xlink:href="#linear-gradient"/>
    <linearGradient id="linear-gradient-13" x1="449.15" y1="440.74" x2="448.73" y2="444.07" xlink:href="#linear-gradient"/>
    <linearGradient id="linear-gradient-14" x1="509.9" y1="451.47" x2="509.48" y2="454.8" xlink:href="#linear-gradient"/>
    <linearGradient id="linear-gradient-15" x1="528.59" y1="449.74" x2="528.17" y2="453.07" xlink:href="#linear-gradient"/>
    <linearGradient id="linear-gradient-16" x1="400.26" y1="425.76" x2="399.85" y2="429.09" xlink:href="#linear-gradient"/>
    <linearGradient id="linear-gradient-17" x1="293.52" y1="450.14" x2="287.33" y2="479.95" gradientTransform="translate(323.96)" xlink:href="#linear-gradient"/>
    <linearGradient id="linear-gradient-18" x1="235.25" y1="440.35" x2="229.07" y2="470.17" gradientTransform="translate(323.96)" xlink:href="#linear-gradient"/>
    <linearGradient id="linear-gradient-19" x1="890.19" y1="438.84" x2="915.42" y2="453.49" gradientTransform="translate(1562.23) rotate(-180) scale(1 -1)" xlink:href="#linear-gradient"/>
    <linearGradient id="linear-gradient-20" x1="901.43" y1="478.68" x2="901.43" y2="470.58" gradientTransform="translate(1562.23) rotate(-180) scale(1 -1)" xlink:href="#linear-gradient"/>
    <linearGradient id="linear-gradient-21" x1="307.11" y1="454.19" x2="306.69" y2="457.52" gradientTransform="translate(323.96)" xlink:href="#linear-gradient"/>
    <linearGradient id="linear-gradient-22" x1="367.86" y1="464.92" x2="367.44" y2="468.24" gradientTransform="translate(323.96)" xlink:href="#linear-gradient"/>
    <linearGradient id="linear-gradient-23" x1="386.54" y1="463.19" x2="386.13" y2="466.52" gradientTransform="translate(323.96)" xlink:href="#linear-gradient"/>
    <linearGradient id="linear-gradient-24" x1="258.22" y1="439.21" x2="257.81" y2="442.54" gradientTransform="translate(323.96)" xlink:href="#linear-gradient"/>
    <linearGradient id="linear-gradient-25" x1="415.53" y1="482.86" x2="411.26" y2="503.47" gradientTransform="translate(323.96)" xlink:href="#linear-gradient"/>
    <linearGradient id="linear-gradient-26" x1="375.25" y1="476.1" x2="370.98" y2="496.71" gradientTransform="translate(323.96)" xlink:href="#linear-gradient"/>
    <linearGradient id="linear-gradient-27" x1="785.02" y1="475.05" x2="802.45" y2="485.18" gradientTransform="translate(1562.23) rotate(-180) scale(1 -1)" xlink:href="#linear-gradient"/>
    <linearGradient id="linear-gradient-28" x1="792.79" y1="502.59" x2="792.79" y2="497" gradientTransform="translate(1562.23) rotate(-180) scale(1 -1)" xlink:href="#linear-gradient"/>
    <linearGradient id="linear-gradient-29" x1="424.93" y1="485.66" x2="424.64" y2="487.96" gradientTransform="translate(323.96)" xlink:href="#linear-gradient"/>
    <linearGradient id="linear-gradient-30" x1="466.93" y1="493.08" x2="466.64" y2="495.38" gradientTransform="translate(323.96)" xlink:href="#linear-gradient"/>
    <linearGradient id="linear-gradient-31" x1="479.85" y1="491.89" x2="479.56" y2="494.19" gradientTransform="translate(323.96)" xlink:href="#linear-gradient"/>
    <linearGradient id="linear-gradient-32" x1="391.13" y1="475.31" x2="390.85" y2="477.61" gradientTransform="translate(323.96)" xlink:href="#linear-gradient"/>
    <linearGradient id="linear-gradient-33" x1="347.35" y1="407.86" x2="343.07" y2="428.47" gradientTransform="translate(323.96)" xlink:href="#linear-gradient"/>
    <linearGradient id="linear-gradient-34" x1="307.07" y1="401.09" x2="302.79" y2="421.7" gradientTransform="translate(323.96)" xlink:href="#linear-gradient"/>
    <linearGradient id="linear-gradient-35" x1="853.2" y1="400.05" x2="870.64" y2="410.18" gradientTransform="translate(1562.23) rotate(-180) scale(1 -1)" xlink:href="#linear-gradient"/>
    <linearGradient id="linear-gradient-36" x1="860.97" y1="427.59" x2="860.97" y2="421.99" gradientTransform="translate(1562.23) rotate(-180) scale(1 -1)" xlink:href="#linear-gradient"/>
    <linearGradient id="linear-gradient-37" x1="356.74" y1="410.66" x2="356.46" y2="412.96" gradientTransform="translate(323.96)" xlink:href="#linear-gradient"/>
    <linearGradient id="linear-gradient-38" x1="398.74" y1="418.08" x2="398.46" y2="420.38" gradientTransform="translate(323.96)" xlink:href="#linear-gradient"/>
    <linearGradient id="linear-gradient-39" x1="411.66" y1="416.88" x2="411.38" y2="419.18" gradientTransform="translate(323.96)" xlink:href="#linear-gradient"/>
    <linearGradient id="linear-gradient-40" x1="322.95" y1="400.31" x2="322.66" y2="402.61" gradientTransform="translate(323.96)" xlink:href="#linear-gradient"/>
    <linearGradient id="linear-gradient-41" x1="604.36" y1="400.47" x2="600.08" y2="421.08" gradientTransform="translate(1412.46) rotate(-180) scale(1 -1)" xlink:href="#linear-gradient"/>
    <linearGradient id="linear-gradient-42" x1="515.83" y1="414.66" x2="511.56" y2="435.26" gradientTransform="translate(1412.46) rotate(-180) scale(1 -1)" xlink:href="#linear-gradient"/>
    <linearGradient id="linear-gradient-43" x1="564.08" y1="393.7" x2="559.81" y2="414.31" gradientTransform="translate(1412.46) rotate(-180) scale(1 -1)" xlink:href="#linear-gradient"/>
    <linearGradient id="linear-gradient-44" x1="581.09" y1="396.48" x2="598.53" y2="406.6" gradientTransform="translate(174.19)" xlink:href="#linear-gradient"/>
    <linearGradient id="linear-gradient-45" x1="603.96" y1="420.2" x2="603.96" y2="414.6" gradientTransform="translate(174.19)" xlink:href="#linear-gradient"/>
    <linearGradient id="linear-gradient-46" x1="613.76" y1="403.27" x2="613.47" y2="405.57" gradientTransform="translate(1412.46) rotate(-180) scale(1 -1)" xlink:href="#linear-gradient"/>
    <linearGradient id="linear-gradient-47" x1="655.76" y1="410.68" x2="655.47" y2="412.98" gradientTransform="translate(1412.46) rotate(-180) scale(1 -1)" xlink:href="#linear-gradient"/>
    <linearGradient id="linear-gradient-48" x1="668.68" y1="409.49" x2="668.39" y2="411.79" gradientTransform="translate(1412.46) rotate(-180) scale(1 -1)" xlink:href="#linear-gradient"/>
    <linearGradient id="linear-gradient-49" x1="752.21" y1="399.82" x2="769.65" y2="409.95" gradientTransform="translate(174.19)" xlink:href="#linear-gradient"/>
    <linearGradient id="linear-gradient-50" x1="793.88" y1="407.02" x2="811.32" y2="417.14" gradientTransform="translate(174.19)" xlink:href="#linear-gradient"/>
    <linearGradient id="linear-gradient-51" x1="775.09" y1="423.54" x2="775.09" y2="417.94" gradientTransform="translate(174.19)" xlink:href="#linear-gradient"/>
    <linearGradient id="linear-gradient-52" x1="484.63" y1="414.03" x2="484.34" y2="416.33" gradientTransform="translate(1412.46) rotate(-180) scale(1 -1)" xlink:href="#linear-gradient"/>
    <linearGradient id="linear-gradient-53" x1="497.55" y1="412.83" x2="497.26" y2="415.13" gradientTransform="translate(1412.46) rotate(-180) scale(1 -1)" xlink:href="#linear-gradient"/>
    <linearGradient id="linear-gradient-54" x1="525.9" y1="411.38" x2="525.62" y2="413.68" gradientTransform="translate(1412.46) rotate(-180) scale(1 -1)" xlink:href="#linear-gradient"/>
    <linearGradient id="linear-gradient-55" x1="443.21" y1="378.84" x2="443.21" y2="364.16" gradientTransform="translate(-35.53 80.07) rotate(-6.42)" gradientUnits="userSpaceOnUse">
      <stop offset="0" stop-color="#152a36"/>
      <stop offset=".2" stop-color="#242d4a"/>
      <stop offset=".51" stop-color="#393266"/>
      <stop offset=".78" stop-color="#463577"/>
      <stop offset=".99" stop-color="#4b377d"/>
    </linearGradient>
    <linearGradient id="linear-gradient-56" x1="513.73" y1="383.7" x2="513.73" y2="366.38" xlink:href="#linear-gradient-55"/>
    <linearGradient id="linear-gradient-57" x1="680.68" y1="428.07" x2="680.68" y2="410.81" gradientTransform="translate(50.75 -108.56) rotate(7.09)" xlink:href="#linear-gradient-55"/>
    <linearGradient id="linear-gradient-58" x1="694.55" y1="487.17" x2="694.55" y2="469.91" gradientTransform="translate(50.75 -108.56) rotate(7.09)" xlink:href="#linear-gradient-55"/>
    <linearGradient id="linear-gradient-59" x1="611.93" y1="388.84" x2="611.93" y2="370.47" gradientTransform="translate(-91.93 318.45) rotate(-23)" xlink:href="#linear-gradient-55"/>
    <linearGradient id="linear-gradient-60" x1="729.89" y1="473.28" x2="729.89" y2="446.53" gradientTransform="translate(50.75 -108.56) rotate(7.09)" xlink:href="#linear-gradient-55"/>
    <linearGradient id="linear-gradient-61" x1="875.85" y1="430.53" x2="875.85" y2="409.9" gradientTransform="translate(50.75 -108.56) rotate(7.09)" xlink:href="#linear-gradient-55"/>
    <linearGradient id="linear-gradient-62" x1="591.22" y1="445.77" x2="591.22" y2="434.67" gradientTransform="translate(91.6 -157.39) rotate(11.8)" xlink:href="#linear-gradient-55"/>
    <linearGradient id="linear-gradient-63" x1="736.17" y1="381.7" x2="736.17" y2="368.38" gradientTransform="translate(-29.41 104.68) rotate(-6.62)" xlink:href="#linear-gradient-55"/>
    <linearGradient id="linear-gradient-64" x1="783.43" y1="419.01" x2="783.43" y2="405.69" gradientTransform="translate(-29.41 104.68) rotate(-6.62)" xlink:href="#linear-gradient-55"/>
    <linearGradient id="linear-gradient-65" x1="974.53" y1="408.83" x2="974.53" y2="396.84" gradientTransform="translate(94.39 -183.35) rotate(11.3)" xlink:href="#linear-gradient-55"/>
    <linearGradient id="linear-gradient-66" x1="629.73" y1="371.86" x2="629.73" y2="360.67" gradientTransform="translate(-53.13 166.84) rotate(-12.09)" xlink:href="#linear-gradient-55"/>
    <linearGradient id="linear-gradient-67" x1="556.85" y1="477.41" x2="556.85" y2="466.02" gradientTransform="translate(151.45 -203.17) rotate(17.99)" xlink:href="#linear-gradient-55"/>
    <linearGradient id="linear-gradient-68" x1="445.1" y1="510.3" x2="445.1" y2="498.91" gradientTransform="translate(151.45 -203.17) rotate(17.99)" xlink:href="#linear-gradient-55"/>
    <linearGradient id="linear-gradient-69" x1="822.22" y1="428.87" x2="822.22" y2="417.88" gradientTransform="translate(54.71 -122.36) rotate(6.74)" xlink:href="#linear-gradient-55"/>
    <linearGradient id="linear-gradient-70" x1="881.31" y1="424.19" x2="881.31" y2="410.88" gradientTransform="translate(54.71 -122.36) rotate(6.74)" xlink:href="#linear-gradient-55"/>
    <linearGradient id="linear-gradient-71" x1="895.55" y1="419.01" x2="895.55" y2="407.78" gradientTransform="translate(-55.14 200.21) rotate(-13.18)" xlink:href="#linear-gradient-55"/>
    <linearGradient id="linear-gradient-72" x1="141.6" y1="453.3" x2="140.77" y2="459.95" xlink:href="#linear-gradient"/>
    <linearGradient id="linear-gradient-73" x1="178.98" y1="449.85" x2="178.15" y2="456.5" xlink:href="#linear-gradient"/>
    <radialGradient id="radial-gradient-2" cx="210.02" cy="234.35" fx="210.02" fy="234.35" r="167.2" gradientTransform="translate(2.76 14.23) scale(.99)" gradientUnits="userSpaceOnUse">
      <stop offset=".43" stop-color="#fff"/>
      <stop offset=".51" stop-color="#d7d3e2" stop-opacity=".78"/>
      <stop offset=".61" stop-color="#ada4c3" stop-opacity=".55"/>
      <stop offset=".7" stop-color="#8a7daa" stop-opacity=".35"/>
      <stop offset=".79" stop-color="#6e5e96" stop-opacity=".2"/>
      <stop offset=".87" stop-color="#5b4888" stop-opacity=".09"/>
      <stop offset=".94" stop-color="#4f3b80" stop-opacity=".02"/>
      <stop offset=".99" stop-color="#4b377d" stop-opacity="0"/>
    </radialGradient>
    <filter id="outer-glow-1" x="123" y="158" width="174" height="175" filterUnits="userSpaceOnUse">
      <feOffset dx="0" dy="0"/>
      <feGaussianBlur result="blur" stdDeviation="2"/>
      <feFlood flood-color="#fff" flood-opacity=".75"/>
      <feComposite in2="blur" operator="in"/>
      <feComposite in="SourceGraphic"/>
    </filter>
  </defs>
  <g class="cls-77">
    <g>
      <path class="cls-35" d="M696.58,392.57c89.21-.42,178.45,2.58,267.16,8.88,78.43,5.57,153.7,12.67,224.21,39.7,10.28,3.94,20.56,8.06,30.26,12.71,14.93,7.16,14.33,7.31,1.25,15.52-68.96,43.31-168.63,64.32-257.06,75.53-98.9,12.53-200.12,13.45-300.64,16.97-74.48,2.61-149.52,6.66-223.35-.36-65.61-6.24-128.57-21.14-188.45-39.77-29.96-9.32-59.23-19.61-88.14-30.31-14.75-5.46-29.41-11.05-44.02-16.69-20.79-8.02-35.36-11.76-7.2-23.06,23.51-9.44,50.62-14.11,77.06-18.33,166.91-26.66,337.87-40,508.93-40.79Z"/>
      <g class="cls-37">
        <g>
          <polygon class="cls-74" points="539.47 436.91 527.74 428.52 513.98 426.5 495.78 436.91 510.34 440.09 529.76 442.11 539.47 436.91"/>
          <polygon class="cls-13" points="597.73 427.12 586 418.73 572.24 416.71 554.04 427.12 568.6 430.3 588.02 432.32 597.73 427.12"/>
          <polygon class="cls-41" points="491.12 413.27 483.36 407.72 474.25 406.38 465.09 413.91 472.11 416.72 484.7 416.72 491.12 413.27"/>
          <polygon class="cls-32" points="482.29 435.98 474.53 430.43 465.43 429.09 456.26 436.61 463.28 439.42 475.87 439.42 482.29 435.98"/>
          <polygon class="cls-43" points="505.15 420.06 500.16 417.36 493.69 420.06 499.42 421.5 505.15 420.06"/>
          <polygon class="cls-65" points="444.4 430.78 439.41 428.08 432.94 430.78 438.67 432.23 444.4 430.78"/>
          <polygon class="cls-60" points="425.72 429.06 420.73 426.36 414.25 429.06 419.99 430.5 425.72 429.06"/>
          <polygon class="cls-50" points="554.04 405.08 549.05 402.38 542.58 405.08 548.31 406.52 554.04 405.08"/>
        </g>
        <g>
          <polygon class="cls-61" points="829.58 460.88 817.85 452.5 804.09 450.47 785.89 460.88 800.45 464.06 819.87 466.09 829.58 460.88"/>
          <polygon class="cls-18" points="887.84 451.1 876.11 442.71 862.35 440.69 844.15 451.1 858.71 454.28 878.13 456.3 887.84 451.1"/>
          <polygon class="cls-63" points="781.23 437.25 773.47 431.7 764.36 430.36 755.2 437.88 762.22 440.7 774.81 440.7 781.23 437.25"/>
          <polygon class="cls-19" points="772.41 459.96 764.64 454.41 755.54 453.07 746.37 460.59 753.39 463.4 765.98 463.4 772.41 459.96"/>
          <polygon class="cls-3" points="795.27 444.03 790.28 441.34 783.8 444.03 789.53 445.48 795.27 444.03"/>
          <polygon class="cls-53" points="734.51 454.76 729.52 452.06 723.05 454.76 728.78 456.2 734.51 454.76"/>
          <polygon class="cls-2" points="715.83 453.03 710.84 450.33 704.36 453.03 710.1 454.48 715.83 453.03"/>
          <polygon class="cls-73" points="844.15 429.06 839.16 426.36 832.69 429.06 838.42 430.5 844.15 429.06"/>
        </g>
        <g>
          <polygon class="cls-58" points="590.61 474.33 602.34 465.95 616.1 463.92 634.3 474.33 619.74 477.51 600.32 479.54 590.61 474.33"/>
          <polygon class="cls-79" points="532.35 464.54 544.08 456.16 557.84 454.13 576.04 464.54 561.48 467.72 542.06 469.75 532.35 464.54"/>
          <polygon class="cls-64" points="638.96 450.7 646.72 445.15 655.83 443.81 664.99 451.33 657.97 454.15 645.39 454.15 638.96 450.7"/>
          <polygon class="cls-56" points="647.79 473.4 655.55 467.85 664.66 466.51 673.82 474.03 666.8 476.85 654.21 476.85 647.79 473.4"/>
          <polygon class="cls-68" points="624.93 457.48 629.92 454.78 636.39 457.48 630.66 458.93 624.93 457.48"/>
          <polygon class="cls-45" points="685.68 468.21 690.67 465.51 697.14 468.21 691.41 469.65 685.68 468.21"/>
          <polygon class="cls-75" points="704.36 466.48 709.35 463.78 715.83 466.48 710.1 467.93 704.36 466.48"/>
          <polygon class="cls-46" points="576.04 442.5 581.03 439.8 587.51 442.5 581.77 443.95 576.04 442.5"/>
        </g>
        <g>
          <polygon class="cls-17" points="720.92 499.59 729.03 493.79 738.54 492.39 751.13 499.59 741.06 501.79 727.64 503.19 720.92 499.59"/>
          <polygon class="cls-29" points="680.64 492.82 688.76 487.02 698.26 485.62 710.85 492.82 700.78 495.02 687.36 496.42 680.64 492.82"/>
          <polygon class="cls-21" points="754.35 483.25 759.71 479.41 766.01 478.49 772.34 483.69 767.49 485.63 758.79 485.63 754.35 483.25"/>
          <polygon class="cls-5" points="760.45 498.95 765.82 495.11 772.11 494.18 778.45 499.38 773.59 501.33 764.89 501.33 760.45 498.95"/>
          <polygon class="cls-55" points="744.65 487.94 748.1 486.07 752.57 487.94 748.61 488.94 744.65 487.94"/>
          <polygon class="cls-34" points="786.65 495.35 790.1 493.49 794.57 495.35 790.61 496.35 786.65 495.35"/>
          <polygon class="cls-76" points="799.56 494.16 803.01 492.29 807.49 494.16 803.53 495.16 799.56 494.16"/>
          <polygon class="cls-71" points="710.85 477.58 714.3 475.72 718.78 477.58 714.81 478.58 710.85 477.58"/>
        </g>
        <g>
          <polygon class="cls-48" points="652.74 424.58 660.85 418.79 670.36 417.39 682.94 424.58 672.88 426.78 659.45 428.18 652.74 424.58"/>
          <polygon class="cls-42" points="612.46 417.82 620.57 412.02 630.08 410.62 642.67 417.82 632.6 420.02 619.17 421.42 612.46 417.82"/>
          <polygon class="cls-33" points="686.16 408.25 691.53 404.41 697.82 403.48 704.16 408.68 699.3 410.63 690.6 410.63 686.16 408.25"/>
          <polygon class="cls-67" points="692.26 423.94 697.63 420.11 703.93 419.18 710.26 424.38 705.41 426.32 696.71 426.32 692.26 423.94"/>
          <polygon class="cls-23" points="676.46 412.94 679.91 411.07 684.39 412.94 680.42 413.94 676.46 412.94"/>
          <polygon class="cls-44" points="718.46 420.35 721.91 418.48 726.38 420.35 722.42 421.35 718.46 420.35"/>
          <polygon class="cls-25" points="731.38 419.16 734.83 417.29 739.3 419.16 735.34 420.16 731.38 419.16"/>
          <polygon class="cls-20" points="642.67 402.58 646.11 400.71 650.59 402.58 646.63 403.58 642.67 402.58"/>
        </g>
        <g>
          <polygon class="cls-72" points="826.67 417.19 818.56 411.4 809.05 410 796.46 417.19 806.53 419.39 819.96 420.79 826.67 417.19"/>
          <polygon class="cls-9" points="915.2 431.38 907.09 425.58 897.58 424.18 884.99 431.38 895.06 433.58 908.49 434.98 915.2 431.38"/>
          <polygon class="cls-16" points="866.95 410.43 858.84 404.63 849.33 403.23 836.74 410.43 846.81 412.63 860.24 414.02 866.95 410.43"/>
          <polygon class="cls-39" points="778.15 404.68 772.78 400.84 766.48 399.91 760.15 405.11 765 407.06 773.7 407.06 778.15 404.68"/>
          <polygon class="cls-69" points="787.14 416.55 781.78 412.71 775.48 411.79 769.15 416.99 774 418.93 782.7 418.93 787.14 416.55"/>
          <polygon class="cls-10" points="802.95 405.54 799.5 403.68 795.02 405.54 798.99 406.54 802.95 405.54"/>
          <polygon class="cls-28" points="760.95 412.96 757.5 411.09 753.02 412.96 756.99 413.96 760.95 412.96"/>
          <polygon class="cls-70" points="748.03 411.77 744.58 409.9 740.1 411.77 744.07 412.77 748.03 411.77"/>
          <polygon class="cls-40" points="949.27 408.02 943.91 404.18 937.61 403.26 931.28 408.45 936.13 410.4 944.83 410.4 949.27 408.02"/>
          <polygon class="cls-59" points="990.94 415.22 985.58 411.38 979.28 410.45 972.95 415.65 977.8 417.6 986.5 417.6 990.94 415.22"/>
          <polygon class="cls-49" points="958.27 419.89 952.9 416.06 946.61 415.13 940.28 420.33 945.13 422.28 953.83 422.28 958.27 419.89"/>
          <polygon class="cls-26" points="932.08 416.3 928.63 414.44 924.15 416.3 928.11 417.3 932.08 416.3"/>
          <polygon class="cls-8" points="919.16 415.11 915.71 413.24 911.23 415.11 915.19 416.11 919.16 415.11"/>
          <polygon class="cls-47" points="890.8 413.65 887.35 411.79 882.88 413.65 886.84 414.65 890.8 413.65"/>
        </g>
      </g>
      <path class="cls-24" d="M456.97,395.32c-.09-.28-.67-.35-.76-.02-.48,1.77-.75,3.45-2.26,4.97-1.16,1.17-3.43,2.75-5.66,3.08,4.69-1.74,6.67-7.35,5.9-10.65-.11-.48-1.04-.41-1.04.07,0,3.75-1.32,7.71-5.41,10.19,4.01-2.92,4.22-8.01,3.71-11.82-.07-.54-1.11-.43-1.13.08-.22,4.47-.52,7.87-3.47,11.78,2.09-3.09,2.53-6.64,1.85-10.01-.1-.5-1.18-.43-1.1.08.41,2.83.02,5.46-.84,8.13.3-3.36-.6-6.84-1.94-10-.26-.62-1.51-.25-1.3.36,1.3,3.65,1.64,7.22,2.11,10.92-1.15-.97-1.94-2.69-2.45-3.73-.71-1.44-1.11-2.92-1.32-4.44-.08-.56-1.29-.48-1.22.08.27,2.01.92,3.97,2.08,5.81.53.83,1.13,1.96,2.15,2.61-4.65-2.36-5.44-6.34-5.43-10.27,0-.53-1.26-.57-1.32-.04-.5,4.26.71,9.42,6.74,11.28,0,0-.01.02-.02.03-5.31-1.24-8.54-3.54-8.89-7.71-.03-.36-.87-.4-.91-.02-.4,3.95,3.98,8.15,9.79,8.21.04.05.09.1.15.13.32.19.67.17,1.06.14.12,0,.24-.02.37-.03.07-.01.13-.02.2-.02.53.18,1.19.05,1.45-.35.04-.06.06-.13.07-.21,2.07.15,4.35-1.32,5.67-2.27,2.19-1.58,3.91-4.1,3.19-6.35ZM445.71,403.19s0,0,0,0c-.02,0-.03-.01-.04-.02.01,0,.03.01.04.01Z"/>
      <path class="cls-15" d="M529.33,390.17c-.11-.34-.79-.41-.9-.02-.56,2.09-.88,4.07-2.67,5.86-1.37,1.38-4.04,3.24-6.68,3.63,5.53-2.05,7.86-8.66,6.96-12.55-.13-.57-1.23-.48-1.23.09,0,4.43-1.55,9.09-6.38,12.02,4.73-3.45,4.98-9.45,4.37-13.94-.09-.63-1.31-.5-1.34.09-.26,5.27-.61,9.28-4.09,13.89,2.46-3.65,2.99-7.82,2.18-11.8-.12-.59-1.39-.51-1.3.09.49,3.34.02,6.43-.99,9.58.36-3.96-.71-8.07-2.29-11.8-.31-.73-1.78-.3-1.53.42,1.53,4.31,1.93,8.52,2.49,12.87-1.35-1.15-2.28-3.18-2.89-4.4-.84-1.7-1.31-3.44-1.55-5.23-.09-.66-1.52-.56-1.43.1.32,2.37,1.08,4.68,2.45,6.85.62.98,1.33,2.31,2.53,3.07-5.49-2.78-6.41-7.47-6.4-12.11,0-.63-1.49-.67-1.56-.04-.59,5.02.84,11.11,7.95,13.3,0,.01-.01.02-.02.03-6.27-1.46-10.07-4.17-10.49-9.09-.04-.43-1.03-.47-1.08-.03-.48,4.66,4.69,9.6,11.54,9.68.05.06.1.11.17.16.37.22.8.2,1.25.17.15,0,.29-.02.43-.04.08-.01.16-.02.24-.03.62.21,1.4.06,1.71-.42.05-.08.07-.16.09-.24,2.44.18,5.13-1.56,6.69-2.68,2.58-1.86,4.61-4.83,3.76-7.49ZM516.05,399.45s0,0,0,0c-.02,0-.03-.02-.05-.02.02,0,.03.01.05.02Z"/>
      <path class="cls-52" d="M687.94,388.71c0-.34-.64-.53-.86-.17-1.23,1.94-2.19,3.81-4.51,5.26-1.78,1.11-4.99,2.48-7.68,2.41,6.05-1.07,10.48-7.11,10.87-11.04.06-.57-1.04-.67-1.22-.12-1.45,4.3-4.48,8.58-10.13,10.62,5.73-2.56,7.93-8.35,8.81-12.83.12-.63-1.11-.71-1.33-.13-1.98,5.08-3.62,8.92-8.52,12.83,3.59-3.14,5.46-7.11,5.97-11.11.08-.6-1.18-.73-1.29-.13-.62,3.32-2.08,6.26-4.1,9.15,1.64-3.79,1.95-7.96,1.63-11.85-.06-.76-1.64-.58-1.62.15.08,4.44-.9,8.6-1.79,12.93-.94-1.34-1.18-3.47-1.37-4.76-.26-1.79-.15-3.57.2-5.35.13-.66-1.3-.8-1.43-.14-.46,2.35-.48,4.73.15,7.07.28,1.06.54,2.47,1.46,3.41-4.43-3.62-3.79-8.34-2.27-12.84.21-.61-1.22-.9-1.5-.3-2.22,4.78-2.81,10.94,3.39,14.26-.01,0-.02.02-.03.03-5.61-2.47-8.43-5.74-7.23-10.59.1-.42-.85-.63-1.04-.21-1.99,4.45,1.42,10.12,8.05,11.34.03.07.06.13.12.18.29.28.71.32,1.16.37.14.01.29.03.43.04.08,0,.16,0,.24.01.53.31,1.34.29,1.8-.12.07-.06.12-.14.16-.22,2.32.58,5.5-.66,7.38-1.49,3.11-1.38,6.06-3.93,6.1-6.65ZM671.99,395.5s0,0,0,0c-.02-.01-.03-.02-.04-.03.02,0,.03.02.04.03Z"/>
      <path class="cls-27" d="M694.41,449.06c0-.34-.64-.53-.86-.17-1.23,1.94-2.19,3.81-4.51,5.26-1.78,1.11-4.99,2.48-7.68,2.41,6.05-1.07,10.48-7.11,10.87-11.04.06-.57-1.04-.67-1.22-.12-1.45,4.3-4.48,8.58-10.13,10.62,5.73-2.56,7.93-8.35,8.81-12.83.12-.63-1.11-.71-1.33-.13-1.98,5.08-3.62,8.92-8.52,12.83,3.59-3.14,5.46-7.11,5.97-11.11.08-.6-1.18-.73-1.29-.13-.62,3.32-2.08,6.26-4.1,9.15,1.64-3.79,1.95-7.96,1.63-11.85-.06-.76-1.64-.58-1.62.15.08,4.44-.9,8.6-1.79,12.93-.94-1.34-1.18-3.47-1.37-4.76-.26-1.79-.15-3.57.2-5.35.13-.66-1.3-.8-1.43-.14-.46,2.35-.48,4.73.15,7.07.28,1.06.54,2.47,1.46,3.41-4.43-3.62-3.79-8.34-2.27-12.84.21-.61-1.22-.9-1.5-.3-2.22,4.78-2.81,10.94,3.39,14.26-.01,0-.02.02-.03.03-5.61-2.47-8.43-5.74-7.23-10.59.1-.42-.85-.63-1.04-.21-1.99,4.45,1.42,10.12,8.06,11.34.03.07.06.13.12.18.29.28.71.32,1.16.37.14.01.29.03.43.04.08,0,.16,0,.24.01.54.31,1.34.29,1.8-.12.07-.07.12-.14.16-.22,2.32.58,5.5-.66,7.38-1.49,3.11-1.38,6.06-3.93,6.1-6.65ZM678.47,455.86s0,0,0,0c-.02-.01-.03-.02-.04-.03.02,0,.03.02.04.03Z"/>
      <path class="cls-62" d="M629.9,421.25c-.24-.3-.92-.23-.87.16.3,2.11.78,4.08-.21,6.16-.76,1.6-2.58,3.93-4.95,4.84,4.48-3.09,4.08-9.91,1.66-13.45-.35-.52-1.37-.21-1.14.33,1.76,4.24,2.14,9.03-1.32,12.82,3.16-4.27,1-10.07-1.37-14.26-.33-.59-1.45-.22-1.24.36,1.85,5.11,3.12,9.02,1.63,14.15.9-4-.26-8.11-2.63-11.76-.35-.54-1.53-.21-1.21.35,1.8,3.1,2.59,6.16,2.88,9.39-1.24-3.87-3.9-7.59-6.91-10.84-.59-.64-1.83.08-1.3.71,3.18,3.82,5.25,7.77,7.52,11.83-1.76-.83-3.46-2.58-4.52-3.62-1.48-1.46-2.63-3.03-3.58-4.7-.35-.61-1.68-.23-1.34.39,1.25,2.2,2.9,4.26,5.09,6.07.99.82,2.19,1.94,3.65,2.43-6.37-1.55-9.13-5.85-10.97-10.3-.25-.6-1.69-.34-1.51.28,1.44,4.93,5.24,10.47,12.93,11.12,0,.01,0,.02,0,.04-6.59-.12-11.32-1.95-13.68-6.57-.21-.4-1.18-.24-1.04.19,1.4,4.56,8.33,8.25,14.92,6.92.07.05.15.09.23.11.45.14.84.03,1.26-.09.14-.04.27-.08.4-.12.07-.03.14-.05.22-.07.68.08,1.37-.23,1.48-.75.02-.08,0-.17-.01-.25,2.41-.33,4.3-2.54,5.34-3.93,1.73-2.31,2.49-5.57.61-7.94ZM620.88,432.85s0,0,0,0c-.02,0-.04,0-.06-.01.02,0,.04,0,.06,0Z"/>
      <path class="cls-12" d="M739.18,433.29c0-.53-.99-.82-1.34-.27-1.9,3-3.4,5.91-6.99,8.15-2.76,1.72-7.73,3.84-11.9,3.74,9.37-1.65,16.24-11.02,16.84-17.12.09-.89-1.61-1.04-1.89-.19-2.25,6.67-6.94,13.3-15.7,16.46,8.88-3.97,12.28-12.95,13.65-19.88.19-.98-1.72-1.1-2.06-.21-3.06,7.88-5.62,13.83-13.2,19.88,5.56-4.86,8.47-11.02,9.26-17.22.12-.92-1.83-1.13-2.01-.2-.96,5.15-3.23,9.7-6.35,14.18,2.55-5.88,3.02-12.34,2.52-18.37-.1-1.18-2.54-.91-2.52.24.12,6.89-1.4,13.33-2.78,20.04-1.46-2.08-1.83-5.38-2.13-7.37-.41-2.78-.23-5.53.31-8.29.2-1.02-2.01-1.24-2.21-.22-.72,3.65-.74,7.33.23,10.96.44,1.64.83,3.82,2.26,5.28-6.86-5.61-5.88-12.92-3.51-19.9.32-.95-1.9-1.4-2.33-.47-3.44,7.41-4.36,16.95,5.25,22.1-.02.01-.03.03-.05.05-8.7-3.82-13.06-8.9-11.2-16.41.16-.65-1.32-.98-1.61-.32-3.08,6.9,2.2,15.69,12.48,17.57.04.1.1.2.18.28.45.43,1.1.5,1.8.57.22.02.45.04.67.06.12,0,.25.01.37.02.83.48,2.08.46,2.79-.18.11-.1.19-.22.26-.35,3.59.9,8.52-1.02,11.43-2.3,4.83-2.13,9.39-6.09,9.46-10.31ZM714.47,443.83s0,0,0,.01c-.02-.02-.04-.03-.07-.05.02.01.04.03.07.04Z"/>
      <path class="cls-1" d="M884.16,412.97c0-.41-.76-.63-1.03-.21-1.47,2.31-2.62,4.56-5.39,6.28-2.13,1.33-5.97,2.96-9.18,2.89,7.23-1.27,12.52-8.5,12.99-13.2.07-.68-1.24-.8-1.46-.15-1.74,5.14-5.36,10.26-12.11,12.7,6.85-3.06,9.48-9.99,10.53-15.33.15-.75-1.32-.85-1.59-.16-2.36,6.08-4.33,10.67-10.18,15.33,4.29-3.75,6.53-8.5,7.14-13.29.09-.71-1.41-.87-1.55-.15-.74,3.97-2.49,7.48-4.9,10.94,1.97-4.53,2.33-9.52,1.94-14.17-.08-.91-1.96-.7-1.94.18.09,5.31-1.08,10.28-2.14,15.46-1.12-1.61-1.41-4.15-1.64-5.69-.31-2.14-.18-4.26.24-6.39.15-.78-1.55-.96-1.71-.17-.55,2.81-.57,5.65.17,8.45.34,1.27.64,2.95,1.74,4.08-5.29-4.33-4.54-9.96-2.71-15.35.25-.73-1.46-1.08-1.8-.36-2.65,5.72-3.36,13.08,4.05,17.05-.01.01-.02.02-.04.03-6.71-2.95-10.08-6.86-8.64-12.66.12-.51-1.01-.75-1.24-.25-2.37,5.32,1.7,12.1,9.63,13.55.03.08.08.15.14.22.35.33.85.39,1.39.44.17.02.34.03.52.04.1,0,.19,0,.29.02.64.37,1.61.35,2.15-.14.09-.08.15-.17.2-.27,2.77.7,6.57-.79,8.82-1.78,3.72-1.64,7.24-4.7,7.3-7.95ZM865.1,421.1s0,0,0,0c-.02-.01-.03-.03-.05-.04.02,0,.03.02.05.03Z"/>
      <path class="cls-54" d="M589,393.02c.03-.22-.37-.36-.54-.14-.92,1.18-1.67,2.34-3.25,3.17-1.21.64-3.35,1.39-5.05,1.25,3.92-.45,7.17-4.12,7.71-6.6.08-.36-.61-.46-.77-.12-1.24,2.68-3.47,5.28-7.21,6.36,3.82-1.41,5.64-5.01,6.53-7.81.13-.4-.65-.49-.84-.13-1.63,3.15-2.95,5.53-6.34,7.82,2.51-1.86,3.99-4.31,4.61-6.83.09-.38-.7-.51-.81-.13-.64,2.09-1.78,3.89-3.27,5.66,1.32-2.35,1.82-4.98,1.9-7.46.02-.49-1-.43-1.04.04-.28,2.82-1.2,5.43-2.08,8.14-.5-.89-.5-2.25-.52-3.07-.04-1.15.17-2.27.52-3.39.13-.41-.77-.56-.9-.14-.47,1.48-.65,2.98-.42,4.49.1.68.16,1.59.68,2.22-2.54-2.46-1.8-5.43-.5-8.24.18-.38-.71-.62-.93-.25-1.76,2.95-2.59,6.84,1.11,9.18,0,0-.01.01-.02.02-3.38-1.78-4.93-3.96-3.81-6.99.1-.26-.49-.43-.64-.17-1.59,2.75.16,6.48,4.28,7.5.01.04.03.08.06.12.16.19.43.23.71.28.09.01.18.03.27.04.05,0,.1.01.15.02.32.22.83.24,1.15,0,.05-.04.09-.09.12-.14,1.43.46,3.54-.21,4.79-.67,2.08-.76,4.13-2.27,4.36-4ZM578.38,396.74s0,0,0,0c0,0-.02-.01-.02-.02,0,0,.02.01.03.02Z"/>
      <path class="cls-78" d="M754.62,388.35c-.08-.26-.61-.31-.69-.02-.42,1.61-.67,3.13-2.03,4.51-1.05,1.06-3.1,2.5-5.12,2.8,4.24-1.58,6.01-6.67,5.3-9.67-.1-.43-.95-.37-.94.07.01,3.4-1.16,6.99-4.86,9.25,3.62-2.66,3.79-7.27,3.31-10.73-.07-.49-1.01-.39-1.03.07-.18,4.05-.43,7.14-3.09,10.69,1.88-2.81,2.27-6.02,1.63-9.08-.09-.45-1.07-.39-1,.07.39,2.56.04,4.95-.73,7.37.26-3.05-.57-6.2-1.81-9.07-.24-.56-1.37-.22-1.17.33,1.19,3.31,1.52,6.54,1.96,9.89-1.04-.88-1.77-2.44-2.24-3.38-.65-1.3-1.02-2.64-1.21-4.02-.07-.51-1.17-.43-1.1.08.25,1.82.85,3.59,1.91,5.26.48.76,1.03,1.77,1.96,2.36-4.23-2.13-4.96-5.73-4.97-9.3,0-.48-1.15-.52-1.2-.03-.44,3.86.69,8.54,6.16,10.21,0,0-.01.02-.02.03-4.82-1.11-7.76-3.19-8.1-6.97-.03-.33-.79-.36-.83-.02-.35,3.58,3.64,7.38,8.91,7.42.04.05.08.09.14.12.29.17.61.15.96.13.11,0,.22-.02.33-.03.06,0,.12-.02.18-.02.48.16,1.08.04,1.31-.32.04-.06.06-.12.07-.19,1.88.13,3.94-1.21,5.13-2.07,1.98-1.43,3.52-3.72,2.86-5.76ZM744.45,395.51s0,0,0,0c-.01,0-.03-.01-.04-.02.01,0,.03,0,.04.01Z"/>
      <path class="cls-14" d="M805.87,419.97c-.08-.26-.61-.31-.69-.02-.42,1.61-.67,3.13-2.03,4.51-1.05,1.06-3.1,2.5-5.12,2.8,4.24-1.58,6.01-6.67,5.3-9.67-.1-.43-.95-.37-.94.07.01,3.4-1.16,6.99-4.86,9.25,3.62-2.66,3.79-7.27,3.31-10.73-.07-.49-1.01-.39-1.03.07-.18,4.05-.43,7.14-3.09,10.69,1.88-2.81,2.27-6.02,1.63-9.08-.09-.45-1.07-.39-1,.07.39,2.56.04,4.95-.73,7.37.26-3.05-.57-6.2-1.81-9.07-.24-.56-1.37-.22-1.17.33,1.19,3.31,1.52,6.54,1.96,9.89-1.04-.88-1.77-2.44-2.24-3.38-.65-1.3-1.02-2.64-1.21-4.02-.07-.51-1.17-.43-1.1.08.25,1.82.85,3.59,1.91,5.26.48.76,1.03,1.77,1.96,2.36-4.23-2.13-4.96-5.73-4.97-9.3,0-.48-1.15-.52-1.2-.03-.44,3.86.69,8.54,6.16,10.21,0,0-.01.02-.02.03-4.82-1.11-7.76-3.19-8.1-6.97-.03-.33-.79-.36-.83-.02-.35,3.58,3.64,7.38,8.91,7.42.04.05.08.09.14.12.29.17.61.15.96.13.11,0,.22-.02.33-.03.06,0,.12-.02.18-.02.48.16,1.08.04,1.31-.32.04-.06.06-.12.07-.19,1.88.13,3.94-1.21,5.13-2.07,1.98-1.43,3.52-3.72,2.86-5.76ZM795.69,427.12s0,0,0,0c-.01,0-.03-.01-.04-.02.01,0,.03,0,.04.01Z"/>
      <path class="cls-6" d="M980.44,401.1c.03-.24-.4-.39-.58-.15-.98,1.29-1.78,2.54-3.47,3.45-1.3.7-3.6,1.52-5.45,1.38,4.23-.51,7.7-4.51,8.25-7.2.08-.39-.66-.5-.83-.13-1.3,2.9-3.69,5.73-7.71,6.93,4.12-1.55,6.04-5.45,6.96-8.49.13-.43-.71-.53-.9-.14-1.72,3.42-3.12,6-6.76,8.5,2.69-2.03,4.26-4.69,4.89-7.42.09-.41-.76-.54-.88-.14-.66,2.26-1.87,4.22-3.46,6.14,1.4-2.55,1.9-5.4,1.96-8.08.01-.53-1.08-.46-1.13.05-.26,3.06-1.23,5.88-2.15,8.82-.55-.96-.57-2.43-.61-3.32-.05-1.24.15-2.46.52-3.67.13-.45-.84-.6-.97-.15-.48,1.6-.66,3.23-.4,4.86.12.74.19,1.71.76,2.4-2.78-2.65-2.02-5.86-.65-8.9.19-.41-.78-.66-1.01-.26-1.86,3.2-2.71,7.41,1.32,9.92,0,0-.02.01-.02.02-3.68-1.9-5.38-4.25-4.22-7.54.1-.29-.54-.46-.7-.18-1.68,2.99.26,7.01,4.73,8.08.01.05.03.09.07.13.18.2.46.25.77.3.1.02.2.03.29.04.05,0,.11.01.16.02.35.23.9.25,1.25-.02.05-.04.09-.09.13-.15,1.55.48,3.83-.25,5.17-.75,2.24-.83,4.44-2.48,4.66-4.35ZM969.01,405.19h0s-.02-.01-.03-.02c0,0,.02.01.03.02Z"/>
      <path class="cls-51" d="M646.87,389.22c-.1-.21-.54-.22-.57.03-.17,1.35-.2,2.62-1.17,3.84-.75.93-2.28,2.24-3.91,2.6,3.32-1.55,4.22-5.84,3.3-8.27-.13-.35-.82-.25-.77.11.39,2.81-.18,5.83-2.98,7.9,2.7-2.4,2.32-6.21,1.54-9.03-.11-.4-.87-.26-.84.12.3,3.35.43,5.91-1.37,8.99,1.24-2.42,1.21-5.09.34-7.58-.13-.37-.93-.26-.82.12.6,2.09.58,4.08.22,6.12-.12-2.53-1.16-5.08-2.49-7.37-.26-.45-1.16-.11-.93.33,1.35,2.66,1.98,5.31,2.71,8.05-.96-.67-1.73-1.91-2.22-2.66-.68-1.04-1.13-2.12-1.45-3.25-.11-.41-1.02-.29-.9.13.41,1.48,1.1,2.92,2.16,4.23.48.6,1.04,1.4,1.88,1.83-3.72-1.52-4.72-4.45-5.12-7.39-.05-.4-1-.36-.99.04.07,3.21,1.51,7,6.21,8.07,0,0,0,.01-.01.02-4.1-.64-6.75-2.19-7.45-5.29-.06-.27-.7-.25-.68.03.11,2.97,3.82,5.88,8.17,5.62.04.04.08.07.12.09.26.12.52.09.81.05.09-.01.18-.03.27-.04.05-.01.1-.02.15-.03.41.11.9-.02,1.05-.34.02-.05.03-.1.03-.16,1.56,0,3.12-1.22,4-2,1.47-1.29,2.49-3.27,1.72-4.92ZM639.27,395.7s0,0,0,0c-.01,0-.02,0-.03-.01.01,0,.02,0,.03,0Z"/>
      <path class="cls-57" d="M544.16,416.68c.06-.22-.31-.39-.51-.18-1.09,1.1-2.01,2.2-3.7,2.9-1.3.54-3.54,1.12-5.21.85,3.96-.15,7.75-3.54,8.66-5.97.13-.35-.54-.51-.74-.18-1.63,2.57-4.25,4.98-8.13,5.77,4.01-1.11,6.37-4.54,7.67-7.26.18-.38-.57-.54-.81-.2-2.09,3.01-3.77,5.27-7.49,7.29,2.77-1.65,4.61-3.98,5.61-6.44.15-.37-.62-.56-.79-.19-.95,2.03-2.36,3.73-4.1,5.37,1.67-2.23,2.56-4.81,3.01-7.27.09-.48-.92-.51-1.04-.04-.7,2.79-2.01,5.3-3.3,7.93-.36-.92-.16-2.27-.06-3.09.14-1.14.51-2.24,1.03-3.33.19-.4-.68-.61-.87-.21-.69,1.43-1.1,2.92-1.1,4.44,0,.69-.08,1.59.34,2.26-2.16-2.65-.97-5.54.75-8.23.23-.37-.61-.67-.89-.32-2.19,2.8-3.6,6.6-.28,9.21,0,0-.02.01-.02.02-3.1-2.03-4.3-4.32-2.74-7.25.14-.26-.42-.47-.61-.22-1.99,2.61-.82,6.45,3.13,7.79,0,.04.02.09.04.12.14.2.39.26.66.33.09.02.18.04.26.06.05,0,.1.02.15.03.28.24.79.3,1.15.08.06-.03.1-.08.14-.13,1.35.56,3.55.06,4.86-.29,2.18-.59,4.45-1.94,4.94-3.64ZM533.04,419.56s0,0,0,0c0,0-.01-.02-.02-.02,0,0,.02.01.02.02Z"/>
      <path class="cls-22" d="M427.72,413.45c.06-.21-.31-.39-.51-.18-1.09,1.1-2.01,2.2-3.7,2.9-1.3.54-3.54,1.12-5.21.85,3.96-.15,7.75-3.54,8.66-5.97.13-.35-.54-.51-.74-.18-1.63,2.57-4.25,4.98-8.12,5.77,4.01-1.11,6.36-4.54,7.67-7.26.18-.38-.57-.54-.81-.2-2.09,3.01-3.77,5.27-7.49,7.29,2.77-1.65,4.61-3.98,5.61-6.44.15-.37-.62-.56-.79-.19-.95,2.03-2.36,3.73-4.1,5.37,1.67-2.23,2.56-4.81,3.01-7.27.09-.48-.92-.51-1.04-.04-.7,2.79-2.01,5.3-3.3,7.93-.36-.92-.16-2.27-.06-3.09.14-1.14.51-2.24,1.03-3.33.19-.4-.68-.61-.87-.21-.69,1.43-1.1,2.92-1.1,4.44,0,.69-.08,1.59.34,2.26-2.16-2.65-.97-5.54.75-8.23.23-.37-.61-.67-.89-.32-2.19,2.8-3.6,6.6-.28,9.21,0,0-.02.01-.02.02-3.1-2.03-4.3-4.32-2.74-7.25.14-.26-.42-.47-.61-.22-1.99,2.61-.82,6.45,3.13,7.79,0,.04.02.09.04.12.14.2.39.26.66.33.09.02.18.04.26.06.05,0,.1.02.15.03.28.24.79.3,1.15.08.06-.03.1-.08.14-.13,1.35.56,3.55.06,4.86-.29,2.18-.59,4.45-1.94,4.94-3.64ZM416.6,416.33h0s-.01-.01-.02-.02c0,0,.02.01.02.02Z"/>
      <path class="cls-7" d="M830.1,392.68c0-.22-.41-.34-.55-.11-.77,1.24-1.38,2.43-2.84,3.36-1.13.71-3.17,1.59-4.88,1.56,3.84-.7,6.63-4.56,6.86-7.07.03-.36-.66-.42-.78-.07-.9,2.74-2.81,5.48-6.39,6.79,3.63-1.65,5-5.34,5.54-8.19.08-.4-.71-.45-.85-.08-1.23,3.24-2.26,5.69-5.35,8.19,2.27-2.01,3.44-4.54,3.75-7.1.05-.38-.76-.46-.83-.08-.38,2.12-1.29,3.99-2.56,5.84,1.03-2.42,1.2-5.08.97-7.55-.04-.49-1.05-.37-1.03.1.07,2.83-.53,5.48-1.07,8.24-.61-.85-.77-2.21-.9-3.03-.18-1.14-.11-2.27.1-3.41.08-.42-.83-.51-.91-.09-.28,1.5-.28,3.01.13,4.5.19.67.36,1.57.95,2.17-2.84-2.29-2.46-5.3-1.51-8.17.13-.39-.79-.57-.96-.19-1.39,3.05-1.73,6.98,2.23,9.07,0,0-.01.01-.02.02-3.59-1.56-5.4-3.63-4.66-6.73.06-.27-.54-.4-.66-.13-1.24,2.84.96,6.44,5.19,7.2.02.04.04.08.08.12.19.18.45.2.74.23.09,0,.18.02.28.02.05,0,.1,0,.15,0,.34.2.86.18,1.15-.08.05-.04.08-.09.1-.14,1.48.36,3.5-.43,4.69-.97,1.98-.88,3.84-2.52,3.85-4.25ZM819.98,397.06s0,0,0,0c0,0-.02-.01-.03-.02,0,0,.02.01.03.02Z"/>
      <path class="cls-11" d="M891.27,393.41c0-.27-.49-.41-.67-.13-.93,1.5-1.67,2.95-3.44,4.07-1.37.86-3.83,1.93-5.91,1.89,4.66-.84,8.04-5.52,8.31-8.56.04-.44-.8-.51-.94-.09-1.09,3.32-3.4,6.63-7.74,8.23,4.4-2,6.06-6.47,6.71-9.93.09-.49-.86-.54-1.03-.1-1.49,3.93-2.74,6.9-6.49,9.92,2.75-2.43,4.17-5.5,4.54-8.59.05-.46-.92-.56-1-.1-.45,2.57-1.57,4.83-3.1,7.07,1.24-2.93,1.45-6.15,1.18-9.15-.05-.59-1.27-.45-1.25.12.09,3.43-.64,6.64-1.3,9.98-.73-1.03-.94-2.67-1.09-3.67-.21-1.38-.14-2.75.12-4.13.1-.51-1.01-.61-1.1-.11-.34,1.82-.34,3.65.16,5.45.23.82.43,1.9,1.15,2.63-3.44-2.78-2.98-6.42-1.83-9.9.16-.47-.95-.69-1.16-.23-1.68,3.7-2.1,8.45,2.71,10.99,0,0-.02.02-.02.02-4.35-1.88-6.54-4.4-5.64-8.15.08-.33-.66-.48-.8-.16-1.5,3.44,1.16,7.8,6.29,8.72.02.05.05.1.09.14.23.21.55.25.9.28.11.01.22.02.33.03.06,0,.12,0,.18,0,.41.24,1.04.22,1.39-.1.05-.05.09-.11.13-.17,1.79.44,4.24-.53,5.68-1.17,2.39-1.07,4.65-3.05,4.66-5.15ZM879.02,398.71s0,0,0,0c-.01,0-.02-.02-.03-.02.01,0,.02.01.03.02Z"/>
      <path class="cls-38" d="M918.55,394.61c-.1-.21-.54-.22-.57.03-.14,1.35-.13,2.62-1.07,3.85-.72.94-2.22,2.27-3.84,2.65,3.28-1.59,4.07-5.9,3.08-8.31-.14-.35-.83-.24-.77.12.46,2.8-.03,5.83-2.77,7.94,2.63-2.43,2.16-6.24,1.3-9.05-.12-.4-.88-.25-.84.13.39,3.35.59,5.9-1.13,9.01,1.17-2.44,1.07-5.11.14-7.58-.14-.37-.93-.25-.81.13.66,2.08.69,4.07.38,6.12-.19-2.53-1.29-5.07-2.69-7.34-.27-.45-1.16-.09-.92.35,1.42,2.64,2.12,5.28,2.92,8.01-.98-.65-1.78-1.89-2.29-2.63-.71-1.03-1.19-2.11-1.53-3.23-.13-.41-1.02-.27-.9.14.45,1.48,1.17,2.9,2.27,4.2.5.59,1.08,1.39,1.92,1.81-3.76-1.47-4.84-4.38-5.32-7.32-.07-.4-1.01-.35-.99.06.15,3.21,1.7,6.98,6.43,7.99,0,0,0,.02,0,.02-4.12-.59-6.81-2.1-7.59-5.19-.07-.27-.7-.24-.68.04.19,2.97,3.97,5.82,8.31,5.5.04.03.08.07.13.09.26.12.52.08.81.04.09-.01.18-.03.27-.05.05-.01.1-.02.15-.03.42.1.89-.04,1.04-.35.02-.05.03-.1.03-.16,1.56-.02,3.08-1.26,3.95-2.05,1.44-1.31,2.41-3.3,1.59-4.94ZM911.12,401.19s0,0,0,0c-.01,0-.02,0-.04-.01.01,0,.02,0,.03,0Z"/>
      <polygon class="cls-30" points="1108.95 459.88 1098.97 454.48 1086.03 459.88 1097.49 462.77 1108.95 459.88"/>
      <polygon class="cls-36" points="1071.58 456.43 1061.6 451.03 1048.65 456.43 1060.12 459.32 1071.58 456.43"/>
      <circle class="cls-4" cx="210.02" cy="245.5" r="165"/>
      <circle class="cls-66" cx="210.02" cy="245.5" r="80.5"/>
    </g>
  </g>
</svg>