<?xml version="1.0" encoding="UTF-8"?>
<svg id="_1" data-name="1" xmlns="http://www.w3.org/2000/svg" xmlns:xlink="http://www.w3.org/1999/xlink" viewBox="0 0 1366 550">
  <defs>
    <style>
      .cls-1 {
        fill: url(#linear-gradient-15);
      }

      .cls-2 {
        fill: url(#linear-gradient-13);
      }

      .cls-3 {
        fill: url(#linear-gradient-28);
      }

      .cls-4 {
        fill: url(#linear-gradient-42);
      }

      .cls-5 {
        fill: url(#linear-gradient-2);
      }

      .cls-6 {
        fill: url(#linear-gradient-25);
      }

      .cls-7 {
        fill: url(#linear-gradient-10);
      }

      .cls-8 {
        fill: url(#linear-gradient-12);
      }

      .cls-9 {
        fill: url(#linear-gradient-40);
      }

      .cls-10 {
        fill: url(#linear-gradient-27);
      }

      .cls-11 {
        fill: url(#linear-gradient-37);
      }

      .cls-12 {
        fill: url(#linear-gradient-39);
      }

      .cls-13 {
        fill: url(#linear-gradient-26);
      }

      .cls-14 {
        fill: none;
      }

      .cls-15 {
        fill: url(#linear-gradient-4);
      }

      .cls-16 {
        fill: url(#linear-gradient-35);
      }

      .cls-17 {
        fill: url(#linear-gradient-30);
      }

      .cls-18 {
        fill: url(#linear-gradient-3);
      }

      .cls-19 {
        fill: url(#linear-gradient-34);
      }

      .cls-20 {
        fill: url(#linear-gradient-5);
      }

      .cls-21 {
        fill: url(#linear-gradient-38);
      }

      .cls-22 {
        fill: url(#linear-gradient-22);
      }

      .cls-23 {
        fill: url(#linear-gradient-24);
      }

      .cls-24 {
        fill: url(#linear-gradient-33);
      }

      .cls-25 {
        fill: url(#linear-gradient-8);
      }

      .cls-26 {
        fill: url(#linear-gradient-14);
      }

      .cls-27 {
        fill: url(#linear-gradient-29);
      }

      .cls-28 {
        fill: url(#linear-gradient-20);
      }

      .cls-29 {
        fill: url(#linear-gradient-17);
      }

      .cls-30 {
        fill: url(#linear-gradient-7);
      }

      .cls-31 {
        fill: url(#linear-gradient-9);
      }

      .cls-32 {
        fill: url(#linear-gradient-11);
      }

      .cls-33 {
        fill: #383667;
      }

      .cls-34 {
        fill: url(#linear-gradient-19);
      }

      .cls-35 {
        fill: url(#linear-gradient-6);
      }

      .cls-36 {
        fill: url(#linear-gradient-36);
      }

      .cls-37 {
        fill: url(#linear-gradient-21);
      }

      .cls-38 {
        fill: url(#linear-gradient-32);
      }

      .cls-39 {
        fill: url(#linear-gradient-41);
      }

      .cls-40 {
        fill: url(#linear-gradient-16);
      }

      .cls-41 {
        fill: url(#linear-gradient);
      }

      .cls-42 {
        fill: url(#linear-gradient-23);
      }

      .cls-43 {
        fill: url(#linear-gradient-31);
      }

      .cls-44 {
        clip-path: url(#clippath);
      }

      .cls-45 {
        fill: url(#linear-gradient-18);
      }
    </style>
    <clipPath id="clippath">
      <rect class="cls-14" x="2.35" y="-1.56" width="1364.11" height="550"/>
    </clipPath>
    <linearGradient id="linear-gradient" x1="1047.38" y1="279.91" x2="1047.38" y2="551.7" gradientUnits="userSpaceOnUse">
      <stop offset="0" stop-color="#594296"/>
      <stop offset=".17" stop-color="#544090"/>
      <stop offset=".4" stop-color="#483c7f"/>
      <stop offset=".66" stop-color="#353563"/>
      <stop offset=".94" stop-color="#1a2b3d"/>
      <stop offset=".99" stop-color="#152a36"/>
    </linearGradient>
    <linearGradient id="linear-gradient-2" x1="389.53" y1="319.94" x2="334.11" y2="487.56" xlink:href="#linear-gradient"/>
    <linearGradient id="linear-gradient-3" x1="117.83" y1="417.5" x2="106.31" y2="473.04" gradientUnits="userSpaceOnUse">
      <stop offset="0" stop-color="#594296"/>
      <stop offset=".39" stop-color="#3a376a"/>
      <stop offset=".78" stop-color="#1f2d44"/>
      <stop offset=".99" stop-color="#152a36"/>
    </linearGradient>
    <linearGradient id="linear-gradient-4" x1="422.79" y1="514.91" x2="412.38" y2="565.07" gradientTransform="translate(88.44 -113.35) rotate(10.29)" xlink:href="#linear-gradient-3"/>
    <linearGradient id="linear-gradient-5" x1="191.14" y1="405.53" x2="188.92" y2="423.25" xlink:href="#linear-gradient-3"/>
    <linearGradient id="linear-gradient-6" x1="318.57" y1="454.78" x2="318.03" y2="486.28" xlink:href="#linear-gradient-3"/>
    <linearGradient id="linear-gradient-7" x1="156.06" y1="414.45" x2="155.3" y2="420.55" xlink:href="#linear-gradient-3"/>
    <linearGradient id="linear-gradient-8" x1="277.57" y1="434.13" x2="276.8" y2="440.22" xlink:href="#linear-gradient-3"/>
    <linearGradient id="linear-gradient-9" x1="314.94" y1="430.96" x2="314.18" y2="437.06" xlink:href="#linear-gradient-3"/>
    <linearGradient id="linear-gradient-10" x1="58.3" y1="386.98" x2="57.53" y2="393.07" xlink:href="#linear-gradient-3"/>
    <linearGradient id="linear-gradient-11" x1="516.49" y1="477.18" x2="515.72" y2="483.27" xlink:href="#linear-gradient-3"/>
    <linearGradient id="linear-gradient-12" x1="589.34" y1="504.64" x2="588.58" y2="510.73" xlink:href="#linear-gradient-3"/>
    <linearGradient id="linear-gradient-13" x1="533.34" y1="479.76" x2="533.34" y2="522.33" gradientTransform="translate(147.29 -196.85) rotate(17.18)" xlink:href="#linear-gradient"/>
    <linearGradient id="linear-gradient-14" x1="343.02" y1="444.33" x2="343.02" y2="490.12" gradientTransform="translate(65.93 -113.19) rotate(8.31)" xlink:href="#linear-gradient"/>
    <linearGradient id="linear-gradient-15" x1="837.7" y1="396.16" x2="837.7" y2="443.61" gradientTransform="translate(-65.38 255.11) rotate(-14.92)" xlink:href="#linear-gradient"/>
    <linearGradient id="linear-gradient-16" x1="1104.74" y1="381.3" x2="1104.74" y2="426.77" gradientTransform="translate(.42 -32.33) rotate(.85)" xlink:href="#linear-gradient"/>
    <linearGradient id="linear-gradient-17" x1="858.83" y1="516.92" x2="858.83" y2="562.38" gradientTransform="translate(.42 -32.33) rotate(.85)" xlink:href="#linear-gradient"/>
    <linearGradient id="linear-gradient-18" x1="236.21" y1="550.68" x2="236.21" y2="623.13" gradientTransform="translate(65.93 -113.19) rotate(8.31)" xlink:href="#linear-gradient"/>
    <linearGradient id="linear-gradient-19" x1="1281.13" y1="342.59" x2="1281.13" y2="420.88" gradientTransform="translate(-11.41 480.64) rotate(-22.32)" xlink:href="#linear-gradient"/>
    <linearGradient id="linear-gradient-20" x1="1098.11" y1="436.12" x2="1098.11" y2="514.4" gradientTransform="translate(-11.41 480.64) rotate(-22.32)" xlink:href="#linear-gradient"/>
    <linearGradient id="linear-gradient-21" x1="401.83" y1="472.1" x2="401.83" y2="499.52" gradientTransform="translate(65.93 -113.19) rotate(8.31)" xlink:href="#linear-gradient"/>
    <linearGradient id="linear-gradient-22" x1="668.38" y1="473.48" x2="668.38" y2="508.22" gradientTransform="translate(96.76 -139.13) rotate(12.24)" xlink:href="#linear-gradient"/>
    <linearGradient id="linear-gradient-23" x1="1012.81" y1="359.18" x2="1012.81" y2="388.49" gradientTransform="translate(-34.85 432.22) rotate(-21.35)" xlink:href="#linear-gradient"/>
    <linearGradient id="linear-gradient-24" x1="942.21" y1="350.21" x2="942.21" y2="384.29" gradientTransform="translate(-18.17 145.55) rotate(-5.46)" xlink:href="#linear-gradient"/>
    <linearGradient id="linear-gradient-25" x1="161.53" y1="341.08" x2="153.31" y2="401.83" xlink:href="#linear-gradient"/>
    <linearGradient id="linear-gradient-26" x1="125.29" y1="298.52" x2="116.88" y2="360.71" gradientTransform="translate(-124.1 239.12) rotate(-22.75)" xlink:href="#linear-gradient"/>
    <linearGradient id="linear-gradient-27" x1="1227.1" y1="554.93" x2="1218.95" y2="615.15" gradientTransform="translate(-35.48 -123.7) rotate(-4.85)" xlink:href="#linear-gradient"/>
    <linearGradient id="linear-gradient-28" x1="1290.36" y1="681.18" x2="1277.61" y2="775.4" gradientTransform="translate(-35.48 -123.7) rotate(-4.85)" xlink:href="#linear-gradient"/>
    <linearGradient id="linear-gradient-29" x1="371.73" y1="427.23" x2="365.42" y2="464.49" xlink:href="#linear-gradient-3"/>
    <linearGradient id="linear-gradient-30" x1="-7.81" y1="413.63" x2="-19.33" y2="469.17" gradientTransform="translate(1238.27) rotate(-180) scale(1 -1)" xlink:href="#linear-gradient-3"/>
    <linearGradient id="linear-gradient-31" x1="-124.33" y1="395.67" x2="-135.86" y2="451.21" gradientTransform="translate(1238.27) rotate(-180) scale(1 -1)" xlink:href="#linear-gradient-3"/>
    <linearGradient id="linear-gradient-32" x1="290.22" y1="546.23" x2="279.81" y2="596.39" gradientTransform="translate(1149.83 -113.35) rotate(169.71) scale(1 -1)" xlink:href="#linear-gradient-3"/>
    <linearGradient id="linear-gradient-33" x1="63.48" y1="403.18" x2="61.27" y2="420.89" gradientTransform="translate(1238.27) rotate(-180) scale(1 -1)" xlink:href="#linear-gradient-3"/>
    <linearGradient id="linear-gradient-34" x1="81.14" y1="444.83" x2="78.92" y2="462.54" gradientTransform="translate(1238.27) rotate(-180) scale(1 -1)" xlink:href="#linear-gradient-3"/>
    <linearGradient id="linear-gradient-35" x1="182.54" y1="461.91" x2="182" y2="493.4" gradientTransform="translate(1238.27) rotate(-180) scale(1 -1)" xlink:href="#linear-gradient-3"/>
    <linearGradient id="linear-gradient-36" x1="469.51" y1="480.87" x2="468.97" y2="512.36" gradientTransform="translate(1238.27) rotate(-180) scale(1 -1)" xlink:href="#linear-gradient-3"/>
    <linearGradient id="linear-gradient-37" x1="20.03" y1="421.58" x2="19.27" y2="427.67" gradientTransform="translate(1238.27) rotate(-180) scale(1 -1)" xlink:href="#linear-gradient-3"/>
    <linearGradient id="linear-gradient-38" x1="-37.8" y1="382.48" x2="-38.56" y2="388.57" gradientTransform="translate(1238.27) rotate(-180) scale(1 -1)" xlink:href="#linear-gradient-3"/>
    <linearGradient id="linear-gradient-39" x1="302.78" y1="450.74" x2="302.02" y2="456.83" gradientTransform="translate(1238.27) rotate(-180) scale(1 -1)" xlink:href="#linear-gradient-3"/>
    <linearGradient id="linear-gradient-40" x1="-77.74" y1="394.1" x2="-78.5" y2="400.19" gradientTransform="translate(1238.27) rotate(-180) scale(1 -1)" xlink:href="#linear-gradient-3"/>
    <linearGradient id="linear-gradient-41" x1="380.45" y1="484.3" x2="379.69" y2="490.39" gradientTransform="translate(1238.27) rotate(-180) scale(1 -1)" xlink:href="#linear-gradient-3"/>
    <linearGradient id="linear-gradient-42" x1="235.7" y1="434.35" x2="229.39" y2="471.62" gradientTransform="translate(1238.27) rotate(-180) scale(1 -1)" xlink:href="#linear-gradient-3"/>
  </defs>
  <g class="cls-44">
    <g>
      <g>
        <path class="cls-41" d="M547.97,552.54c-14.31,5.99-27.94,12.65-39.9,20.49-30.51,20.02-29.35,29.77,10.1,40.83,70.21,19.68,147.31,26.27,222.83,30.21,208.2,10.86,418.78,1.94,623.11-26.38,62.02-8.6,124.52-19.25,178.71-40.83,12.98-5.17,25.67-11.11,34.38-19.27,9.14-8.57,13.23-18.95,17.06-29.1,9.06-24.01,17.69-48.83,11.93-73.27-8.78-37.23-38.09-86.31-98.71-97.27-33.08-5.98-68.21-3.15-102.15.18-286.66,28.13-565.67,89.46-820.24,180.32-12.45,4.44-25.02,9.04-37.1,14.1Z"/>
        <path class="cls-5" d="M820.2,552.54c14.31,5.99,27.94,12.65,39.9,20.49,30.51,20.02,29.35,29.77-10.1,40.83-70.21,19.68-147.31,26.27-222.83,30.21-208.2,10.86-418.78,1.94-623.11-26.38-62.02-8.6-124.52-19.25-178.71-40.83-12.98-5.17-25.67-11.11-34.38-19.27-9.14-8.57-13.23-18.95-17.06-29.1-9.06-24.01-17.69-48.83-11.93-73.27,8.78-37.23,38.09-86.31,98.71-97.27,33.08-5.98,68.21-3.15,102.15.18,286.66,28.13,565.67,89.46,820.24,180.32,12.45,4.44,25.02,9.04,37.1,14.1Z"/>
        <polygon class="cls-18" points="64.83 462.38 88.29 446.99 115.8 443.28 152.21 462.38 123.08 468.21 84.24 471.92 64.83 462.38"/>
        <polygon class="cls-15" points="360.24 502.3 383.51 492.12 407.55 491.85 433.95 511.08 408.06 512.91 374.46 512.04 360.24 502.3"/>
        <polygon class="cls-20" points="163.54 417.51 179.07 407.33 197.28 404.87 215.6 418.67 201.56 423.83 176.39 423.83 163.54 417.51"/>
        <polygon class="cls-35" points="292.05 482.88 307.58 472.7 325.79 470.24 344.11 484.04 330.07 489.2 304.9 489.2 292.05 482.88"/>
        <polygon class="cls-30" points="143.85 420.47 153.83 415.52 166.77 420.47 155.31 423.12 143.85 420.47"/>
        <polygon class="cls-25" points="265.35 440.15 275.33 435.19 288.28 440.15 276.81 442.8 265.35 440.15"/>
        <polygon class="cls-31" points="302.72 436.98 312.7 432.03 325.65 436.98 314.19 439.63 302.72 436.98"/>
        <polygon class="cls-7" points="46.08 393 56.06 388.04 69.01 393 57.54 395.65 46.08 393"/>
        <polygon class="cls-32" points="504.27 483.19 514.25 478.24 527.2 483.19 515.73 485.85 504.27 483.19"/>
        <polygon class="cls-8" points="577.13 510.66 587.1 505.71 600.05 510.66 588.59 513.31 577.13 510.66"/>
        <path class="cls-2" d="M543.63,441.75c.22-.83-1.36-1.46-2.17-.66-4.4,4.34-8.07,8.61-15.05,11.45-5.37,2.19-14.66,4.59-21.71,3.68,16.59-.88,31.92-14.26,35.31-23.67.49-1.37-2.33-1.91-3.15-.64-6.42,10.01-16.98,19.51-33.11,22.85,16.65-4.59,25.93-17.99,30.95-28.57.71-1.49-2.5-2.03-3.43-.7-8.27,11.75-14.92,20.57-30.18,28.64,11.35-6.58,18.69-15.67,22.44-25.22.56-1.42-2.68-2.1-3.34-.68-3.63,7.87-9.26,14.56-16.31,21,6.62-8.72,9.93-18.73,11.41-28.23.29-1.86-3.97-1.88-4.38-.09-2.46,10.78-7.55,20.57-12.5,30.8-1.67-3.52-1.04-8.73-.76-11.9.38-4.41,1.75-8.68,3.74-12.89.73-1.55-2.95-2.3-3.68-.75-2.63,5.57-4.1,11.31-3.86,17.15.11,2.65-.07,6.12,1.8,8.66-9.51-10.01-5.01-21.24,1.73-31.72.92-1.42-2.69-2.53-3.79-1.15-8.72,10.95-13.99,25.68.37,35.46-.04.02-.07.04-.1.06-13.33-7.55-18.79-16.27-12.71-27.67.53-.99-1.86-1.77-2.61-.79-7.91,10.21-2.33,24.9,14.44,29.71.03.17.09.33.21.47.6.76,1.68.99,2.84,1.22.37.08.74.15,1.12.21.21.03.42.06.62.1,1.22.91,3.37,1.09,4.82.22.23-.14.41-.31.57-.49,5.76,2.06,14.91-.04,20.35-1.52,9.04-2.45,18.34-7.8,20.1-14.39ZM497.47,453.72s0,.01,0,.02c-.03-.03-.06-.06-.09-.09.04.02.07.05.1.07Z"/>
        <path class="cls-26" d="M377.81,397.05c.03-.96-1.92-1.48-2.62-.49-3.78,5.38-6.76,10.59-13.84,14.59-5.44,3.07-15.23,6.84-23.39,6.63,18.4-2.89,32.02-19.68,33.32-30.64.19-1.59-3.13-1.88-3.71-.36-4.53,11.97-13.84,23.85-31.06,29.46,17.47-7.06,24.31-23.18,27.11-35.63.4-1.76-3.34-1.99-4.04-.39-6.14,14.14-11.25,24.82-26.22,35.63,10.98-8.7,16.79-19.74,18.45-30.89.25-1.66-3.57-2.05-3.93-.38-1.97,9.25-6.5,17.41-12.69,25.45,5.1-10.55,6.14-22.17,5.26-33.01-.17-2.12-4.96-1.65-4.94.4.12,12.38-2.97,23.96-5.79,36.01-2.82-3.75-3.5-9.69-4.04-13.27-.75-5-.36-9.94.75-14.9.41-1.83-3.92-2.25-4.33-.41-1.47,6.55-1.58,13.17.25,19.7.83,2.96,1.56,6.88,4.34,9.52-13.35-10.14-11.3-23.27-6.54-35.81.65-1.7-3.7-2.53-4.56-.86-6.86,13.29-8.84,30.44,9.9,39.77-.04.02-.06.06-.1.08-16.99-6.95-25.45-16.1-21.67-29.6.33-1.18-2.56-1.77-3.15-.59-6.15,12.37,4.05,28.22,24.16,31.7.08.18.19.36.36.51.88.78,2.15.91,3.51,1.05.44.04.87.08,1.31.11.24,0,.48.02.72.04,1.62.88,4.08.84,5.47-.31.22-.18.38-.39.51-.62,7.02,1.65,16.73-1.76,22.45-4.05,9.5-3.79,18.51-10.87,18.72-18.46ZM329.19,415.8s0,.01,0,.02c-.05-.03-.08-.06-.13-.09.05.02.09.05.13.07Z"/>
        <path class="cls-1" d="M888.74,433.48c-.55-.89-2.66-.87-2.7.22-.24,5.92.16,11.48-3.94,16.98-3.15,4.23-9.88,10.22-17.51,12.14,15.16-7.41,17.59-26.36,12.19-36.77-.79-1.51-4.01-.92-3.62.63,3.03,12.17,1.62,25.5-10.83,35.1,11.8-11.01,8.4-27.58,3.49-39.75-.69-1.72-4.27-.96-3.94.69,2.86,14.58,4.58,25.71-2.67,39.52,4.86-10.83,3.56-22.48-1.62-33.16-.77-1.59-4.52-.96-3.84.67,3.76,9.01,4.5,17.68,3.64,26.67-1.66-11.01-7.69-21.96-15.02-31.69-1.44-1.91-5.55-.24-4.29,1.65,7.55,11.35,11.68,22.79,16.34,34.59-4.85-2.72-9.04-8-11.7-11.15-3.7-4.4-6.31-9.04-8.27-13.89-.72-1.79-4.96-1.05-4.23.74,2.59,6.4,6.47,12.51,12.08,18.04,2.54,2.51,5.57,5.92,9.71,7.63-18.37-5.87-24.38-18.47-27.55-31.22-.43-1.73-4.92-1.37-4.71.39,1.69,13.99,10.18,30.26,33.02,33.99-.02.03-.02.07-.04.1-19.79-1.99-33.07-8.22-37.71-21.6-.4-1.17-3.42-.96-3.25.27,1.79,12.96,20.69,24.89,41.27,22.88.18.15.39.28.63.37,1.28.49,2.52.28,3.86.05.43-.07.85-.15,1.27-.24.23-.06.46-.11.69-.15,2.01.39,4.25-.28,4.85-1.7.09-.22.11-.46.09-.7,7.44-.29,14.31-5.94,18.19-9.52,6.45-5.94,10.48-14.77,6.1-21.81ZM855.33,463.27s0,.01,0,.02c-.06-.01-.11-.03-.17-.05.06,0,.11.02.16.03Z"/>
        <path class="cls-40" d="M1138.58,383.2c-.16-.95-2.2-1.31-2.69-.27-2.68,5.65-4.61,11.08-10.83,15.64-4.79,3.51-13.75,8.07-21.88,8.56,17.67-4.43,27.86-22.23,26.97-33.21-.13-1.6-3.48-1.6-3.75-.04-2.12,12.26-9.01,24.83-24.97,31.86,15.92-8.49,19.51-25.05,19.83-37.63.04-1.78-3.71-1.69-4.08-.04-3.29,14.54-6.25,25.56-18.95,37.56,9.17-9.56,12.74-21,12.18-32.2-.08-1.67-3.95-1.72-3.97-.04-.12,9.34-3,17.82-7.55,26.32,2.97-10.89,1.7-22.5-1.32-33.17-.59-2.09-5.24-1.21-4.81.82,2.57,12.27,1.79,24.01,1.38,36.2-3.54-3.48-5.39-9.31-6.63-12.82-1.73-4.89-2.32-9.83-2.2-14.84.04-1.85-4.33-1.89-4.38-.04-.16,6.62,1.04,13.2,4.15,19.52,1.41,2.86,2.91,6.69,6.18,9.07-15.24-8.92-15.81-22.12-13.57-34.95.3-1.74-4.17-2.2-4.69-.46-4.17,13.77-2.74,30.94,17.69,38.6-.03.03-.05.06-.08.09-18.22-5.44-28.42-13.8-27.34-27.51.09-1.19-2.89-1.54-3.24-.32-3.65,12.79,9.6,27.64,30.23,29.37.12.17.26.34.45.47,1.03.7,2.31.72,3.69.74.44,0,.88,0,1.32,0,.24-.02.48-.02.73-.02,1.78.73,4.21.48,5.37-.77.18-.2.3-.42.38-.66,7.29,1.04,16.24-3.17,21.46-5.92,8.67-4.57,16.2-12.35,14.91-19.9ZM1094.08,405.92s0,.01,0,.02c-.05-.02-.1-.05-.15-.08.05.02.1.04.15.06Z"/>
        <path class="cls-29" d="M890.68,515.14c-.16-.95-2.2-1.31-2.69-.27-2.68,5.65-4.61,11.08-10.83,15.64-4.79,3.51-13.75,8.07-21.88,8.56,17.67-4.43,27.86-22.23,26.97-33.21-.13-1.6-3.48-1.6-3.75-.04-2.12,12.26-9.01,24.83-24.97,31.86,15.92-8.49,19.51-25.05,19.83-37.63.05-1.78-3.71-1.69-4.08-.04-3.29,14.54-6.25,25.56-18.95,37.56,9.17-9.56,12.74-21,12.18-32.2-.08-1.67-3.95-1.72-3.97-.04-.12,9.34-3,17.82-7.55,26.32,2.97-10.89,1.7-22.5-1.32-33.17-.59-2.09-5.24-1.21-4.81.82,2.57,12.27,1.79,24.01,1.38,36.2-3.54-3.48-5.39-9.31-6.63-12.82-1.73-4.89-2.32-9.83-2.2-14.84.04-1.85-4.33-1.89-4.38-.04-.16,6.62,1.04,13.2,4.15,19.52,1.41,2.86,2.91,6.69,6.18,9.07-15.24-8.92-15.81-22.12-13.57-34.95.3-1.74-4.17-2.2-4.69-.46-4.17,13.77-2.74,30.94,17.69,38.6-.03.03-.05.06-.08.09-18.22-5.44-28.42-13.8-27.34-27.51.09-1.19-2.89-1.54-3.24-.32-3.65,12.79,9.6,27.64,30.23,29.37.12.17.26.34.45.47,1.03.7,2.31.72,3.69.74.44,0,.88,0,1.32,0,.24-.02.48-.02.73-.02,1.78.73,4.21.48,5.37-.77.18-.2.3-.42.38-.66,7.29,1.04,16.24-3.17,21.46-5.92,8.67-4.57,16.2-12.35,14.91-19.9ZM846.17,537.86s0,.01,0,.02c-.05-.02-.1-.05-.15-.08.05.02.1.04.15.06Z"/>
        <path class="cls-45" d="M278.09,499.09c.04-1.52-3.04-2.35-4.14-.78-5.98,8.51-10.7,16.76-21.89,23.08-8.61,4.86-24.09,10.81-37,10.49,29.1-4.58,50.66-31.13,52.7-48.47.3-2.52-4.95-2.98-5.87-.56-7.17,18.94-21.9,37.73-49.14,46.61,27.63-11.18,38.45-36.67,42.89-56.36.63-2.78-5.29-3.15-6.39-.61-9.72,22.37-17.8,39.26-41.48,56.36,17.37-13.76,26.56-31.23,29.19-48.87.39-2.62-5.65-3.24-6.22-.59-3.11,14.64-10.28,27.54-20.08,40.26,8.06-16.68,9.71-35.07,8.32-52.21-.27-3.36-7.84-2.61-7.81.64.19,19.59-4.7,37.91-9.16,56.97-4.46-5.94-5.54-15.32-6.39-21-1.19-7.9-.57-15.73,1.19-23.57.65-2.89-6.21-3.55-6.86-.66-2.32,10.36-2.5,20.84.4,31.17,1.31,4.68,2.47,10.88,6.86,15.06-21.12-16.05-17.88-36.82-10.34-56.65,1.02-2.69-5.85-4.01-7.21-1.36-10.86,21.03-13.99,48.16,15.66,62.92-.06.04-.1.09-.15.13-26.88-10.99-40.26-25.47-34.28-46.83.52-1.86-4.05-2.8-4.98-.94-9.73,19.57,6.4,44.65,38.23,50.14.13.29.3.57.56.8,1.39,1.24,3.39,1.44,5.56,1.66.69.07,1.38.12,2.08.17.38,0,.77.03,1.15.06,2.56,1.38,6.45,1.33,8.66-.49.35-.29.6-.62.8-.98,11.1,2.62,26.46-2.78,35.51-6.4,15.02-6,29.28-17.19,29.62-29.21ZM201.17,528.74s0,.02,0,.03c-.07-.05-.13-.09-.2-.14.07.04.14.08.21.11Z"/>
        <path class="cls-34" d="M1372.82,323.82c-1.14-1.32-4.44-1.01-4.17.71,1.47,9.32,3.82,17.99-.9,27.17-3.63,7.06-12.33,17.35-23.69,21.38,21.48-13.66,19.4-43.7,7.69-59.31-1.7-2.27-6.58-.91-5.49,1.48,8.55,18.69,10.48,39.78-6.06,56.52,15.09-18.85,4.59-44.39-6.89-62.83-1.62-2.6-7-.94-5.97,1.61,9.02,22.49,15.19,39.72,8.11,62.35,4.26-17.64-1.41-35.74-12.86-51.8-1.7-2.39-7.38-.9-5.81,1.56,8.7,13.64,12.56,27.13,14.01,41.35-6.03-17.05-18.9-33.42-33.41-47.71-2.85-2.8-8.77.37-6.22,3.16,15.38,16.79,25.41,34.19,36.39,52.08-8.45-3.62-16.67-11.33-21.82-15.94-7.16-6.4-12.71-13.34-17.29-20.68-1.69-2.7-8.1-.98-6.41,1.72,6.05,9.69,14.04,18.77,24.57,26.69,4.77,3.59,10.59,8.54,17.61,10.67-30.64-6.76-44-25.71-52.92-45.29-1.21-2.66-8.14-1.49-7.26,1.24,7,21.72,25.39,46.11,62.37,48.91-.02.05-.02.11-.03.16-31.67-.48-54.44-8.47-65.88-28.84-1-1.78-5.66-1.05-5.01.86,6.84,20.09,40.2,36.28,71.86,30.38.33.21.7.39,1.11.5,2.16.6,4.04.11,6.07-.43.65-.17,1.29-.35,1.92-.55.34-.12.68-.23,1.04-.33,3.28.34,6.58-1.01,7.07-3.31.08-.36.03-.74-.07-1.11,11.59-1.46,20.6-11.23,25.58-17.37,8.26-10.18,11.84-24.57,2.79-35.02ZM1329.67,375.02s.01.02.02.03c-.1-.02-.19-.04-.28-.05.09,0,.18.02.27.03Z"/>
        <path class="cls-28" d="M1239.03,479.85c-1.14-1.32-4.44-1.01-4.17.71,1.47,9.32,3.82,17.99-.9,27.17-3.63,7.06-12.33,17.35-23.69,21.38,21.48-13.66,19.4-43.7,7.69-59.31-1.7-2.27-6.57-.91-5.49,1.48,8.55,18.69,10.48,39.78-6.06,56.52,15.09-18.85,4.59-44.39-6.89-62.83-1.62-2.6-7-.94-5.97,1.61,9.02,22.49,15.19,39.72,8.11,62.35,4.26-17.64-1.41-35.74-12.86-51.8-1.7-2.39-7.38-.9-5.81,1.56,8.7,13.64,12.56,27.13,14.01,41.35-6.03-17.05-18.9-33.42-33.41-47.71-2.85-2.8-8.77.37-6.22,3.16,15.38,16.79,25.41,34.19,36.39,52.08-8.45-3.62-16.67-11.33-21.82-15.94-7.16-6.4-12.71-13.34-17.29-20.68-1.69-2.7-8.1-.98-6.41,1.72,6.05,9.69,14.04,18.77,24.57,26.69,4.77,3.59,10.59,8.54,17.61,10.67-30.64-6.76-44-25.71-52.92-45.29-1.21-2.66-8.14-1.49-7.26,1.24,7,21.72,25.39,46.11,62.38,48.91-.02.05-.02.11-.03.16-31.67-.48-54.44-8.47-65.88-28.84-1-1.77-5.66-1.05-5.01.86,6.84,20.09,40.2,36.28,71.86,30.38.33.21.7.39,1.11.5,2.16.6,4.04.11,6.07-.43.65-.17,1.29-.35,1.92-.55.34-.12.68-.23,1.04-.33,3.28.34,6.58-1.01,7.07-3.31.08-.36.03-.74-.07-1.11,11.59-1.46,20.6-11.23,25.58-17.37,8.26-10.18,11.84-24.57,2.79-35.02ZM1195.88,531.05s.01.02.02.03c-.1-.02-.19-.04-.28-.05.09,0,.18.02.27.03Z"/>
        <path class="cls-37" d="M417.27,424.6c.02-.57-1.15-.89-1.57-.29-2.26,3.22-4.05,6.34-8.29,8.74-3.26,1.84-9.12,4.09-14.01,3.97,11.01-1.73,19.17-11.78,19.95-18.35.11-.95-1.87-1.13-2.22-.21-2.71,7.17-8.29,14.28-18.6,17.64,10.46-4.23,14.55-13.88,16.23-21.33.24-1.05-2-1.19-2.42-.23-3.68,8.47-6.74,14.86-15.7,21.33,6.58-5.21,10.05-11.82,11.05-18.5.15-.99-2.14-1.23-2.35-.23-1.18,5.54-3.89,10.42-7.6,15.24,3.05-6.31,3.68-13.27,3.15-19.76-.1-1.27-2.97-.99-2.96.24.07,7.41-1.78,14.35-3.47,21.56-1.69-2.25-2.1-5.8-2.42-7.95-.45-2.99-.21-5.95.45-8.92.25-1.09-2.35-1.34-2.59-.25-.88,3.92-.95,7.89.15,11.8.5,1.77.94,4.12,2.6,5.7-7.99-6.07-6.77-13.94-3.91-21.44.39-1.02-2.21-1.52-2.73-.51-4.11,7.96-5.29,18.23,5.93,23.82-.02.01-.04.03-.06.05-10.17-4.16-15.24-9.64-12.97-17.72.2-.7-1.53-1.06-1.88-.35-3.68,7.41,2.42,16.9,14.47,18.98.05.11.11.21.21.3.53.47,1.28.55,2.1.63.26.03.52.05.79.06.15,0,.29.01.43.02.97.52,2.44.5,3.28-.18.13-.11.23-.24.3-.37,4.2.99,10.01-1.05,13.44-2.42,5.69-2.27,11.08-6.51,11.21-11.05ZM388.16,435.82s0,0,0,.01c-.03-.02-.05-.04-.08-.05.03.01.05.03.08.04Z"/>
        <path class="cls-22" d="M675.57,482.5c.09-.71-1.31-1.17-1.9-.45-3.22,3.86-5.84,7.63-11.4,10.36-4.28,2.1-11.83,4.56-17.87,4.14,13.87-1.53,25.28-13.52,27.1-21.61.26-1.18-2.18-1.5-2.72-.39-4.29,8.73-12.12,17.23-25.33,20.81,13.51-4.66,19.83-16.38,22.88-25.52.43-1.29-2.33-1.59-2.97-.42-5.66,10.28-10.28,18.03-22.22,25.55,8.82-6.08,13.99-14.08,16.09-22.3.31-1.22-2.49-1.64-2.89-.41-2.18,6.8-6.18,12.7-11.4,18.45,4.6-7.65,6.28-16.24,6.47-24.31.04-1.58-3.55-1.39-3.69.13-.88,9.19-4.07,17.67-7.1,26.52-1.8-2.88-1.84-7.3-1.96-9.98-.17-3.73.51-7.39,1.72-11.03.45-1.34-2.74-1.8-3.18-.45-1.6,4.81-2.2,9.72-1.35,14.62.39,2.22.62,5.16,2.48,7.21-9.11-7.97-6.57-17.64-2.06-26.78.61-1.24-2.54-2-3.32-.79-6.12,9.63-8.93,22.29,4.25,29.83-.03.02-.05.04-.08.06-12.06-5.72-17.62-12.79-13.77-22.68.34-.86-1.76-1.4-2.29-.54-5.53,8.97.81,21.07,15.46,24.32.05.14.11.27.23.39.59.61,1.52.75,2.52.89.32.05.64.09.97.12.18.01.36.03.53.05,1.13.7,2.96.76,4.08-.05.18-.13.31-.28.42-.44,5.08,1.46,12.54-.75,16.96-2.25,7.34-2.5,14.57-7.44,15.32-13.07ZM638.05,494.77s0,0,0,.01c-.03-.02-.06-.05-.09-.07.03.02.06.04.09.06Z"/>
        <path class="cls-42" d="M1065.07,403.03c-.42-.5-1.66-.4-1.58.25.46,3.51,1.26,6.79-.6,10.23-1.44,2.64-4.81,6.48-9.13,7.95,8.22-5.05,7.73-16.37,3.47-22.3-.62-.86-2.47-.37-2.08.53,3.04,7.07,3.56,15.02-2.83,21.26,5.87-7.03,2.16-16.7-1.99-23.68-.59-.99-2.63-.38-2.27.58,3.18,8.51,5.34,15.02,2.45,23.51,1.77-6.62-.19-13.46-4.34-19.56-.62-.91-2.77-.37-2.2.56,3.14,5.17,4.47,10.27,4.88,15.63-2.1-6.44-6.79-12.66-12.12-18.1-1.04-1.07-3.31.1-2.37,1.16,5.63,6.39,9.24,12.98,13.2,19.76-3.15-1.4-6.17-4.34-8.06-6.09-2.64-2.44-4.66-5.08-6.31-7.86-.61-1.03-3.04-.4-2.43.62,2.19,3.67,5.1,7.12,8.99,10.15,1.76,1.37,3.9,3.26,6.53,4.09-11.47-2.67-16.32-9.86-19.49-17.27-.43-1.01-3.05-.6-2.75.44,2.43,8.21,9.11,17.47,23.01,18.68,0,.02,0,.04-.01.06-11.92-.31-20.42-3.42-24.53-11.14-.36-.67-2.12-.42-1.9.3,2.38,7.59,14.79,13.83,26.76,11.74.12.08.26.15.41.19.81.24,1.52.06,2.29-.14.25-.06.49-.13.73-.2.13-.04.26-.08.39-.12,1.23.14,2.49-.35,2.7-1.22.03-.14.02-.28-.02-.42,4.38-.5,7.87-4.14,9.8-6.43,3.21-3.8,4.7-9.2,1.39-13.18ZM1048.33,422.13s0,0,0,.01c-.04,0-.07-.01-.11-.02.03,0,.07,0,.1.01Z"/>
        <path class="cls-23" d="M983.54,415.73c-.24-.7-1.79-.85-2.02-.05-1.28,4.32-2.02,8.43-6.05,12.14-3.1,2.85-9.15,6.7-15.1,7.5,12.5-4.22,17.81-17.92,15.79-25.99-.29-1.17-2.77-.99-2.77.17-.04,9.17-3.56,18.83-14.48,24.88,10.71-7.13,11.3-19.56,9.96-28.87-.19-1.32-2.95-1.05-3.02.19-.62,10.92-1.43,19.22-9.32,28.77,5.58-7.55,6.8-16.2,4.99-24.45-.27-1.23-3.13-1.06-2.94.18,1.08,6.91,0,13.33-2.3,19.85.83-8.21-1.55-16.72-5.11-24.44-.7-1.51-4.02-.62-3.46.86,3.43,8.93,4.32,17.65,5.54,26.68-3.05-2.38-5.14-6.59-6.5-9.12-1.89-3.52-2.94-7.14-3.48-10.85-.2-1.37-3.44-1.17-3.24.2.71,4.9,2.41,9.7,5.5,14.2,1.4,2.04,2.99,4.79,5.7,6.37-12.38-5.78-14.44-15.5-14.39-25.1,0-1.31-3.35-1.4-3.52-.09-1.37,10.4,1.83,23.01,17.88,27.57-.02.02-.03.05-.05.07-14.14-3.05-22.72-8.67-23.64-18.86-.08-.89-2.33-.98-2.43-.06-1.1,9.65,10.54,19.91,26,20.09.11.12.23.24.39.32.85.46,1.8.41,2.82.35.33-.02.65-.04.98-.08.18-.02.36-.04.53-.05,1.4.44,3.17.13,3.87-.86.11-.16.17-.33.2-.51,5.51.38,11.6-3.21,15.12-5.52,5.83-3.84,10.43-9.99,8.54-15.5ZM953.48,434.9s0,0,0,.01c-.04-.02-.08-.03-.12-.05.04.01.08.03.12.04Z"/>
        <path class="cls-6" d="M188.67,388.56c.11-.81-1.49-1.33-2.16-.51-3.66,4.39-6.64,8.68-12.97,11.79-4.86,2.39-13.45,5.19-20.32,4.71,15.78-1.74,28.76-15.39,30.83-24.59.3-1.34-2.48-1.71-3.1-.44-4.88,9.93-13.79,19.6-28.82,23.68,15.37-5.3,22.56-18.63,26.03-29.03.49-1.47-2.65-1.81-3.37-.48-6.44,11.7-11.69,20.51-25.28,29.07,10.04-6.92,15.92-16.02,18.31-25.37.36-1.39-2.84-1.86-3.28-.47-2.48,7.73-7.03,14.44-12.96,20.99,5.23-8.7,7.14-18.47,7.36-27.65.04-1.8-4.04-1.58-4.2.15-1,10.45-4.63,20.11-8.08,30.17-2.05-3.28-2.1-8.31-2.23-11.36-.19-4.24.58-8.4,1.95-12.54.51-1.53-3.11-2.04-3.62-.51-1.82,5.47-2.5,11.05-1.53,16.64.44,2.53.71,5.87,2.82,8.2-10.37-9.07-7.48-20.07-2.35-30.47.7-1.41-2.89-2.28-3.77-.9-6.97,10.96-10.16,25.35,4.83,33.94-.03.02-.06.04-.09.06-13.72-6.51-20.05-14.56-15.66-25.8.38-.98-2.01-1.59-2.6-.62-6.29,10.21.92,23.97,17.58,27.67.05.16.13.31.26.44.67.69,1.73.85,2.87,1.02.37.05.73.1,1.1.14.2.01.41.04.61.06,1.29.8,3.37.86,4.65-.05.2-.14.35-.32.48-.5,5.78,1.66,14.27-.85,19.3-2.56,8.35-2.84,16.58-8.47,17.43-14.87ZM145.98,402.52s0,.01,0,.02c-.04-.03-.07-.05-.1-.08.04.02.07.04.11.06Z"/>
        <path class="cls-13" d="M151.23,504.93c-.38-.77-2.15-.85-2.3.07-.79,4.98-1,9.69-5.01,14.16-3.08,3.43-9.35,8.2-15.97,9.49,13.52-5.61,17.45-21.48,13.92-30.49-.51-1.31-3.29-.95-3.12.38,1.35,10.4-1.16,21.57-12.61,29.14,11.05-8.78,9.81-22.9,6.88-33.37-.41-1.48-3.5-.99-3.4.41.96,12.42,1.32,21.88-6.16,33.21,5.17-8.93,5.23-18.81,1.92-28.03-.49-1.37-3.71-1-3.3.4,2.28,7.76,2.04,15.1.43,22.65-.31-9.35-4.31-18.85-9.52-27.37-1.02-1.67-4.65-.43-3.78,1.21,5.25,9.89,7.59,19.72,10.35,29.87-3.82-2.5-6.83-7.13-8.76-9.91-2.68-3.87-4.42-7.89-5.6-12.06-.43-1.54-4.08-1.1-3.64.44,1.55,5.51,4.22,10.83,8.4,15.73,1.9,2.22,4.11,5.23,7.43,6.85-14.91-5.73-18.73-16.61-20.14-27.5-.19-1.48-4.01-1.37-4.01.13.04,11.87,5.59,25.96,24.48,30.07-.02.03-.03.06-.04.08-16.49-2.52-27.08-8.34-29.67-19.82-.23-1-2.79-.96-2.77.09.22,11.01,14.99,21.87,32.54,21.05.14.13.3.25.5.34,1.03.47,2.1.35,3.25.21.37-.04.73-.09,1.1-.15.2-.04.4-.07.6-.1,1.66.41,3.61-.06,4.25-1.23.1-.18.14-.38.15-.59,6.31.07,12.66-4.4,16.29-7.25,6.02-4.74,10.3-12.01,7.31-18.13ZM120.1,528.63s0,.01,0,.02c-.05-.02-.09-.03-.14-.05.05,0,.09.02.14.03Z"/>
        <path class="cls-10" d="M1265.36,371.05c0-.81-1.65-1.24-2.22-.39-3.08,4.58-5.5,9.02-11.4,12.46-4.54,2.65-12.74,5.92-19.64,5.82,15.5-2.61,26.67-16.93,27.54-26.21.13-1.35-2.69-1.56-3.14-.27-3.59,10.16-11.21,20.29-25.66,25.19,14.63-6.13,20.08-19.82,22.19-30.37.3-1.49-2.87-1.65-3.42-.29-4.9,12.01-9,21.09-21.44,30.36,9.11-7.45,13.79-16.84,14.97-26.29.17-1.4-3.07-1.7-3.33-.28-1.47,7.84-5.14,14.78-10.21,21.64,4.09-8.96,4.73-18.8,3.77-27.96-.19-1.8-4.23-1.35-4.17.39.36,10.47-2.02,20.29-4.15,30.51-2.46-3.15-3.16-8.16-3.69-11.19-.74-4.22-.51-8.4.33-12.61.31-1.55-3.36-1.86-3.67-.31-1.11,5.55-1.06,11.15.62,16.66.76,2.5,1.46,5.8,3.86,8.01-11.5-8.46-10.04-19.58-6.27-30.23.51-1.45-3.18-2.11-3.87-.69-5.53,11.3-6.85,25.83,9.2,33.55-.03.02-.05.05-.08.07-14.51-5.72-21.86-13.39-18.94-24.84.25-1-2.2-1.47-2.67-.47-4.95,10.52,4.01,23.83,21.09,26.59.07.15.17.3.31.42.76.66,1.83.75,2.99.86.37.03.74.06,1.11.08.21,0,.41.01.61.03,1.39.73,3.47.67,4.62-.31.18-.15.31-.34.42-.53,5.97,1.34,14.11-1.64,18.9-3.62,7.95-3.29,15.43-9.35,15.45-15.78ZM1224.63,387.33s0,.01,0,.02c-.04-.02-.07-.05-.11-.07.04.02.07.04.11.06Z"/>
        <path class="cls-3" d="M1357.61,498.85c0-1.27-2.59-1.94-3.48-.62-4.83,7.17-8.6,14.11-17.84,19.5-7.1,4.14-19.93,9.26-30.74,9.1,24.25-4.09,41.74-26.48,43.1-41.01.2-2.11-4.2-2.45-4.92-.42-5.61,15.91-17.55,31.76-40.15,39.42,22.89-9.59,31.41-31.01,34.73-47.53.47-2.33-4.49-2.58-5.36-.46-7.67,18.8-14.09,33-33.54,47.51,14.25-11.66,21.58-26.36,23.42-41.14.27-2.2-4.8-2.66-5.21-.44-2.3,12.27-8.04,23.13-15.97,33.86,6.4-14.03,7.4-29.42,5.89-43.75-.3-2.81-6.61-2.11-6.52.6.56,16.38-3.16,31.75-6.5,47.74-3.85-4.93-4.95-12.77-5.78-17.51-1.16-6.6-.8-13.15.51-19.73.48-2.42-5.26-2.92-5.75-.49-1.73,8.69-1.67,17.45.97,26.07,1.2,3.91,2.29,9.08,6.05,12.54-17.99-13.24-15.71-30.64-9.81-47.3.8-2.26-4.97-3.3-6.06-1.07-8.65,17.69-10.71,40.41,14.39,52.5-.05.03-.08.07-.12.11-22.71-8.96-34.2-20.95-29.63-38.87.4-1.56-3.45-2.3-4.18-.74-7.74,16.46,6.27,37.29,33,41.61.11.24.26.47.49.67,1.19,1.02,2.87,1.18,4.68,1.34.58.05,1.16.09,1.74.12.32,0,.64.02.96.04,2.17,1.14,5.42,1.05,7.23-.48.29-.24.49-.53.65-.83,9.34,2.09,22.08-2.56,29.57-5.67,12.44-5.15,24.14-14.64,24.18-24.69ZM1293.88,524.32s0,.02,0,.02c-.06-.04-.11-.08-.17-.12.06.03.12.06.18.09Z"/>
        <polygon class="cls-27" points="330.54 448.4 353.81 438.22 377.86 437.95 404.26 457.18 378.37 459.01 344.77 458.14 330.54 448.4"/>
        <polygon class="cls-17" points="1299.08 458.51 1275.62 443.13 1248.11 439.41 1211.7 458.51 1240.83 464.34 1279.66 468.06 1299.08 458.51"/>
        <polygon class="cls-43" points="1415.61 440.55 1392.14 425.17 1364.63 421.46 1328.22 440.55 1357.35 446.39 1396.19 450.1 1415.61 440.55"/>
        <polygon class="cls-38" points="1014.07 509.43 990.8 499.24 966.75 498.98 940.35 518.2 966.24 520.04 999.84 519.16 1014.07 509.43"/>
        <polygon class="cls-24" points="1202.39 415.16 1186.86 404.98 1168.65 402.52 1150.33 416.32 1164.37 421.48 1189.54 421.48 1202.39 415.16"/>
        <polygon class="cls-19" points="1184.73 456.81 1169.2 446.62 1151 444.17 1132.67 457.96 1146.71 463.12 1171.88 463.12 1184.73 456.81"/>
        <polygon class="cls-16" points="1082.25 490.01 1066.72 479.83 1048.52 477.37 1030.19 491.17 1044.23 496.33 1069.4 496.33 1082.25 490.01"/>
        <polygon class="cls-36" points="795.28 508.97 779.75 498.79 761.54 496.33 743.22 510.12 757.26 515.29 782.43 515.29 795.28 508.97"/>
        <polygon class="cls-11" points="1230.45 427.6 1220.47 422.65 1207.53 427.6 1218.99 430.25 1230.45 427.6"/>
        <polygon class="cls-21" points="1288.28 388.5 1278.31 383.55 1265.36 388.5 1276.82 391.15 1288.28 388.5"/>
        <polygon class="cls-12" points="947.71 456.76 937.73 451.81 924.78 456.76 936.24 459.41 947.71 456.76"/>
        <polygon class="cls-9" points="1328.22 400.12 1318.24 395.17 1305.3 400.12 1316.76 402.77 1328.22 400.12"/>
        <polygon class="cls-39" points="870.03 490.32 860.05 485.37 847.11 490.32 858.57 492.97 870.03 490.32"/>
        <polygon class="cls-4" points="1043.76 455.53 1020.49 445.34 996.45 445.08 970.04 464.3 995.93 466.14 1029.54 465.26 1043.76 455.53"/>
      </g>
      <ellipse class="cls-33" cx="683" cy="559.29" rx="993.94" ry="20.5"/>
    </g>
  </g>
</svg>