<?xml version="1.0" encoding="UTF-8"?>
<svg xmlns="http://www.w3.org/2000/svg" xmlns:xlink="http://www.w3.org/1999/xlink" viewBox="0 0 1366 550">
  <defs>
    <style>
      .cls-1 {
        fill: url(#_횁책챌청챙첼챠챠청챕_찾챨횪채챔책챠챵_27-10);
      }

      .cls-1, .cls-2, .cls-3, .cls-4, .cls-5, .cls-6, .cls-7, .cls-8, .cls-9, .cls-10, .cls-11, .cls-12, .cls-13, .cls-14, .cls-15, .cls-16, .cls-17, .cls-18, .cls-19, .cls-20, .cls-21, .cls-22, .cls-23, .cls-24, .cls-25, .cls-26, .cls-27, .cls-28, .cls-29, .cls-30, .cls-31, .cls-32, .cls-33, .cls-34, .cls-35, .cls-36, .cls-37, .cls-38, .cls-39, .cls-40, .cls-41, .cls-42 {
        fill-rule: evenodd;
      }

      .cls-1, .cls-3, .cls-6, .cls-7, .cls-43, .cls-44, .cls-9, .cls-45, .cls-19, .cls-20, .cls-21, .cls-23, .cls-25, .cls-27, .cls-46, .cls-47, .cls-35, .cls-36, .cls-37, .cls-40 {
        mix-blend-mode: multiply;
      }

      .cls-1, .cls-3, .cls-6, .cls-7, .cls-9, .cls-45, .cls-20, .cls-21, .cls-23, .cls-25, .cls-27, .cls-46, .cls-35, .cls-36, .cls-37, .cls-40 {
        opacity: .5;
      }

      .cls-2 {
        fill: url(#_횁책챌청챙첼챠챠청챕_찾챨횪채챔책챠챵_26-6);
      }

      .cls-48 {
        fill: url(#_횁책챌청챙첼챠챠청챕_찾챨횪채챔책챠챵_2-8);
      }

      .cls-49 {
        fill: url(#_횁책챌청챙첼챠챠청챕_찾챨횪채챔책챠챵_2-11);
      }

      .cls-50 {
        fill: url(#_횁책챌청챙첼챠챠청챕_찾챨횪채챔책챠챵_5-15);
      }

      .cls-51 {
        fill: url(#_횁책챌청챙첼챠챠청챕_찾챨횪채챔책챠챵_5-18);
      }

      .cls-3 {
        fill: url(#_횁책챌청챙첼챠챠청챕_찾챨횪채챔책챠챵_27-4);
      }

      .cls-52 {
        fill: url(#_횁책챌청챙첼챠챠청챕_찾챨횪채챔책챠챵_2-7);
      }

      .cls-53 {
        fill: url(#_횁책챌청챙첼챠챠청챕_찾챨횪채챔책챠챵_5-13);
      }

      .cls-4 {
        fill: url(#_횁책챌청챙첼챠챠청챕_찾챨횪채챔책챠챵_26-4);
      }

      .cls-5 {
        fill: url(#_횁책챌청챙첼챠챠청챕_찾챨횪채챔책챠챵_19);
      }

      .cls-6 {
        fill: url(#_횁책챌청챙첼챠챠청챕_찾챨횪채챔책챠챵_27-13);
      }

      .cls-7 {
        fill: url(#_횁책챌청챙첼챠챠청챕_찾챨횪채챔책챠챵_27-11);
      }

      .cls-8 {
        fill: url(#_횁책챌청챙첼챠챠청챕_찾챨횪채챔책챠챵_25-7);
      }

      .cls-43 {
        opacity: .32;
      }

      .cls-43, .cls-19, .cls-23 {
        fill: #5280c7;
      }

      .cls-54 {
        fill: url(#_횁책챌청챙첼챠챠청챕_찾챨횪채챔책챠챵_5-11);
      }

      .cls-55 {
        fill: url(#_횁책챌청챙첼챠챠청챕_찾챨횪채챔책챠챵_2-9);
      }

      .cls-44 {
        opacity: .22;
      }

      .cls-44, .cls-9, .cls-45, .cls-47 {
        fill: #235c76;
      }

      .cls-56 {
        fill: none;
      }

      .cls-57 {
        fill: url(#_횁책챌청챙첼챠챠청챕_찾챨횪채챔책챠챵_2-4);
      }

      .cls-58 {
        fill: url(#_횁책챌청챙첼챠챠청챕_찾챨횪채챔책챠챵_5-17);
      }

      .cls-10 {
        fill: url(#_횁책챌청챙첼챠챠청챕_찾챨횪채챔책챠챵_26);
      }

      .cls-11 {
        fill: url(#_횁책챌청챙첼챠챠청챕_찾챨횪채챔책챠챵_25-8);
      }

      .cls-12 {
        fill: url(#_횁책챌청챙첼챠챠청챕_찾챨횪채챔책챠챵_25-6);
      }

      .cls-59 {
        fill: url(#_횁책챌청챙첼챠챠청챕_찾챨횪채챔책챠챵_28);
      }

      .cls-60 {
        fill: url(#_횁책챌청챙첼챠챠청챕_찾챨횪채챔책챠챵_5-12);
      }

      .cls-13 {
        fill: url(#_횁책챌청챙첼챠챠청챕_찾챨횪채챔책챠챵_25);
      }

      .cls-14 {
        fill: url(#_횁책챌청챙첼챠챠청챕_찾챨횪채챔책챠챵_39);
        mix-blend-mode: screen;
        opacity: .25;
      }

      .cls-15 {
        fill: url(#_횁책챌청챙첼챠챠청챕_찾챨횪채챔책챠챵_26-11);
      }

      .cls-61 {
        fill: url(#_횁책챌청챙첼챠챠청챕_찾챨횪채챔책챠챵_5-14);
      }

      .cls-62 {
        fill: url(#_횁책챌청챙첼챠챠청챕_찾챨횪채챔책챠챵_5);
      }

      .cls-16 {
        fill: url(#_횁책챌청챙첼챠챠청챕_찾챨횪채챔책챠챵_26-10);
      }

      .cls-17 {
        fill: url(#_횁책챌청챙첼챠챠청챕_찾챨횪채챔책챠챵_5-5);
      }

      .cls-18 {
        fill: url(#_횁책챌청챙첼챠챠청챕_찾챨횪채챔책챠챵_25-9);
      }

      .cls-63 {
        fill: url(#_횁책챌청챙첼챠챠청챕_찾챨횪채챔책챠챵_5-8);
      }

      .cls-64 {
        fill: url(#_횁책챌청챙첼챠챠청챕_찾챨횪채챔책챠챵_2-10);
      }

      .cls-65 {
        isolation: isolate;
      }

      .cls-19 {
        opacity: .28;
      }

      .cls-20 {
        fill: url(#_횁책챌청챙첼챠챠청챕_찾챨횪채챔책챠챵_27-8);
      }

      .cls-66 {
        fill: url(#_횁책챌청챙첼챠챠청챕_찾챨횪채챔책챠챵_2);
      }

      .cls-67 {
        fill: url(#_횁책챌청챙첼챠챠청챕_찾챨횪채챔책챠챵_5-4);
      }

      .cls-21 {
        fill: url(#_횁책챌청챙첼챠챠청챕_찾챨횪채챔책챠챵_27-2);
      }

      .cls-68 {
        fill: url(#_횁책챌청챙첼챠챠청챕_찾챨횪채챔책챠챵_5-2);
      }

      .cls-69 {
        fill: url(#_횁책챌청챙첼챠챠청챕_찾챨횪채챔책챠챵_5-16);
      }

      .cls-22 {
        fill: url(#_횁책챌청챙첼챠챠청챕_찾챨횪채챔책챠챵_26-3);
      }

      .cls-70 {
        fill: url(#_횁책챌청챙첼챠챠청챕_찾챨횪채챔책챠챵_2-3);
      }

      .cls-24 {
        fill: url(#_횁책챌청챙첼챠챠청챕_찾챨횪채챔책챠챵_26-2);
      }

      .cls-25 {
        fill: url(#_횁책챌청챙첼챠챠청챕_찾챨횪채챔책챠챵_27-12);
      }

      .cls-26 {
        fill: url(#_횁책챌청챙첼챠챠청챕_찾챨횪채챔책챠챵_25-5);
      }

      .cls-71 {
        fill: url(#_횁책챌청챙첼챠챠청챕_찾챨횪채챔책챠챵_2-6);
      }

      .cls-27 {
        fill: url(#_횁책챌청챙첼챠챠청챕_찾챨횪채챔책챠챵_27-6);
      }

      .cls-28 {
        fill: #826983;
      }

      .cls-29 {
        fill: url(#_횁책챌청챙첼챠챠청챕_찾챨횪채챔책챠챵_26-9);
      }

      .cls-30 {
        fill: url(#_횁책챌청챙첼챠챠청챕_찾챨횪채챔책챠챵_26-5);
      }

      .cls-72 {
        fill: url(#_횁책챌청챙첼챠챠청챕_찾챨횪채챔책챠챵_2-5);
      }

      .cls-73 {
        fill: url(#_횁책챌청챙첼챠챠청챕_찾챨횪채챔책챠챵_2-2);
      }

      .cls-31 {
        fill: #8a7278;
        mix-blend-mode: soft-light;
      }

      .cls-46 {
        fill: url(#_횁책챌청챙첼챠챠청챕_찾챨횪채챔책챠챵_27);
      }

      .cls-74 {
        fill: url(#_횁책챌청챙첼챠챠청챕_찾챨횪채챔책챠챵_5-3);
      }

      .cls-32 {
        fill: url(#_횁책챌청챙첼챠챠청챕_찾챨횪채챔책챠챵_25-2);
      }

      .cls-33 {
        fill: url(#_횁책챌청챙첼챠챠청챕_찾챨횪채챔책챠챵_26-7);
      }

      .cls-47 {
        opacity: .2;
      }

      .cls-34 {
        fill: url(#_횁책챌청챙첼챠챠청챕_찾챨횪채챔책챠챵_25-10);
      }

      .cls-75 {
        fill: url(#_횁책챌청챙첼챠챠청챕_찾챨횪채챔책챠챵_5-10);
      }

      .cls-76 {
        fill: url(#_횁책챌청챙첼챠챠청챕_찾챨횪채챔책챠챵_5-7);
      }

      .cls-35 {
        fill: url(#_횁책챌청챙첼챠챠청챕_찾챨횪채챔책챠챵_27-3);
      }

      .cls-36 {
        fill: url(#_횁책챌청챙첼챠챠청챕_찾챨횪채챔책챠챵_27-9);
      }

      .cls-77 {
        fill: #566409;
      }

      .cls-37 {
        fill: url(#_횁책챌청챙첼챠챠청챕_찾챨횪채챔책챠챵_27-7);
      }

      .cls-38 {
        fill: url(#_횁책챌청챙첼챠챠청챕_찾챨횪채챔책챠챵_26-12);
      }

      .cls-39 {
        fill: url(#_횁책챌청챙첼챠챠청챕_찾챨횪채챔책챠챵_26-8);
      }

      .cls-40 {
        fill: url(#_횁책챌청챙첼챠챠청챕_찾챨횪채챔책챠챵_27-5);
      }

      .cls-78 {
        fill: url(#_횁책챌청챙첼챠챠청챕_찾챨횪채챔책챠챵_5-6);
      }

      .cls-79 {
        fill: url(#_횁책챌청챙첼챠챠청챕_찾챨횪채챔책챠챵_5-9);
      }

      .cls-80 {
        fill: url(#_횁책챌청챙첼챠챠청챕_찾챨횪채챔책챠챵_2-12);
      }

      .cls-81 {
        clip-path: url(#clippath);
      }

      .cls-41 {
        fill: url(#_횁책챌청챙첼챠챠청챕_찾챨횪채챔책챠챵_25-3);
      }

      .cls-42 {
        fill: url(#_횁책챌청챙첼챠챠청챕_찾챨횪채챔책챠챵_25-4);
      }
    </style>
    <clipPath id="clippath">
      <rect class="cls-56" x="-.09" y="0" width="1366" height="550"/>
    </clipPath>
    <linearGradient id="_횁책챌청챙첼챠챠청챕_찾챨횪채챔책챠챵_5" data-name="횁책챌청챙첼챠챠청챕 찾챨횪채챔책챠챵 5" x1="1099.6" y1="603.25" x2="1108.47" y2="370.39" gradientUnits="userSpaceOnUse">
      <stop offset="0" stop-color="#3f700a"/>
      <stop offset="1" stop-color="#99930c"/>
    </linearGradient>
    <linearGradient id="_횁책챌청챙첼챠챠청챕_찾챨횪채챔책챠챵_25" data-name="횁책챌청챙첼챠챠청챕 찾챨횪채챔책챠챵 25" x1="555.58" y1="363.14" x2="510.05" y2="580.3" gradientUnits="userSpaceOnUse">
      <stop offset="0" stop-color="#3e1e38"/>
      <stop offset="1" stop-color="#343a5b"/>
    </linearGradient>
    <linearGradient id="_횁책챌청챙첼챠챠청챕_찾챨횪채챔책챠챵_39" data-name="횁책챌청챙첼챠챠청챕 찾챨횪채챔책챠챵 39" x1="-9.58" y1="303.99" x2="-5.45" y2="544.13" gradientUnits="userSpaceOnUse">
      <stop offset="0" stop-color="#e4cf25"/>
      <stop offset=".25" stop-color="#a4951a"/>
      <stop offset=".62" stop-color="#4c450c"/>
      <stop offset=".88" stop-color="#151303"/>
      <stop offset="1" stop-color="#000"/>
    </linearGradient>
    <linearGradient id="_횁책챌청챙첼챠챠청챕_찾챨횪채챔책챠챵_5-2" data-name="횁책챌청챙첼챠챠청챕 찾챨횪채챔책챠챵 5" x1="162.59" y1="261.57" x2="158.13" y2="522.75" xlink:href="#_횁책챌청챙첼챠챠청챕_찾챨횪채챔책챠챵_5"/>
    <linearGradient id="_횁책챌청챙첼챠챠청챕_찾챨횪채챔책챠챵_5-3" data-name="횁책챌청챙첼챠챠청챕 찾챨횪채챔책챠챵 5" x1="717.44" y1="322.55" x2="742.66" y2="454.04" xlink:href="#_횁책챌청챙첼챠챠청챕_찾챨횪채챔책챠챵_5"/>
    <linearGradient id="_횁책챌청챙첼챠챠청챕_찾챨횪채챔책챠챵_5-4" data-name="횁책챌청챙첼챠챠청챕 찾챨횪채챔책챠챵 5" x1="458.42" y1="248.05" x2="499.87" y2="464.2" xlink:href="#_횁책챌청챙첼챠챠청챕_찾챨횪채챔책챠챵_5"/>
    <linearGradient id="_횁책챌청챙첼챠챠청챕_찾챨횪채챔책챠챵_5-5" data-name="횁책챌청챙첼챠챠청챕 찾챨횪채챔책챠챵 5" x1="-86.92" y1="559.07" x2="-78.15" y2="328.91" xlink:href="#_횁책챌청챙첼챠챠청챕_찾챨횪채챔책챠챵_5"/>
    <linearGradient id="_횁책챌청챙첼챠챠청챕_찾챨횪채챔책챠챵_5-6" data-name="횁책챌청챙첼챠챠청챕 찾챨횪채챔책챠챵 5" x1="-1889.25" y1="743.35" x2="-1893.64" y2="629.15" gradientTransform="translate(-1602.72 -68.94) rotate(178.64) scale(1 -1)" xlink:href="#_횁책챌청챙첼챠챠청챕_찾챨횪채챔책챠챵_5"/>
    <linearGradient id="_횁책챌청챙첼챠챠청챕_찾챨횪채챔책챠챵_5-7" data-name="횁책챌청챙첼챠챠청챕 찾챨횪채챔책챠챵 5" x1="-1909.09" y1="737.73" x2="-1913.48" y2="623.55" gradientTransform="translate(-1602.72 -68.94) rotate(178.64) scale(1 -1)" xlink:href="#_횁책챌청챙첼챠챠청챕_찾챨횪채챔책챠챵_5"/>
    <linearGradient id="_횁책챌청챙첼챠챠청챕_찾챨횪채챔책챠챵_5-8" data-name="횁책챌청챙첼챠챠청챕 찾챨횪채챔책챠챵 5" x1="-1854.29" y1="705.22" x2="-1858.69" y2="591.01" gradientTransform="translate(-1602.72 -68.94) rotate(178.64) scale(1 -1)" xlink:href="#_횁책챌청챙첼챠챠청챕_찾챨횪채챔책챠챵_5"/>
    <linearGradient id="_횁책챌청챙첼챠챠청챕_찾챨횪채챔책챠챵_2" data-name="횁책챌청챙첼챠챠청챕 찾챨횪채챔책챠챵 2" x1="7879.98" y1="-4400.83" x2="7860.29" y2="-4338.7" gradientTransform="translate(8973.96 -2557.08) rotate(131.55) scale(1 -1)" gradientUnits="userSpaceOnUse">
      <stop offset="0" stop-color="#e76f2e"/>
      <stop offset=".2" stop-color="#de633b"/>
      <stop offset=".56" stop-color="#c8435e"/>
      <stop offset=".99" stop-color="#a81790"/>
    </linearGradient>
    <linearGradient id="_횁책챌청챙첼챠챠청챕_찾챨횪채챔책챠챵_2-2" data-name="횁책챌청챙첼챠챠청챕 찾챨횪채챔책챠챵 2" x1="7961.7" y1="-2809.28" x2="7941.46" y2="-2745.4" gradientTransform="translate(7895.58 -2860.33) rotate(144.69) scale(1 -.57)" xlink:href="#_횁책챌청챙첼챠챠청챕_찾챨횪채챔책챠챵_2"/>
    <linearGradient id="_횁책챌청챙첼챠챠청챕_찾챨횪채챔책챠챵_2-3" data-name="횁책챌청챙첼챠챠청챕 찾챨횪채챔책챠챵 2" x1="7436.98" y1="-6636.67" x2="7417.61" y2="-6575.51" gradientTransform="translate(8313.92 -3893.08) rotate(117.18) scale(1 -.76)" xlink:href="#_횁책챌청챙첼챠챠청챕_찾챨횪채챔책챠챵_2"/>
    <linearGradient id="_횁책챌청챙첼챠챠청챕_찾챨횪채챔책챠챵_2-4" data-name="횁책챌청챙첼챠챠청챕 찾챨횪채챔책챠챵 2" x1="11360.27" y1="-8053.87" x2="11341.13" y2="-7993.49" gradientTransform="translate(7865.65 -3601.36) rotate(105.22) scale(.51 -.76)" xlink:href="#_횁책챌청챙첼챠챠청챕_찾챨횪채챔책챠챵_2"/>
    <linearGradient id="_횁책챌청챙첼챠챠청챕_찾챨횪채챔책챠챵_5-9" data-name="횁책챌청챙첼챠챠청챕 찾챨횪채챔책챠챵 5" x1="7877.18" y1="-4317.06" x2="7884.8" y2="-4385.75" gradientTransform="translate(8973.96 -2557.08) rotate(131.55) scale(1 -1)" xlink:href="#_횁책챌청챙첼챠챠청챕_찾챨횪채챔책챠챵_5"/>
    <linearGradient id="_횁책챌청챙첼챠챠청챕_찾챨횪채챔책챠챵_2-5" data-name="횁책챌청챙첼챠챠청챕 찾챨횪채챔책챠챵 2" x1="8362.85" y1="-2823.3" x2="8327.8" y2="-2712.68" gradientTransform="translate(9058.6 -1694.52) rotate(147.79) scale(1 -1)" xlink:href="#_횁책챌청챙첼챠챠청챕_찾챨횪채챔책챠챵_2"/>
    <linearGradient id="_횁책챌청챙첼챠챠청챕_찾챨횪채챔책챠챵_2-6" data-name="횁책챌청챙첼챠챠청챕 찾챨횪채챔책챠챵 2" x1="8070.46" y1="61.48" x2="8030.24" y2="188.43" gradientTransform="translate(8107.8 -2287.26) rotate(160.93) scale(1 -.57)" xlink:href="#_횁책챌청챙첼챠챠청챕_찾챨횪채챔책챠챵_2"/>
    <linearGradient id="_횁책챌청챙첼챠챠청챕_찾챨횪채챔책챠챵_2-7" data-name="횁책챌청챙첼챠챠청챕 찾챨횪채챔책챠챵 2" x1="8299.96" y1="-4761.31" x2="8269.03" y2="-4663.67" gradientTransform="translate(8797.92 -3162.38) rotate(133.42) scale(1 -.76)" xlink:href="#_횁책챌청챙첼챠챠청챕_찾챨횪채챔책챠챵_2"/>
    <linearGradient id="_횁책챌청챙첼챠챠청챕_찾챨횪채챔책챠챵_2-8" data-name="횁책챌청챙첼챠챠청챕 찾챨횪채챔책챠챵 2" x1="13584.41" y1="-6446.75" x2="13558.43" y2="-6364.75" gradientTransform="translate(8286.6 -3007.89) rotate(121.45) scale(.51 -.76)" xlink:href="#_횁책챌청챙첼챠챠청챕_찾챨횪채챔책챠챵_2"/>
    <linearGradient id="_횁책챌청챙첼챠챠청챕_찾챨횪채챔책챠챵_5-10" data-name="횁책챌청챙첼챠챠청챕 찾챨횪채챔책챠챵 5" x1="8367.34" y1="-2662.88" x2="8382.02" y2="-2795.18" gradientTransform="translate(9058.6 -1694.52) rotate(147.79) scale(1 -1)" xlink:href="#_횁책챌청챙첼챠챠청챕_찾챨횪채챔책챠챵_5"/>
    <linearGradient id="_횁책챌청챙첼챠챠청챕_찾챨횪채챔책챠챵_5-11" data-name="횁책챌청챙첼챠챠청챕 찾챨횪채챔책챠챵 5" x1="-2312.62" y1="734.12" x2="-2318.13" y2="590.73" gradientTransform="translate(2881.44 -1.08) rotate(3.07)" xlink:href="#_횁책챌청챙첼챠챠청챕_찾챨횪채챔책챠챵_5"/>
    <linearGradient id="_횁책챌청챙첼챠챠청챕_찾챨횪채챔책챠챵_5-12" data-name="횁책챌청챙첼챠챠청챕 찾챨횪채챔책챠챵 5" x1="-2225.07" y1="720.66" x2="-2230.6" y2="577.03" gradientTransform="translate(2881.44 -1.08) rotate(3.07)" xlink:href="#_횁책챌청챙첼챠챠청챕_찾챨횪채챔책챠챵_5"/>
    <linearGradient id="_횁책챌청챙첼챠챠청챕_찾챨횪채챔책챠챵_5-13" data-name="횁책챌청챙첼챠챠청챕 찾챨횪채챔책챠챵 5" x1="-2337.53" y1="727" x2="-2343.04" y2="583.73" gradientTransform="translate(2881.44 -1.08) rotate(3.07)" xlink:href="#_횁책챌청챙첼챠챠청챕_찾챨횪채챔책챠챵_5"/>
    <linearGradient id="_횁책챌청챙첼챠챠청챕_찾챨횪채챔책챠챵_5-14" data-name="횁책챌청챙첼챠챠청챕 찾챨횪채챔책챠챵 5" x1="-2285.21" y1="723.07" x2="-2290.73" y2="579.56" gradientTransform="translate(2881.44 -1.08) rotate(3.07)" xlink:href="#_횁책챌청챙첼챠챠청챕_찾챨횪채챔책챠챵_5"/>
    <linearGradient id="_횁책챌청챙첼챠챠청챕_찾챨횪채챔책챠챵_5-15" data-name="횁책챌청챙첼챠챠청챕 찾챨횪채챔책챠챵 5" x1="-1773.2" y1="1267.11" x2="-1778.72" y2="1123.47" gradientTransform="translate(2503.18 -330.92) rotate(10.34)" xlink:href="#_횁책챌청챙첼챠챠청챕_찾챨횪채챔책챠챵_5"/>
    <linearGradient id="_횁책챌청챙첼챠챠청챕_찾챨횪채챔책챠챵_5-16" data-name="횁책챌청챙첼챠챠청챕 찾챨횪채챔책챠챵 5" x1="-2421.6" y1="728.54" x2="-2427.11" y2="585.19" gradientTransform="translate(2881.44 -1.08) rotate(3.07)" xlink:href="#_횁책챌청챙첼챠챠청챕_찾챨횪채챔책챠챵_5"/>
    <linearGradient id="_횁책챌청챙첼챠챠청챕_찾챨횪채챔책챠챵_5-17" data-name="횁책챌청챙첼챠챠청챕 찾챨횪채챔책챠챵 5" x1="-2415.34" y1="728.33" x2="-2420.85" y2="584.88" gradientTransform="translate(2881.44 -1.08) rotate(3.07)" xlink:href="#_횁책챌청챙첼챠챠청챕_찾챨횪채챔책챠챵_5"/>
    <linearGradient id="_횁책챌청챙첼챠챠청챕_찾챨횪채챔책챠챵_28" data-name="횁책챌청챙첼챠챠청챕 찾챨횪채챔책챠챵 28" x1="495.31" y1="539.71" x2="547.94" y2="390.77" gradientUnits="userSpaceOnUse">
      <stop offset="0" stop-color="#405a08"/>
      <stop offset="1" stop-color="#83780a"/>
    </linearGradient>
    <linearGradient id="_횁책챌청챙첼챠챠청챕_찾챨횪채챔책챠챵_27" data-name="횁책챌청챙첼챠챠청챕 찾챨횪채챔책챠챵 27" x1="-2443.73" y1="564.69" x2="-2413.15" y2="706.17" gradientTransform="translate(2881.44 -1.08) rotate(3.07)" gradientUnits="userSpaceOnUse">
      <stop offset="0" stop-color="#fff"/>
      <stop offset=".11" stop-color="#f7f1f4"/>
      <stop offset=".3" stop-color="#e4ced7"/>
      <stop offset=".56" stop-color="#c595a8"/>
      <stop offset=".88" stop-color="#9b4868"/>
      <stop offset=".99" stop-color="#8b2a4f"/>
    </linearGradient>
    <linearGradient id="_횁책챌청챙첼챠챠청챕_찾챨횪채챔책챠챵_2-9" data-name="횁책챌청챙첼챠챠청챕 찾챨횪채챔책챠챵 2" x1="7650.92" y1="-553.69" x2="7619.41" y2="-454.24" gradientTransform="translate(8199.25 -349.86) rotate(170.02) scale(1 -1)" xlink:href="#_횁책챌청챙첼챠챠청챕_찾챨횪채챔책챠챵_2"/>
    <linearGradient id="_횁책챌청챙첼챠챠청챕_찾챨횪채챔책챠챵_2-10" data-name="횁책챌청챙첼챠챠청챕 찾챨횪채챔책챠챵 2" x1="6859.16" y1="3633.28" x2="6827.31" y2="3733.83" gradientTransform="translate(7543.37 -1259.19) rotate(-176.84) scale(1 -.57)" xlink:href="#_횁책챌청챙첼챠챠청챕_찾챨횪채챔책챠챵_2"/>
    <linearGradient id="_횁책챌청챙첼챠챠청챕_찾챨횪채챔책챠챵_2-11" data-name="횁책챌청챙첼챠챠청챕 찾챨횪채챔책챠챵 2" x1="8173.89" y1="-1625.27" x2="8142.94" y2="-1527.6" gradientTransform="translate(8513.81 -1806.6) rotate(155.66) scale(1 -.76)" xlink:href="#_횁책챌청챙첼챠챠청챕_찾챨횪채챔책챠챵_2"/>
    <linearGradient id="_횁책챌청챙첼챠챠청챕_찾챨횪채챔책챠챵_2-12" data-name="횁책챌청챙첼챠챠청챕 찾챨횪채챔책챠챵 2" x1="14295.75" y1="-3348.53" x2="14265.71" y2="-3253.74" gradientTransform="translate(7981.67 -1857.78) rotate(143.69) scale(.51 -.76)" xlink:href="#_횁책챌청챙첼챠챠청챕_찾챨횪채챔책챠챵_2"/>
    <linearGradient id="_횁책챌청챙첼챠챠청챕_찾챨횪채챔책챠챵_5-18" data-name="횁책챌청챙첼챠챠청챕 찾챨횪채챔책챠챵 5" x1="7643.92" y1="-420.83" x2="7656.01" y2="-529.84" gradientTransform="translate(8199.25 -349.86) rotate(170.02) scale(1 -1)" xlink:href="#_횁책챌청챙첼챠챠청챕_찾챨횪채챔책챠챵_5"/>
    <linearGradient id="_횁책챌청챙첼챠챠청챕_찾챨횪채챔책챠챵_25-2" data-name="횁책챌청챙첼챠챠청챕 찾챨횪채챔책챠챵 25" x1="1292.23" y1="469.63" x2="1257.06" y2="364.7" gradientTransform="translate(39.87 -63.43) rotate(4.73)" xlink:href="#_횁책챌청챙첼챠챠청챕_찾챨횪채챔책챠챵_25"/>
    <linearGradient id="_횁책챌청챙첼챠챠청챕_찾챨횪채챔책챠챵_27-2" data-name="횁책챌청챙첼챠챠청챕 찾챨횪채챔책챠챵 27" x1="1301.44" y1="400.09" x2="1316.36" y2="440.52" gradientTransform="translate(39.87 -63.43) rotate(4.73)" xlink:href="#_횁책챌청챙첼챠챠청챕_찾챨횪채챔책챠챵_27"/>
    <linearGradient id="_횁책챌청챙첼챠챠청챕_찾챨횪채챔책챠챵_27-3" data-name="횁책챌청챙첼챠챠청챕 찾챨횪채챔책챠챵 27" x1="1295.41" y1="456.08" x2="1286.3" y2="428.91" gradientTransform="translate(39.87 -63.43) rotate(4.73)" xlink:href="#_횁책챌청챙첼챠챠청챕_찾챨횪채챔책챠챵_27"/>
    <linearGradient id="_횁책챌청챙첼챠챠청챕_찾챨횪채챔책챠챵_27-4" data-name="횁책챌청챙첼챠챠청챕 찾챨횪채챔책챠챵 27" x1="1283.05" y1="433.91" x2="1270.29" y2="395.84" gradientTransform="translate(39.87 -63.43) rotate(4.73)" xlink:href="#_횁책챌청챙첼챠챠청챕_찾챨횪채챔책챠챵_27"/>
    <linearGradient id="_횁책챌청챙첼챠챠청챕_찾챨횪채챔책챠챵_26" data-name="횁책챌청챙첼챠챠청챕 찾챨횪채챔책챠챵 26" x1="1297.26" y1="391.56" x2="1230.71" y2="474.68" gradientTransform="translate(39.87 -63.43) rotate(4.73)" gradientUnits="userSpaceOnUse">
      <stop offset="0" stop-color="#5b3b46"/>
      <stop offset="1" stop-color="#605278"/>
    </linearGradient>
    <linearGradient id="_횁책챌청챙첼챠챠청챕_찾챨횪채챔책챠챵_26-2" data-name="횁책챌청챙첼챠챠청챕 찾챨횪채챔책챠챵 26" x1="1287.05" y1="387.14" x2="1219.95" y2="470.95" xlink:href="#_횁책챌청챙첼챠챠청챕_찾챨횪채챔책챠챵_26"/>
    <linearGradient id="_횁책챌청챙첼챠챠청챕_찾챨횪채챔책챠챵_26-3" data-name="횁책챌청챙첼챠챠청챕 찾챨횪채챔책챠챵 26" x1="1312.4" y1="405.02" x2="1244.65" y2="489.65" xlink:href="#_횁책챌청챙첼챠챠청챕_찾챨횪채챔책챠챵_26"/>
    <linearGradient id="_횁책챌청챙첼챠챠청챕_찾챨횪채챔책챠챵_27-5" data-name="횁책챌청챙첼챠챠청챕 찾챨횪채챔책챠챵 27" x1="1244.52" y1="446.06" x2="1226.31" y2="412.4" gradientTransform="translate(39.87 -63.43) rotate(4.73)" xlink:href="#_횁책챌청챙첼챠챠청챕_찾챨횪채챔책챠챵_27"/>
    <linearGradient id="_횁책챌청챙첼챠챠청챕_찾챨횪채챔책챠챵_25-3" data-name="횁책챌청챙첼챠챠청챕 찾챨횪채챔책챠챵 25" x1="1145.62" y1="128.71" x2="1021.25" y2="699.94" gradientTransform="translate(2188.29 99.97) rotate(-176.02) scale(1 -1)" xlink:href="#_횁책챌청챙첼챠챠청챕_찾챨횪채챔책챠챵_25"/>
    <linearGradient id="_횁책챌청챙첼챠챠청챕_찾챨횪채챔책챠챵_27-6" data-name="횁책챌청챙첼챠챠청챕 찾챨횪채챔책챠챵 27" x1="1108.43" y1="335.5" x2="1140.72" y2="430.68" gradientTransform="translate(2188.29 99.97) rotate(-176.02) scale(1 -1)" xlink:href="#_횁책챌청챙첼챠챠청챕_찾챨횪채챔책챠챵_27"/>
    <linearGradient id="_횁책챌청챙첼챠챠청챕_찾챨횪채챔책챠챵_27-7" data-name="횁책챌청챙첼챠챠청챕 찾챨횪채챔책챠챵 27" x1="1153.82" y1="362.94" x2="1158.62" y2="418.31" gradientTransform="translate(2188.29 99.97) rotate(-176.02) scale(1 -1)" xlink:href="#_횁책챌청챙첼챠챠청챕_찾챨횪채챔책챠챵_27"/>
    <linearGradient id="_횁책챌청챙첼챠챠청챕_찾챨횪채챔책챠챵_27-8" data-name="횁책챌청챙첼챠챠청챕 찾챨횪채챔책챠챵 27" x1="1049.14" y1="476.32" x2="1011.94" y2="355.65" gradientTransform="translate(2188.29 99.97) rotate(-176.02) scale(1 -1)" xlink:href="#_횁책챌청챙첼챠챠청챕_찾챨횪채챔책챠챵_27"/>
    <linearGradient id="_횁책챌청챙첼챠챠청챕_찾챨횪채챔책챠챵_27-9" data-name="횁책챌청챙첼챠챠청챕 찾챨횪채챔책챠챵 27" x1="1083.09" y1="466.19" x2="1046.63" y2="347.9" gradientTransform="translate(2188.29 99.97) rotate(-176.02) scale(1 -1)" xlink:href="#_횁책챌청챙첼챠챠청챕_찾챨횪채챔책챠챵_27"/>
    <linearGradient id="_횁책챌청챙첼챠챠청챕_찾챨횪채챔책챠챵_26-4" data-name="횁책챌청챙첼챠챠청챕 찾챨횪채챔책챠챵 26" x1="1090.12" y1="367.7" x2="1050.67" y2="548.87" gradientTransform="translate(2188.29 99.97) rotate(-176.02) scale(1 -1)" xlink:href="#_횁책챌청챙첼챠챠청챕_찾챨횪채챔책챠챵_26"/>
    <linearGradient id="_횁책챌청챙첼챠챠청챕_찾챨횪채챔책챠챵_26-5" data-name="횁책챌청챙첼챠챠청챕 찾챨횪채챔책챠챵 26" x1="1110.16" y1="320.35" x2="1058.01" y2="559.89" gradientTransform="translate(2188.29 99.97) rotate(-176.02) scale(1 -1)" xlink:href="#_횁책챌청챙첼챠챠청챕_찾챨횪채챔책챠챵_26"/>
    <linearGradient id="_횁책챌청챙첼챠챠청챕_찾챨횪채챔책챠챵_26-6" data-name="횁책챌청챙첼챠챠청챕 찾챨횪채챔책챠챵 26" x1="1056.58" y1="313.06" x2="1010.66" y2="523.99" gradientTransform="translate(2188.29 99.97) rotate(-176.02) scale(1 -1)" xlink:href="#_횁책챌청챙첼챠챠청챕_찾챨횪채챔책챠챵_26"/>
    <linearGradient id="_횁책챌청챙첼챠챠청챕_찾챨횪채챔책챠챵_25-4" data-name="횁책챌청챙첼챠챠청챕 찾챨횪채챔책챠챵 25" x1="1224.08" y1="133.83" x2="1059.54" y2="889.57" gradientTransform="translate(2188.29 99.97) rotate(-176.02) scale(1 -1)" xlink:href="#_횁책챌청챙첼챠챠청챕_찾챨횪채챔책챠챵_25"/>
    <linearGradient id="_횁책챌청챙첼챠챠청챕_찾챨횪채챔책챠챵_26-7" data-name="횁책챌청챙첼챠챠청챕 찾챨횪채챔책챠챵 26" x1="1198.96" y1="249.16" x2="1105.79" y2="677.12" gradientTransform="translate(2188.29 99.97) rotate(-176.02) scale(1 -1)" xlink:href="#_횁책챌청챙첼챠챠청챕_찾챨횪채챔책챠챵_26"/>
    <linearGradient id="_횁책챌청챙첼챠챠청챕_찾챨횪채챔책챠챵_27-10" data-name="횁책챌청챙첼챠챠청챕 찾챨횪채챔책챠챵 27" x1="1175.31" y1="327.56" x2="1203.87" y2="411.74" gradientTransform="translate(2188.29 99.97) rotate(-176.02) scale(1 -1)" xlink:href="#_횁책챌청챙첼챠챠청챕_찾챨횪채챔책챠챵_27"/>
    <linearGradient id="_횁책챌청챙첼챠챠청챕_찾챨횪채챔책챠챵_25-5" data-name="횁책챌청챙첼챠챠청챕 찾챨횪채챔책챠챵 25" x1="1103.88" y1="607.42" x2="1108.22" y2="496.37" gradientTransform="translate(-4.05 15.31) rotate(-.96)" xlink:href="#_횁책챌청챙첼챠챠청챕_찾챨횪채챔책챠챵_25"/>
    <linearGradient id="_횁책챌청챙첼챠챠청챕_찾챨횪채챔책챠챵_27-11" data-name="횁책챌청챙첼챠챠청챕 찾챨횪채챔책챠챵 27" x1="669.63" y1="535.57" x2="1337.45" y2="535.57" gradientTransform="matrix(1,0,0,1,0,0)" xlink:href="#_횁책챌청챙첼챠챠청챕_찾챨횪채챔책챠챵_27"/>
    <linearGradient id="_횁책챌청챙첼챠챠청챕_찾챨횪채챔책챠챵_26-8" data-name="횁책챌청챙첼챠챠청챕 찾챨횪채챔책챠챵 26" x1="675.23" y1="513.08" x2="1066.02" y2="513.08" gradientTransform="translate(-4.05 15.31) rotate(-.96)" xlink:href="#_횁책챌청챙첼챠챠청챕_찾챨횪채챔책챠챵_26"/>
    <linearGradient id="_횁책챌청챙첼챠챠청챕_찾챨횪채챔책챠챵_26-9" data-name="횁책챌청챙첼챠챠청챕 찾챨횪채챔책챠챵 26" x1="990.17" y1="506.18" x2="1191.08" y2="506.18" gradientTransform="translate(-4.05 15.31) rotate(-.96)" xlink:href="#_횁책챌청챙첼챠챠청챕_찾챨횪채챔책챠챵_26"/>
    <linearGradient id="_횁책챌청챙첼챠챠청챕_찾챨횪채챔책챠챵_26-10" data-name="횁책챌청챙첼챠챠청챕 찾챨횪채챔책챠챵 26" x1="872.35" y1="538.04" x2="1332.83" y2="538.04" gradientTransform="translate(-4.05 15.31) rotate(-.96)" xlink:href="#_횁책챌청챙첼챠챠청챕_찾챨횪채챔책챠챵_26"/>
    <linearGradient id="_횁책챌청챙첼챠챠청챕_찾챨횪채챔책챠챵_26-11" data-name="횁책챌청챙첼챠챠청챕 찾챨횪채챔책챠챵 26" x1="1186.82" y1="521.39" x2="1424.93" y2="521.39" gradientTransform="translate(-4.05 15.31) rotate(-.96)" xlink:href="#_횁책챌청챙첼챠챠청챕_찾챨횪채챔책챠챵_26"/>
    <linearGradient id="_횁책챌청챙첼챠챠청챕_찾챨횪채챔책챠챵_27-12" data-name="횁책챌청챙첼챠챠청챕 찾챨횪채챔책챠챵 27" x1="1103.58" y1="552.31" x2="1157.65" y2="552.31" gradientTransform="matrix(1,0,0,1,0,0)" xlink:href="#_횁책챌청챙첼챠챠청챕_찾챨횪채챔책챠챵_27"/>
    <linearGradient id="_횁책챌청챙첼챠챠청챕_찾챨횪채챔책챠챵_27-13" data-name="횁책챌청챙첼챠챠청챕 찾챨횪채챔책챠챵 27" x1="1148.55" y1="544.35" x2="1323.77" y2="544.35" gradientTransform="matrix(1,0,0,1,0,0)" xlink:href="#_횁책챌청챙첼챠챠청챕_찾챨횪채챔책챠챵_27"/>
    <linearGradient id="_횁책챌청챙첼챠챠청챕_찾챨횪채챔책챠챵_26-12" data-name="횁책챌청챙첼챠챠청챕 찾챨횪채챔책챠챵 26" x1="620.37" y1="504.15" x2="2145.45" y2="504.15" gradientTransform="translate(-4.05 15.31) rotate(-.96)" xlink:href="#_횁책챌청챙첼챠챠청챕_찾챨횪채챔책챠챵_26"/>
    <linearGradient id="_횁책챌청챙첼챠챠청챕_찾챨횪채챔책챠챵_25-6" data-name="횁책챌청챙첼챠챠청챕 찾챨횪채챔책챠챵 25" x1="1792.01" y1="627.11" x2="1665.57" y2="192.1" xlink:href="#_횁책챌청챙첼챠챠청챕_찾챨횪채챔책챠챵_25"/>
    <linearGradient id="_횁책챌청챙첼챠챠청챕_찾챨횪채챔책챠챵_25-7" data-name="횁책챌청챙첼챠챠청챕 찾챨횪채챔책챠챵 25" x1="1270.38" y1="612.57" x2="1274.67" y2="502.88" gradientTransform="translate(-4.05 15.31) rotate(-.96)" xlink:href="#_횁책챌청챙첼챠챠청챕_찾챨횪채챔책챠챵_25"/>
    <linearGradient id="_횁책챌청챙첼챠챠청챕_찾챨횪채챔책챠챵_25-8" data-name="횁책챌청챙첼챠챠청챕 찾챨횪채챔책챠챵 25" x1="1245.77" y1="612.08" x2="1250.09" y2="501.5" gradientTransform="translate(-4.05 15.31) rotate(-.96)" xlink:href="#_횁책챌청챙첼챠챠청챕_찾챨횪채챔책챠챵_25"/>
    <linearGradient id="_횁책챌청챙첼챠챠청챕_찾챨횪채챔책챠챵_25-9" data-name="횁책챌청챙첼챠챠청챕 찾챨횪채챔책챠챵 25" x1="757.01" y1="594.02" x2="761.34" y2="483" gradientTransform="translate(-4.05 15.31) rotate(-.96)" xlink:href="#_횁책챌청챙첼챠챠청챕_찾챨횪채챔책챠챵_25"/>
    <linearGradient id="_횁책챌청챙첼챠챠청챕_찾챨횪채챔책챠챵_25-10" data-name="횁책챌청챙첼챠챠청챕 찾챨횪채챔책챠챵 25" x1="889.76" y1="598.33" x2="894.05" y2="488.4" gradientTransform="translate(-4.05 15.31) rotate(-.96)" xlink:href="#_횁책챌청챙첼챠챠청챕_찾챨횪채챔책챠챵_25"/>
    <linearGradient id="_횁책챌청챙첼챠챠청챕_찾챨횪채챔책챠챵_19" data-name="횁책챌청챙첼챠챠청챕 찾챨횪채챔책챠챵 19" x1="1441.8" y1="572.14" x2="1458.26" y2="291.48" gradientTransform="translate(-9.46 45.4) rotate(1.55)" gradientUnits="userSpaceOnUse">
      <stop offset="0" stop-color="#555f10"/>
      <stop offset=".26" stop-color="#586110"/>
      <stop offset=".49" stop-color="#636a11"/>
      <stop offset=".72" stop-color="#767914"/>
      <stop offset=".91" stop-color="#8c8a17"/>
    </linearGradient>
  </defs>
  <g class="cls-65">
    <g id="_1" data-name="1">
      <rect class="cls-56" x="-.09" y="0" width="1366" height="550"/>
      <g class="cls-81">
        <g>
          <g>
            <path class="cls-62" d="M2261.07,129.71l-103.43,189.96-3.45,61.17-9.14,102.55-4.65,52,1.31,16.03-.24,8.18-332.66,3.64-1845.05-19.83,1.45-177.34,306.98,15.84,16.76.87,6.86-.64,90.88-8.47.24-.03,15.41-1.45,4.41-.42.76.03,41.85,1.19,10.21.26,19.2.58,36.48,1.03,52.99,2.42,50.85,2.38,26.65,1.22,71.19,3.28,180.93,8.34,7.24.32,43.23,2.54,152.52,8.98,129.05-1,301.95-2.32,56.82-.45,24.55-.19-107.05-56.54c-.86-.45-1.34-.68-1.34-.68l44.79-17.61-95.67-5.96,807.13-189.9Z"/>
            <path class="cls-44" d="M1016.46,432.37c79.58-16.94,628.56-28.55,628.56-28.55,0,0-520.48-6.12-578.24,3.71-57.76,9.83-50.32,24.84-50.32,24.84Z"/>
            <g>
              <polygon class="cls-13" points="1401.15 537 -224.69 564.38 -328.12 371.19 -92.79 396.27 -92.79 395.99 65.96 415.09 71.05 415.71 108.19 420.17 114.83 420.96 197.89 430.98 234.04 435.31 243.87 436.5 260.57 438.5 297.8 442.99 323.98 431.7 652.18 448.63 660.09 443.87 861.68 441.14 863.57 441.12 860.22 441.61 688.87 466.91 769.41 474.86 805.51 478.38 830.55 480.86 841.02 481.88 1057.8 503.22 1086.79 506.08 1401.15 537"/>
              <polygon class="cls-14" points="297.8 442.99 281.29 537 -309.41 511.24 -313.41 370.93 65.87 415.51 70.96 416.1 108.09 420.5 114.74 421.3 197.87 431.15 234.04 435.42 234.04 435.44 243.87 436.59 260.57 438.57 297.8 442.99"/>
              <polygon class="cls-23" points="830.55 480.86 819.28 537.01 790.27 537.01 805.51 478.38 830.55 480.86"/>
              <polygon class="cls-23" points="867.6 439.23 861.68 441.13 860.21 441.6 688.87 466.91 769.41 474.85 766.71 537.01 660.18 537.01 660.1 443.88 867.6 439.23"/>
              <polygon class="cls-23" points="1057.97 502.92 1057.8 503.22 1039.72 537.01 825.66 537.01 841.02 481.88 841.04 481.8 1057.97 502.92"/>
              <polygon class="cls-23" points="1401.15 537.01 1078.14 537.01 1086.78 506.08 1087.06 505.04 1401.15 537.01"/>
              <polygon class="cls-23" points="710.73 561.03 688.87 466.91 1384.65 534.62 1375.23 589.64 710.73 561.03"/>
              <path class="cls-23" d="M654.18,552.23l-70.55,1.83-135.56,3.52-117.89,3.06-10.18.26-5.14.13c0-4.4,9.43-129.83,9.43-129.83l19.68,1.06,25.99,1.36,73.61,3.92,201.92,10.74,6.69.35,2,103.6Z"/>
              <polygon class="cls-23" points="65.96 415.09 71.05 415.71 71 415.86 70.96 416.1 43.6 537 -32.51 537 -19.74 477.41 48.59 481.81 65.87 415.51 65.94 415.27 65.96 415.09"/>
              <polygon class="cls-23" points="243.87 436.5 260.57 438.5 260.57 438.57 258.64 537 78.4 537 108.09 420.5 108.14 420.3 108.19 420.17 114.83 420.96 114.78 421.1 114.74 421.3 86.3 521.42 189.98 521.42 197.87 431.15 197.87 431.04 197.89 430.98 234.04 435.31 234.04 435.44 227.68 512.62 239.46 514.82 243.87 436.59 243.87 436.5"/>
              <polygon class="cls-23" points="297.8 442.99 280.22 537 -221.24 532.18 -369.49 361.53 -128.16 474.22 47.67 467.78 71 415.86 108.14 420.3 158 628.77 197.87 431.04 261.43 438.81 264.88 509.64 278.67 512.86 297.8 442.99"/>
              <path class="cls-23" d="M343.96,432.25l25.99,1.36c-12.37,38.73-34.43,108.07-39.78,127.02-.75,2.71-1.18,4.4-1.18,4.8,0,4.4-9.43-2.2-9.43-2.2l.42-2.33,23.96-128.65Z"/>
              <polygon class="cls-23" points="645.48 448.27 633.77 564.38 583.63 554.06 449.18 587.44 448.07 557.58 443.57 437.54 645.48 448.27"/>
            </g>
            <polygon class="cls-43" points="643.01 474.8 633.77 564.38 604.33 532.18 601.88 532.56 596.44 533.4 568.37 537.81 551.03 541.84 554.48 577.25 432.02 559.13 432.02 436.04 436.36 437.39 444.26 509.8 469.8 509.8 544.14 506.42 548.2 493.96 550.72 454.1 559.89 452.26 561.48 457.32 573.54 495.54 593.4 490.26 589.54 452.91 589.47 452.39 597.47 484.01 602.47 482.98 643.01 474.8"/>
            <polygon class="cls-68" points="297.8 442.99 -4.15 387.23 324.29 431.2 297.8 442.99"/>
            <polygon class="cls-74" points="611.77 437.8 867.6 439.23 642.4 433.4 611.77 437.8"/>
            <polygon class="cls-67" points="329 429 590.56 442.2 660.1 443.88 647.11 451 329 429"/>
            <path class="cls-19" d="M554.24,585.69c0,1.22-1.99-20.16-4.09-43.47-1.67-18.36-5.08-25.15-6.02-35.8l6.62-13.77c.45,12.08,1.19,31.31,1.87,49.17.85,22.44,1.62,42.71,1.62,43.87Z"/>
            <polygon class="cls-47" points="296.75 390.59 688.22 411.79 617.3 401.19 960.01 406.71 1015.05 401.3 396.15 371.81 296.75 390.59"/>
            <path class="cls-17" d="M356.34,546.51l-77.4,3.03-162.59,6.34-40.37,1.58-9.31.35-44.92,1.74-5.24.23-124.25,4.83-9.72.39-396.83,15.49-4.83-171.19-.48-17.45-.38-12.88-.24-8.44-.41-14.97-.07-2.83-.48-16.94L-5.15,367.84l16.45,40.54-318.74-30.75,44.58,14.59,114.36,37.38,112.84,36.9-35.1,15.68-8.76,3.93-38.3,17.1-2.41.29-53.99,6.28c-.31.03-.66.1-1.03.13l-26.1,3.06-26.79,3.12,56.61,2,110.26,3.86,99.64,3.51,65.2,2.29,120.36,4.22,6.48.23,22.2,2.51,103.74,11.82Z"/>
            <path class="cls-78" d="M293.51,553.11c-1.19-51.11,23.72-75.24,23.72-75.24l-23.72,75.24Z"/>
            <path class="cls-76" d="M296.92,550.3c16.86-63.55,56.19-82.48,56.19-82.48l-56.19,82.48Z"/>
            <path class="cls-63" d="M269.58,528.04c4.69-17.7-2.54-37.36-2.54-37.36l2.54,37.36Z"/>
            <polygon class="cls-45" points="-538.43 409.83 -87.3 491.69 -89.65 521.29 64.91 525.74 230.4 532.18 367.06 547.73 -566.01 590.13 -538.43 409.83"/>
            <g>
              <g>
                <path class="cls-66" d="M483.29,438.54c-.22-.21-8.86-14.29-13.4-13.51-4.55.78,13.4,13.51,13.4,13.51Z"/>
                <path class="cls-73" d="M482.73,436.31c-.1-.15-1.92-10.32-5.78-9.58-3.86.74,5.78,9.58,5.78,9.58Z"/>
                <path class="cls-70" d="M480.24,436.42c-.2-.11-8.5-9.53-12.1-7.18-3.6,2.35,12.1,7.18,12.1,7.18Z"/>
                <path class="cls-57" d="M484.38,439.36c-.21-.06-10.62-5.39-13.24-4.09-2.63,1.3,13.24,4.09,13.24,4.09Z"/>
                <path class="cls-79" d="M513.98,484.46c-9.46-26.08-29.15-44.43-29.15-44.43l-5.67-9.01,1.7,4.7-8.22-2.24s13.44,6.46,24.45,21.98c11.01,15.51,15.56,31.25,15.56,31.25l1.34-2.25Z"/>
              </g>
              <g>
                <path class="cls-72" d="M516.55,420.72c-.19-.57-5.75-34.3-11.75-35.47-5.99-1.17,11.75,35.47,11.75,35.47Z"/>
                <path class="cls-71" d="M516.69,415.88c-.07-.37,1.46-22.08-3.66-22.9-5.12-.83,3.66,22.9,3.66,22.9Z"/>
                <path class="cls-52" d="M513.52,414.59c-.21-.34-7.09-24.44-12.49-21.85-5.4,2.59,12.49,21.85,12.49,21.85Z"/>
                <path class="cls-48" d="M517.61,423.04c-.24-.26-11.3-17.33-15.08-16.29s15.08,16.29,15.08,16.29Z"/>
                <path class="cls-75" d="M537.83,532.31c-2.08-58.56-19.91-107.63-19.91-107.63l-3.74-21.68.37,10.55-9.47-9.51s14.43,21.22,22.42,59.3c7.99,38.08,7.8,72.72,7.8,72.72l2.52-3.75Z"/>
              </g>
              <path class="cls-54" d="M548.25,513.12c3.53-64.14-26.79-95.32-26.79-95.32l26.79,95.32Z"/>
              <path class="cls-60" d="M634.78,510.31c-18.07,16.08-25.85,55.16-25.85,55.16,0,0,3.61-35.85,7.72-42.97,4.11-7.12,18.14-12.19,18.14-12.19Z"/>
              <path class="cls-53" d="M544.07,509.47c-18.63-80.4-67.27-105.54-67.27-105.54l67.27,105.54Z"/>
              <path class="cls-61" d="M560.82,518.38c-5.18-22.39,4.69-46.82,4.69-46.82l-4.69,46.82Z"/>
              <path class="cls-50" d="M552.38,517.34c-9.76-48.46-5.34-97.96-5.34-97.96l5.34,97.96Z"/>
              <path class="cls-69" d="M433.26,545.48l-15.82-43.59s15.39,20.45,15.82,43.59Z"/>
              <path class="cls-58" d="M435.54,542.82l-.4-5.31-6.93-92.47s7.88,35.32,7.99,76.62c.02,6.93-.17,14.03-.66,21.16Z"/>
              <path class="cls-59" d="M606.77,569.46l-19.42-.63-22.75-.74-40.57-1.32-3.83-.12-13.3-.43-139.36-4.54s3.3-31.69,23.62-44.4c1.33-.83,2.68-1.4,4.04-1.73,15.04,13.86,25.32,34.17,25.84,35.2l-11.93-31.42c14.25,10.12,26.27,35.32,26.27,35.32,0,0-.54-6.93-.25-17.14.13-4.71.44-10.11,1.06-15.85,1.4-13.04,4.41-27.83,10.56-40.21,5.39-10.85,13.21-19.83,24.51-24.14,11.18,11.78,20.62,27.9,27.24,41.02l-19.38-43.15c2.23-.37,4.57-.59,7.03-.63,2.04-.03,4.05.03,6.02.19l15.77,34.61,10.15,22.27c-.06-.8-2.2-26.46-13.93-54.64,2.92.86,5.74,1.92,8.46,3.16.29.13.57.26.86.4h0c6.96,3.3,13.27,7.74,18.96,12.83,0,0,0,0,0,0,2.22,1.99,4.34,4.08,6.37,6.24h0c3.36,3.57,6.45,7.33,9.29,11.14.08.1.15.2.22.3.14.19.28.38.42.56.01.01.02.03.03.05.81,1.11,1.6,2.22,2.37,3.33,3.11,4.5,5.87,9.01,8.26,13.29,0,0,0,0,0,0,.71,1.25,1.38,2.49,2.03,3.71h0c6.71,12.64,10.16,22.61,10.49,23.58-.45-1.67-7.73-29.48,3.08-40.28,1.01-1.02,2.2-1.89,3.56-2.57,2.79-1.4,5.46-.05,7.95,3.14-1.91,31.45,2.1,65.35,2.29,61.76.15-2.9,3.02-27.13,5.26-45.87,7.78,22.89,12.68,57.69,12.68,57.69Z"/>
              <path class="cls-46" d="M433.26,545.48l-15.82-43.59s15.39,20.45,15.82,43.59Z"/>
              <path class="cls-45" d="M506.91,566.21l-91-2.97c-1.08-8.46-4.86-27-17.77-44.86,13.43,13.63,22.42,31.4,22.9,32.37l-11.93-31.42c14.25,10.12,26.27,35.32,26.27,35.32,0,0-.54-6.93-.25-17.14l-6.93-92.45c.24,1.08,7.88,35.94,7.99,76.6,1.4-13.04,4.41-27.83,10.56-40.21-2.25,23.86,41.7,74.86,41.7,74.86l-19.16-50.97,31.01,54.03-2.57-13.37,9.17,20.21Z"/>
              <path class="cls-45" d="M524.03,566.76l-3.83-.12-12.26-77.28,10.15,22.27c-.06-.8-2.2-26.46-13.93-54.64,2.92.86,5.74,1.92,8.46,3.16.29.13.57.26.86.4h0c1.22,1.96,2.34,4.04,3.36,6.22,13.82,29.54,10.02,77.46,7.18,100Z"/>
              <g>
                <path class="cls-55" d="M587.82,480.4c-.07-.48,1.78-26.07-4.21-29.84-5.98-3.76,4.21,29.84,4.21,29.84Z"/>
                <path class="cls-64" d="M589.05,477.19c.02-.28,6.53-14.22,1.38-17.32-5.15-3.1-1.38,17.32-1.38,17.32Z"/>
                <path class="cls-49" d="M586.04,474.75c-.14-.34-1.85-20.06-8.07-20.98-6.22-.92,8.07,20.98,8.07,20.98Z"/>
                <path class="cls-80" d="M588.39,482.5c-.2-.3-7.85-17.33-12.03-18.51-4.18-1.17,12.03,18.51,12.03,18.51Z"/>
                <path class="cls-51" d="M584.7,566.48c11.11-40.67,3.64-82.72,3.64-82.72l1.02-16.52-2.01,7.32-7.72-11.14s10.24,21.52,9.94,51.26c-.3,29.74-8.35,53.09-8.35,53.09l3.48-1.29Z"/>
              </g>
              <path class="cls-45" d="M564.6,568.09c.34-5.99,2.18-50.22-15.81-76.42.81,1.11,1.6,2.22,2.37,3.33,3.11,4.5,5.87,9.01,8.26,13.29,0,0,0,0,0,0,.71,1.25,1.38,2.49,2.03,3.71h0c6.71,12.64,10.16,22.61,10.49,23.58-.45-1.67-7.73-29.48,3.08-40.28.04.03.06.04.06.04-9.88,15.33,9.56,66.56,12.26,73.48l-22.75-.74Z"/>
            </g>
            <path class="cls-44" d="M1252.46,449.83c81.19-7.81,443.19,34.05,443.19,34.05,0,0-341.32-45.08-399.93-41.86-58.61,3.22-43.26,7.81-43.26,7.81Z"/>
            <g>
              <polygon class="cls-9" points="1266.15 488.57 1147.04 475.46 1155.22 466.55 1273.54 468.17 1266.15 488.57"/>
              <polygon class="cls-9" points="779.49 460.08 1052.12 479.75 1053.22 475.51 1155.22 483.1 1072.62 460.37 934.4 450 779.49 460.08"/>
              <g>
                <path class="cls-32" d="M1307.84,472.12l-3.17.04,2.49,1.08,6.94,3.02h0s0,0,0,0l-2.4,12.78s-.02,0-.03,0l-45.53-.49-.95-.19-42.23-8.66-5.05-15.79,3.88-1.48,3.63-1.37,8.46-3.22.35-5.2.27-3.92,1.49-21.88.4.07h0s95.62,17.46,95.62,17.46h0s.12.02.12.02l2.69,27.43-16.32.17-10.66.11h-.01Z"/>
                <polygon class="cls-21" points="1318.51 472.02 1307.85 472.12 1309.28 473.08 1307.16 473.24 1303.32 473.54 1302.57 468.65 1302.57 468.64 1302.06 465.28 1302.06 465.28 1319.95 467.09 1318.51 472.02"/>
                <path class="cls-35" d="M1314.11,476.27l-2.4,12.78s-.02,0-.03,0l-45.53-.49-.95-.19c-.09-2.36-1.02-5.06-1.69-6.7-.38-.94-.67-1.54-.67-1.54l9.25-.7,42.03-3.17Z"/>
                <polygon class="cls-3" points="1264.86 443.85 1268.4 463.45 1285.49 468.1 1285.48 454.4 1288.3 454.12 1288.38 450.04 1264.86 443.85"/>
                <polygon class="cls-10" points="1314.11 476.27 1314.1 476.27 1313.93 476.28 1313.92 476.28 1272.49 479.33 1271.76 479.39 1265.14 479.88 1259.79 478.07 1253.86 476.07 1253.6 475.98 1217.92 463.93 1221.56 462.37 1221.76 460.1 1221.86 460.04 1222.36 459.74 1226.59 457.23 1234.23 452.66 1250.37 443.03 1260.02 445.68 1260.02 445.68 1265.46 447.18 1266.95 447.59 1273.38 449.36 1283.84 456.26 1285.48 457.34 1285.48 457.34 1301.35 467.83 1302.57 468.64 1307.84 472.12 1307.85 472.12 1309.28 473.08 1309.29 473.08 1314.11 476.27"/>
                <polygon class="cls-24" points="1333.03 444.26 1332.01 444.39 1332.01 444.39 1288.38 450.04 1265.83 444.2 1265.51 444.02 1242.45 430.49 1236.39 426.93 1236.38 426.93 1235.33 426.31 1260.98 425.5 1333.03 444.26"/>
                <polygon class="cls-22" points="1302.06 465.28 1285.48 454.4 1301.58 453.79 1321.81 463.11 1319.95 467.09 1302.06 465.28"/>
                <polygon class="cls-31" points="1314.11 476.27 1313.93 476.28 1313.92 476.28 1274.73 478.38 1271.86 477.64 1277.62 475.76 1293.7 470.5 1300.28 468.35 1288.48 465.62 1285.48 466.04 1280.47 466.74 1256.49 470.06 1251.8 471.99 1250.69 472.07 1250.65 472.07 1245.24 472.41 1248.93 471.49 1249.21 471.42 1274.49 465.11 1285.48 462.36 1288.85 461.52 1287.85 461.45 1285.48 461.77 1270.06 463.9 1241.11 467.9 1239.01 468.19 1238.59 468.25 1236.14 467.6 1236.44 467.33 1237.52 466.34 1260.02 445.68 1260.02 445.68 1260.26 445.46 1265.43 446.99 1273.39 449.35 1283.84 456.26 1285.48 457.34 1285.48 457.34 1301.35 467.83 1302.57 468.65 1307.84 472.12 1307.84 472.12 1309.28 473.08 1309.29 473.08 1314.1 476.27 1314.11 476.27 1314.11 476.27"/>
                <polygon class="cls-31" points="1262.41 434.73 1310.19 446.92 1307.32 447.07 1245.51 431.95 1242.45 430.49 1238.14 428.43 1234.5 448.74 1234.39 449.33 1235.99 426.86 1236.38 426.93 1236.39 426.93 1332.01 444.39 1296.47 438.7 1294.49 438.38 1283.62 436.64 1279.3 435.94 1262.55 433.26 1262.41 434.73"/>
                <polygon class="cls-40" points="1250.86 472.14 1250.65 472.07 1248.93 471.49 1239.01 468.19 1236.44 467.33 1221.8 462.45 1221.56 462.37 1221.86 460.04 1221.92 459.55 1222.36 459.74 1225.42 461.08 1233.46 464.57 1234.55 465.04 1237.52 466.34 1241.11 467.9 1249.21 471.42 1250.69 472.07 1250.86 472.14"/>
                <polygon class="cls-28" points="1259.76 478.05 1272.53 479.32 1263.51 481.68 1259.76 478.05"/>
              </g>
              <g>
                <polygon class="cls-41" points="971.3 369.72 981.55 425.66 982.24 429.42 982.37 430.16 983.94 438.76 984.46 441.59 986.23 451.24 989.66 469.98 1004.51 471.27 1006.96 471.49 1029.6 473.46 1039.99 474.36 1053.22 475.51 1072.44 477.18 1074.15 477.33 1100.8 479.65 1149.79 483.91 1162.47 485.01 1179.16 460.02 1179.16 460.01 1179.28 459.83 1179.29 459.83 1179.29 459.82 1175.4 454.98 1153.18 427.3 1155.18 424.62 1160.69 417.19 1160.69 417.19 1160.69 417.19 1142.83 412.71 1040.58 387.08 1012.82 380.12 971.3 369.72"/>
                <polygon class="cls-27" points="971.3 369.72 981.33 425.6 982.01 429.38 982.14 430.1 983.69 438.73 984.2 441.56 985.91 451.12 986.23 451.24 1005.46 458.54 1005.81 458.68 1026.31 466.46 1039.54 471.48 1047.08 474.35 1053.34 475.04 1072.44 477.18 1074.16 477.37 1074.15 477.33 1071.78 465.01 1080.43 464.46 1079.23 460.11 1072.24 434.9 1100.88 433.24 1103.75 433.07 1110.8 432.67 1110.78 432.28 1110.47 426.08 1110.15 419.55 1110.04 417.25 1110.02 416.74 1109.93 414.98 1097.45 415.41 1042.43 417.33 973.64 371.28 971.3 369.72"/>
                <polygon class="cls-37" points="1042.43 417.33 1042.94 456.94 982.08 425.71 971.31 369.72 1042.43 417.33"/>
                <path class="cls-20" d="M1096.51,464.35l8.4,5.16-4.11,10.14,48.98,4.26c-1.04-8.3-4-24.94-4.64-28.53,0-.06-.02-.12-.03-.16-.07-.34-.1-.53-.1-.53l-21.6-6.71-24.88-7.73-.18,1.81v.09s-.02.08-.02.08l-1.79,17.84-.11,1.1-.3,2.95.37.22Z"/>
                <polygon class="cls-36" points="1083.85 438.87 1089.27 464.39 1096.6 464.34 1096.37 442.01 1083.85 438.87"/>
                <path class="cls-4" d="M1095.56,460.3c-1.67-.11-28.44-.28-28.44-.28l4.65,4.99,33.14,4.5-9.36-9.21Z"/>
                <polygon class="cls-30" points="971.3 369.72 973.64 371.28 1042.43 417.33 1068.13 417.3 1078.23 417.28 1085.81 417.28 1110.04 417.25 1160.69 417.19 1160.69 417.19 1160.69 417.19 1146.37 400.63 1050.4 378.83 1050.31 378.81 1016.32 371.08 971.3 369.72"/>
                <path class="cls-2" d="M1072.24,434.9l26.1,7.33,46.8,13.15,13.96,3.92s.1.01.27.03c.17.02.4.04.71.07h.01c3.21.31,13.4,1.25,17.48.94.79-.06,1.35-.16,1.59-.32h0c.08-.07.12-.12.12-.19h0c.12-1.61.71-30.44.71-30.44-5.33-1.02-15.27-2.93-24.83-4.77-12.46-2.39-24.26-4.66-24.26-4.66l-20.76-.4-10.62-.21-2.23-.04h-.56s-24.5,15.59-24.5,15.59Z"/>
                <path class="cls-31" d="M1136.6,407.86l15.2,3.29-2.66,2.06-.32.23-.95-.12-5.05-.62-23.59-2.89,10.94,2.31,1.31.27,9.17,1.93-10.91.07-92.04-14.48-26.35-4.14,2.75,2.34s17.43,3.7,37.03,7.81c17.23,3.61,36.14,7.52,46.3,9.49,3.94.76,6.56,1.23,7.27,1.28l5.3.05,50.67.46h0s0,0,0,0l-14.31-16.55-95.97-21.8-.09-.02-33.99-7.73-24.77-.57,23.06,5.09h0s-.48,1.23-.48,1.23l-.06.16-.61,1.53-.06.16-.57,1.46-.35.88,28.11,6.08,49.52,10.71,2.8.6,19.23,4.16,16.43,3.56,7.9,1.71.15.03Z"/>
                <polygon class="cls-31" points="1098.36 442.06 1096.28 441.57 1098.35 442.15 1145.12 455.21 1150.86 456.82 1160.08 459.4 1160.09 459.4 1160.09 459.53 1159.32 477.29 1167.86 476.48 1179.16 460.02 1179.16 460.01 1179.29 459.83 1179.29 459.82 1179.3 450.57 1175.4 454.98 1171.8 459.04 1171.55 459.33 1164.35 458.25 1162.32 457.94 1110.47 426.08 1099.53 419.35 1098.35 418.62 1097.3 419.31 1092.11 422.74 1110.78 432.28 1150.28 452.47 1148.61 453.93 1123.42 447.98 1098.36 442.06"/>
                <path class="cls-42" d="M940.75,433.41h0s0,.02,0,.02l9.5,36.52,5.73.55,48.24,4.64,3.09.3,24.32,2.33,9.03.87,11.46,1.1,1.1-4.24.13-.47,6.96-26.83-17.49-2.17-10.49-1.3-8.3-1.03-9.01-1.12-1.58-.19-4.21-.52-25.27-3.13-.26-.03-42.91-5.31h0s-.02,0-.02,0Z"/>
                <path class="cls-33" d="M940.76,433.42l15.3,5.68,28.14,2.46.26.02,29.98,2.62,2.26.2,2.17.19.51.04,16.21,1.42,7.22.63,17.49,1.53-17.53-5.02-60.22-17.24-.99-.29-.22-.06-2.58-.74c-5.14-.33-36.99,8.28-37.98,8.55h0s0,0,0,0Z"/>
                <path class="cls-1" d="M940.75,433.41h0s0,.02,0,.02l9.5,36.52,5.73.55.07-31.41h0s-15.3-5.68-15.3-5.68h-.01Z"/>
                <path class="cls-31" d="M1024.02,443.72l3.29,1.34-9.83-1.19h0s-.05,0-.05,0l-.88-.32s0,0-.01,0l-3.11-1.13-17.17-6.26,12.96,5.74,5.23,2.32,1.77.79,10.1,21.47,3.29,7,2.03,4.32,9.03.87-.66-4.29-.45-2.88-2.75-17.69-.95-6.1-.21-1.38-.04-.26-.02-.13-3.25-1.17-38.39-13.83-4.14-1.26-1.18-.35,2.32.94,33.09,13.47Z"/>
                <polygon class="cls-31" points="1005.61 456.43 1004.22 475.15 1007.31 475.44 1006.96 471.49 1005.81 458.68 1005.61 456.43"/>
              </g>
            </g>
            <path class="cls-45" d="M1451.76,425.13c-24.1,0-6.89-3.22-6.89-3.22,0,0-10.18,8.75-51.65,3.22-24.1-3.22-41.32-9.65-41.32-9.65l48.2,6.43h41.32l34.43,3.22h-24.1Z"/>
            <g>
              <g>
                <path class="cls-26" d="M1553.56,517.48l-48.46,5.8-37.11,4.44-16.66,1.98s-32.56,1.88-84.37,4.86c-5.3.3-10.8.6-16.49.92-8.55.49-17.48,1.01-26.82,1.54-26.15,1.5-55.23,3.17-86.15,4.93-1.23.08-2.49.13-3.72.21-25.01,1.42-51.19,2.92-77.98,4.43-1.67.09-3.31.19-4.98.28-8.35.47-16.75.94-25.21,1.41h-.03c-84.66,4.78-173.35,9.75-249.3,13.9-44.86,2.45-85.27,4.62-117.82,6.32-50.86,2.62-82.5,4.07-81.78,3.54.9-.63-.73-3.08-3.65-6.34-.06-.06-.09-.08-.14-.14-.14-.14-.25-.31-.4-.45h.35s-3.2-24.83-3.2-24.83l10.44-2.22,23.53-4.98,29.33-6.22,69.92-14.81,7.59-1.61-.14-2.38-.26-5.11,1.62-.26,9.22-1.43,19.99-.62,52.14-1.66,131.18-4.12,1.11,3.93.85,3.11,169.21-3.06,7.63,14.17,175.72,2.24.67.02,84.05,1.08,45.18.56,44.95.59Z"/>
                <path class="cls-7" d="M1333.52,518.08l-.02-.22-.06-1.07-141.67.09h-.35s11.57-3.89,11.57-3.89l-40.75,8.12-.52-13.53-167.23-3.72-.04,2.43-.23,10.91-4.92,1.43-.03-3v-.16s-.11-9.31-.11-9.31l-.09-5.13-96.06-2.06-41.69-.89-10.45,2.55-13.22,3.22h-.03s-17.31,4.2-17.31,4.2l.14,2.38-7.59,1.61-69.92,14.81-22.79,5.54-6.54.68-23.53,4.98-10.44,2.22,3.2,24.84h.26s4.76.21,4.76.21l80.6,3.18,116.54,4.57,1.28-10.89.74-6.34.47-4.06,446.28-20.76,13.68-13.25-3.93.31ZM1087.94,523.69l-39.07,12.56.41-11.18,21.16-17.05,18.38,15.4-.74.25-.15.02Z"/>
                <g>
                  <polygon class="cls-39" points="1070.44 508.02 1049.28 525.06 727.48 536.4 726.93 536.41 726.9 536.41 710.45 536.98 680.08 538.05 703.61 533.07 732.94 526.85 802.85 512.03 810.44 510.42 810.31 508.05 810.04 502.93 811.66 502.67 820.88 501.24 875.92 492.63 1024.19 494.84 989.07 501.02 841.36 502.85 989.16 506.16 994.45 506.29 1070.44 508.02"/>
                  <polygon class="cls-29" points="1195.37 498.83 1161.73 507.57 994.5 503.87 1021.52 498.78 1025.29 498.78 1195.37 498.83"/>
                  <polygon class="cls-16" points="1048.86 536.26 1087.8 523.7 1337.46 517.76 1323.77 531.02 877.47 551.79 886.41 547.32 1048.86 536.26"/>
                  <polygon class="cls-15" points="1191.4 516.86 1203 512.98 1429.55 516.24 1191.4 516.86"/>
                </g>
                <polygon class="cls-25" points="1157.65 538.85 1137.53 562.49 1103.58 565.77 1136.21 539.86 1157.65 538.85"/>
                <polygon class="cls-6" points="1323.77 531.02 1323.56 541.26 1148.55 557.68 1160.95 538.69 1323.77 531.02"/>
              </g>
              <polygon class="cls-38" points="2150.57 537.59 2141.52 537.85 2140.38 537.88 2131.34 538.14 2057.47 540.19 2053.81 540.28 2044.5 540.54 1928.55 543.79 1868.05 545.49 1851.57 545.95 1844.44 546.15 1800.84 547.35 1789.37 547.69 1774.04 548.12 1752.65 548.7 1680.21 550.73 1505.13 555.63 1476.51 556.41 1400.94 558.52 1400.68 558.54 1375.69 559.22 1318.08 560.83 1313.49 560.96 1252.92 562.65 1245.34 562.87 741.55 576.94 625.92 580.17 672.88 565.55 673.5 565.51 677.86 565.32 877.01 555.84 877.51 555.82 877.03 561.43 1127.17 547.04 1151.88 545.64 1156.6 545.35 1229.57 541.15 1233.26 540.95 1323.66 535.77 1323.69 535.77 1344.71 534.55 1353.36 529.64 1376.13 516.7 1376.69 516.38 1378.18 515.49 1378.24 515.49 1378.71 515.23 1379.75 514.63 1394.08 506.5 1696.17 466.68 1700.3 456.25 1810.82 437.65 1846.19 431.72 1876.77 426.56 1937.02 416.45 2074.6 413.53 2103.35 412.94 2104.33 415.5 2129.57 482.13 2150.57 537.59"/>
              <polygon class="cls-12" points="2186.86 552.52 2149.63 553.11 2148.21 553.13 2141.74 553.24 1930.2 556.61 1901.48 557.07 1856.75 557.78 1844.21 557.99 1801.73 558.66 1792.95 558.8 1776.82 559.06 1754.1 559.42 1678.65 560.63 1504.66 563.4 1480.43 563.79 1386.1 565.29 1382.18 565.36 1382 565.19 1375.68 559.23 1350.47 535.5 1348.26 533.41 1354.18 529.94 1377.27 516.38 1378.74 515.51 1379.2 515.24 1394.07 506.51 1463.45 516.32 1485.93 519.5 1508.62 516.9 1508.63 516.9 1673.37 498.01 1744.75 489.82 1732.02 483.75 1721.07 478.54 1711.02 473.75 1696.17 466.68 1700.31 456.25 1755.64 459.88 1789.63 462.1 1802.68 462.96 1808.16 463.32 1872 467.5 1919.08 470.58 2085.78 418.43 2103.36 412.93 2104.85 415.43 2144.83 482.27 2186.86 552.52"/>
              <polygon class="cls-8" points="1228.44 540.9 1324.4 563.55 1326.97 562.92 1232.72 540.83 1228.44 540.9"/>
              <path class="cls-11" d="M1270.43,550.82l-17.51,11.84h0s-7.68,5.19-7.68,5.19l-1.49.6-8.42,3.37c0-.25,1.28-1.48,3.3-3.25,1.79-1.57,4.16-3.57,6.72-5.7h0c7.06-5.87,15.54-12.66,17.13-13.94.17-.14.27-.21.27-.21l7.35,2.01.34.09Z"/>
              <polygon class="cls-18" points="706.59 537.91 822.34 510.48 726.25 536.6 706.59 537.91"/>
              <path class="cls-34" d="M992.25,515.68s-1.02-.03-2.98-.05c-16.69-.26-100.23-1.62-173.73-3.31l-.93-.02c-3.94-.1-7.86-.17-11.74-.27l7.59-1.61-.14-2.38-.26-5.11,1.62-.26,15.96,1.17h.03s161.62,11.63,161.62,11.63l2.98.21Z"/>
              <polygon class="cls-5" points="625.92 580.17 1365.97 551.07 1382.18 565.36 1473.34 555.17 1505.31 559.46 1772.25 543.18 1800.15 557.19 1844.13 552.83 1856.75 557.78 2186.4 545.07 2220.82 567.78 1299.65 577.35 1311.5 572.18 625.92 580.17"/>
            </g>
          </g>
          <ellipse class="cls-77" cx="683" cy="569.88" rx="839.61" ry="41.17"/>
        </g>
      </g>
    </g>
  </g>
</svg>