<?xml version="1.0" encoding="UTF-8"?>
<svg xmlns="http://www.w3.org/2000/svg" xmlns:xlink="http://www.w3.org/1999/xlink" viewBox="0 0 1366 550">
  <defs>
    <style>
      .cls-1 {
        fill: url(#_횁책챌청챙첼챠챠청챕_찾챨횪채챔책챠챵_42-11);
      }

      .cls-1, .cls-2, .cls-3, .cls-4, .cls-5, .cls-6, .cls-7, .cls-8, .cls-9, .cls-10, .cls-11, .cls-12, .cls-13, .cls-14, .cls-15, .cls-16, .cls-17, .cls-18 {
        mix-blend-mode: multiply;
      }

      .cls-1, .cls-5, .cls-6, .cls-8, .cls-9, .cls-10, .cls-13, .cls-14, .cls-15 {
        opacity: .5;
      }

      .cls-2 {
        fill: #3f778f;
      }

      .cls-2, .cls-3, .cls-4, .cls-7, .cls-11, .cls-12, .cls-16, .cls-18 {
        opacity: .35;
      }

      .cls-3 {
        fill: url(#_횁책챌청챙첼챠챠청챕_찾챨횪채챔책챠챵_44-7);
      }

      .cls-3, .cls-4, .cls-7, .cls-11, .cls-12, .cls-15, .cls-16, .cls-19, .cls-17, .cls-18 {
        fill-rule: evenodd;
      }

      .cls-4 {
        fill: url(#_횁책챌청챙첼챠챠청챕_찾챨횪채챔책챠챵_44-3);
      }

      .cls-5 {
        fill: url(#_횁책챌청챙첼챠챠청챕_찾챨횪채챔책챠챵_42-7);
      }

      .cls-6 {
        fill: url(#_횁책챌청챙첼챠챠청챕_찾챨횪채챔책챠챵_42-12);
      }

      .cls-7 {
        fill: url(#_횁책챌청챙첼챠챠청챕_찾챨횪채챔책챠챵_44-5);
      }

      .cls-20 {
        fill: none;
      }

      .cls-8 {
        fill: url(#_횁책챌청챙첼챠챠청챕_찾챨횪채챔책챠챵_42-4);
      }

      .cls-9 {
        fill: url(#_횁책챌청챙첼챠챠청챕_찾챨횪채챔책챠챵_42-2);
      }

      .cls-10 {
        fill: url(#_횁책챌청챙첼챠챠청챕_찾챨횪채챔책챠챵_42-10);
      }

      .cls-21 {
        isolation: isolate;
      }

      .cls-22 {
        fill: url(#_횁책챌청챙첼챠챠청챕_찾챨횪채챔책챠챵_42-9);
      }

      .cls-11 {
        fill: url(#_횁책챌청챙첼챠챠청챕_찾챨횪채챔책챠챵_44-2);
      }

      .cls-12 {
        fill: url(#_횁책챌청챙첼챠챠청챕_찾챨횪채챔책챠챵_44-6);
      }

      .cls-13 {
        fill: url(#_횁책챌청챙첼챠챠청챕_찾챨횪채챔책챠챵_42-8);
      }

      .cls-14 {
        fill: url(#_횁책챌청챙첼챠챠청챕_찾챨횪채챔책챠챵_42-3);
      }

      .cls-15 {
        fill: #6997df;
      }

      .cls-23 {
        fill: url(#_횁책챌청챙첼챠챠청챕_찾챨횪채챔책챠챵_43);
      }

      .cls-24 {
        fill: url(#_횁책챌청챙첼챠챠청챕_찾챨횪채챔책챠챵_46);
      }

      .cls-25 {
        fill: url(#_횁책챌청챙첼챠챠청챕_찾챨횪채챔책챠챵_42);
      }

      .cls-16 {
        fill: url(#_횁책챌청챙첼챠챠청챕_찾챨횪채챔책챠챵_44);
      }

      .cls-26 {
        clip-path: url(#clippath);
      }

      .cls-19 {
        fill: url(#_횁책챌청챙첼챠챠청챕_찾챨횪채챔책챠챵_45);
      }

      .cls-17 {
        fill: url(#_횁책챌청챙첼챠챠청챕_찾챨횪채챔책챠챵_42-5);
        opacity: .32;
      }

      .cls-27 {
        fill: url(#_횁책챌청챙첼챠챠청챕_찾챨횪채챔책챠챵_42-6);
      }

      .cls-18 {
        fill: url(#_횁책챌청챙첼챠챠청챕_찾챨횪채챔책챠챵_44-4);
      }
    </style>
    <clipPath id="clippath">
      <rect class="cls-20" x="-.09" y="0" width="1366" height="550"/>
    </clipPath>
    <linearGradient id="_횁책챌청챙첼챠챠청챕_찾챨횪채챔책챠챵_46" data-name="횁책챌청챙첼챠챠청챕 찾챨횪채챔책챠챵 46" x1="-1740.03" y1="-61.93" x2="-1740.02" y2="-61.28" gradientTransform="translate(-1472.15 -297.14) rotate(-161.11) scale(1 -1)" gradientUnits="userSpaceOnUse">
      <stop offset="0" stop-color="#4999ef"/>
      <stop offset=".08" stop-color="#54a0e9"/>
      <stop offset=".22" stop-color="#74b5db"/>
      <stop offset=".4" stop-color="#a6d7c5"/>
      <stop offset=".53" stop-color="#cff2b4"/>
    </linearGradient>
    <linearGradient id="_횁책챌청챙첼챠챠청챕_찾챨횪채챔책챠챵_43" data-name="횁책챌청챙첼챠챠청챕 찾챨횪채챔책챠챵 43" x1="749.6" y1="775.97" x2="759.8" y2="271.03" gradientUnits="userSpaceOnUse">
      <stop offset="0" stop-color="#616b16"/>
      <stop offset=".24" stop-color="#646d16"/>
      <stop offset=".47" stop-color="#6f7618"/>
      <stop offset=".69" stop-color="#82851c"/>
      <stop offset=".9" stop-color="#9c9a20"/>
      <stop offset=".91" stop-color="#9e9c21"/>
    </linearGradient>
    <linearGradient id="_횁책챌청챙첼챠챠청챕_찾챨횪채챔책챠챵_45" data-name="횁책챌청챙첼챠챠청챕 찾챨횪채챔책챠챵 45" x1="515.54" y1="562.81" x2="730.9" y2="21.28" gradientUnits="userSpaceOnUse">
      <stop offset="0" stop-color="#664953"/>
      <stop offset="1" stop-color="#716387"/>
    </linearGradient>
    <linearGradient id="_횁책챌청챙첼챠챠청챕_찾챨횪채챔책챠챵_44" data-name="횁책챌청챙첼챠챠청챕 찾챨횪채챔책챠챵 44" x1="220.61" y1="399.55" x2="246.04" y2="399.55" gradientUnits="userSpaceOnUse">
      <stop offset="0" stop-color="#ae72b4"/>
      <stop offset="1" stop-color="#0073bf"/>
    </linearGradient>
    <linearGradient id="_횁책챌청챙첼챠챠청챕_찾챨횪채챔책챠챵_44-2" data-name="횁책챌청챙첼챠챠청챕 찾챨횪채챔책챠챵 44" x1="348.15" y1="376.17" x2="414.23" y2="376.17" xlink:href="#_횁책챌청챙첼챠챠청챕_찾챨횪채챔책챠챵_44"/>
    <linearGradient id="_횁책챌청챙첼챠챠청챕_찾챨횪채챔책챠챵_44-3" data-name="횁책챌청챙첼챠챠청챕 찾챨횪채챔책챠챵 44" x1="415.23" y1="377.99" x2="436.11" y2="377.99" xlink:href="#_횁책챌청챙첼챠챠청챕_찾챨횪채챔책챠챵_44"/>
    <linearGradient id="_횁책챌청챙첼챠챠청챕_찾챨횪채챔책챠챵_44-4" data-name="횁책챌청챙첼챠챠청챕 찾챨횪채챔책챠챵 44" x1="580.93" y1="401.98" x2="617.37" y2="401.98" xlink:href="#_횁책챌청챙첼챠챠청챕_찾챨횪채챔책챠챵_44"/>
    <linearGradient id="_횁책챌청챙첼챠챠청챕_찾챨횪채챔책챠챵_44-5" data-name="횁책챌청챙첼챠챠청챕 찾챨횪채챔책챠챵 44" x1="681.79" y1="389.89" x2="874.36" y2="389.89" xlink:href="#_횁책챌청챙첼챠챠청챕_찾챨횪채챔책챠챵_44"/>
    <linearGradient id="_횁책챌청챙첼챠챠청챕_찾챨횪채챔책챠챵_44-6" data-name="횁책챌청챙첼챠챠청챕 찾챨횪채챔책챠챵 44" x1="852.33" y1="403.89" x2="1192.53" y2="403.89" xlink:href="#_횁책챌청챙첼챠챠청챕_찾챨횪채챔책챠챵_44"/>
    <linearGradient id="_횁책챌청챙첼챠챠청챕_찾챨횪채챔책챠챵_44-7" data-name="횁책챌청챙첼챠챠청챕 찾챨횪채챔책챠챵 44" x1="1306.26" y1="376.42" x2="1303.19" y2="476.94" xlink:href="#_횁책챌청챙첼챠챠청챕_찾챨횪채챔책챠챵_44"/>
    <linearGradient id="_횁책챌청챙첼챠챠청챕_찾챨횪채챔책챠챵_42" data-name="횁책챌청챙첼챠챠청챕 찾챨횪채챔책챠챵 42" x1="828.74" y1="432.49" x2="931.11" y2="180.57" gradientUnits="userSpaceOnUse">
      <stop offset="0" stop-color="#4a7e11"/>
      <stop offset="1" stop-color="#aca516"/>
    </linearGradient>
    <linearGradient id="_횁책챌청챙첼챠챠청챕_찾챨횪채챔책챠챵_42-2" data-name="횁책챌청챙첼챠챠청챕 찾챨횪채챔책챠챵 42" x1="876.81" y1="238.03" x2="876.49" y2="271.77" gradientTransform="translate(75.29 -123.98) rotate(12.89)" xlink:href="#_횁책챌청챙첼챠챠청챕_찾챨횪채챔책챠챵_42"/>
    <linearGradient id="_횁책챌청챙첼챠챠청챕_찾챨횪채챔책챠챵_42-3" data-name="횁책챌청챙첼챠챠청챕 찾챨횪채챔책챠챵 42" x1="801.77" y1="291.85" x2="802.62" y2="259.56" gradientTransform="translate(85.58 -153.4) rotate(13.43) scale(1 1.08)" xlink:href="#_횁책챌청챙첼챠챠청챕_찾챨횪채챔책챠챵_42"/>
    <linearGradient id="_횁책챌청챙첼챠챠청챕_찾챨횪채챔책챠챵_42-4" data-name="횁책챌청챙첼챠챠청챕 찾챨횪채챔책챠챵 42" x1="859.43" y1="287.89" x2="860.19" y2="259.12" gradientTransform="translate(85.58 -153.4) rotate(13.43) scale(1 1.08)" xlink:href="#_횁책챌청챙첼챠챠청챕_찾챨횪채챔책챠챵_42"/>
    <linearGradient id="_횁책챌청챙첼챠챠청챕_찾챨횪채챔책챠챵_42-5" data-name="횁책챌청챙첼챠챠청챕 찾챨횪채챔책챠챵 42" x1="-205.51" y1="377.19" x2="-133.98" y2="197.33" xlink:href="#_횁책챌청챙첼챠챠청챕_찾챨횪채챔책챠챵_42"/>
    <linearGradient id="_횁책챌청챙첼챠챠청챕_찾챨횪채챔책챠챵_42-6" data-name="횁책챌청챙첼챠챠청챕 찾챨횪채챔책챠챵 42" x1="257.98" y1="463.17" x2="351.74" y2="121.26" xlink:href="#_횁책챌청챙첼챠챠청챕_찾챨횪채챔책챠챵_42"/>
    <linearGradient id="_횁책챌청챙첼챠챠청챕_찾챨횪채챔책챠챵_42-7" data-name="횁책챌청챙첼챠챠청챕 찾챨횪채챔책챠챵 42" x1="317.94" y1="377.26" x2="325.56" y2="377.26" gradientTransform="translate(50.14 -66.88) rotate(9.76)" xlink:href="#_횁책챌청챙첼챠챠청챕_찾챨횪채챔책챠챵_42"/>
    <linearGradient id="_횁책챌청챙첼챠챠청챕_찾챨횪채챔책챠챵_42-8" data-name="횁책챌청챙첼챠챠청챕 찾챨횪채챔책챠챵 42" x1="296.26" y1="550.57" x2="301.57" y2="151.62" gradientTransform="translate(50.14 -66.88) rotate(9.76)" xlink:href="#_횁책챌청챙첼챠챠청챕_찾챨횪채챔책챠챵_42"/>
    <linearGradient id="_횁책챌청챙첼챠챠청챕_찾챨횪채챔책챠챵_42-9" data-name="횁책챌청챙첼챠챠청챕 찾챨횪채챔책챠챵 42" x1="49.52" y1="414.14" x2="145.43" y2="64.44" xlink:href="#_횁책챌청챙첼챠챠청챕_찾챨횪채챔책챠챵_42"/>
    <linearGradient id="_횁책챌청챙첼챠챠청챕_찾챨횪채챔책챠챵_42-10" data-name="횁책챌청챙첼챠챠청챕 찾챨횪채챔책챠챵 42" x1="-29.11" y1="413.46" x2="19.06" y2="299.06" xlink:href="#_횁책챌청챙첼챠챠청챕_찾챨횪채챔책챠챵_42"/>
    <linearGradient id="_횁책챌청챙첼챠챠청챕_찾챨횪채챔책챠챵_42-11" data-name="횁책챌청챙첼챠챠청챕 찾챨횪채챔책챠챵 42" x1="188.06" y1="370.72" x2="200.98" y2="370.72" gradientTransform="translate(50.14 -66.88) rotate(9.76)" xlink:href="#_횁책챌청챙첼챠챠청챕_찾챨횪채챔책챠챵_42"/>
    <linearGradient id="_횁책챌청챙첼챠챠청챕_찾챨횪채챔책챠챵_42-12" data-name="횁책챌청챙첼챠챠청챕 찾챨횪채챔책챠챵 42" x1="615.4" y1="350.19" x2="696.55" y2="350.19" gradientTransform="translate(-364.06 -91.71) rotate(8.41)" xlink:href="#_횁책챌청챙첼챠챠청챕_찾챨횪채챔책챠챵_42"/>
  </defs>
  <g class="cls-21">
    <g id="_2" data-name="2">
      <g class="cls-26">
        <g>
          <path class="cls-24" d="M193.65,207.58l-.3.24,1.26.67c-.32-.3-.64-.6-.96-.9Z"/>
          <polygon class="cls-23" points="1613.49 431.54 1528.96 432.21 1215.34 434.63 1081.31 435.66 922.89 426.33 878 423.7 870.46 423.36 682.55 414.7 608.58 411.27 580.93 410.01 473.07 405.03 435.16 403.96 415.23 403.39 404.64 403.09 361.14 401.85 360.38 401.83 245.13 412.6 238.01 413.26 220.61 412.37 -98.25 395.91 -98.22 393.33 -97.98 364.44 -97.29 278.41 541.5 262.41 842.59 272.03 1317.35 335.55 1368.84 341.86 1368.97 341.86 1381.15 343.34 1381.15 343.36 1395.67 420.12 1407.91 424.69 1412.8 372.12 1434.83 367.55 1436.98 349.47 1448.04 347.64 1547.41 353.83 1500.91 372.12 1613.49 431.54"/>
          <g>
            <polygon class="cls-19" points="1613.49 431.54 1531.87 432.18 1528.96 432.21 1446.48 432.85 1339.74 433.67 1258.36 434.29 1215.34 434.63 1081.31 435.66 922.89 426.33 878 423.7 870.76 423.38 870.46 423.36 682.55 414.7 670.26 414.13 608.58 411.27 581.98 410.06 580.93 410.01 473.07 405.03 435.16 403.96 415.23 403.39 404.64 403.09 361.14 401.85 360.38 401.83 245.13 412.6 238.01 413.26 220.61 412.37 -98.25 395.91 -142.82 393.6 -204.98 390.4 -456.63 377.81 -148.62 361.17 -97.98 364.44 233.12 385.83 242.91 392.69 244.11 392.57 370.17 381.26 348.15 353.83 414.23 349.26 425.46 352.03 436.11 354.65 590.45 392.69 617.37 392.69 602.69 365.26 681.81 357.97 684.97 357.67 686.17 357.56 874.36 404.12 929.13 401.99 933.09 401.83 852.33 378.97 864.57 372.12 1171.7 412.44 1172.95 412.39 1192.36 411.8 1196.69 411.66 1082.39 390.4 1261.06 410.97 1351.61 401.83 1224.34 342.4 1231.69 335.55 1368.84 341.86 1368.97 341.86 1380.98 342.4 1381.15 343.34 1381.15 343.36 1395.67 420.12 1407.91 424.69 1412.8 372.12 1434.83 367.55 1436.98 349.47 1437.27 349.26 1448.04 347.64 1479.76 349.63 1538.5 353.28 1538.6 353.28 1547.41 353.83 1542.37 355.82 1542.32 355.84 1500.91 372.12 1505.73 374.65 1613.49 431.54"/>
            <polygon class="cls-16" points="246.04 393.76 245.13 412.6 238.01 413.26 220.61 412.37 233.12 385.83 244.11 392.57 246.04 393.76"/>
            <polygon class="cls-11" points="414.23 349.26 404.64 403.09 361.14 401.85 370.17 381.26 348.15 353.83 414.23 349.26"/>
            <polygon class="cls-4" points="436.11 354.65 435.16 403.96 415.23 403.39 425.46 352.03 436.11 354.65"/>
            <polygon class="cls-18" points="617.37 392.69 608.58 411.27 581.98 410.06 580.93 410.01 590.45 392.69 617.37 392.69"/>
            <path class="cls-7" d="M874.36,404.12l-3.89,19.25-187.92-8.66c-.22-17.49-.44-34.4-.59-45.46-.07-5.28-.12-9.23-.15-11.27-.02-1.01-.02-1.55-.02-1.55l3.3.82,189.26,46.88Z"/>
            <polygon class="cls-12" points="1192.53 410.97 1192.36 411.8 1187.63 433.83 1081.31 435.66 922.89 426.33 929.13 401.99 929.25 401.53 852.33 378.97 864.57 372.12 1172.95 412.39 1192.53 410.97"/>
            <polygon class="cls-15" points="590.45 392.69 581.98 410.06 580.93 410.01 473.07 405.03 435.16 403.96 415.23 403.39 404.64 403.09 362.81 401.9 361.14 401.85 360.38 401.83 251.15 412.02 245.13 412.6 238.01 413.26 220.61 412.37 -98.25 395.91 -142.82 393.6 -148.62 361.17 -97.98 364.44 117.86 378.38 126.63 378.95 130.27 379.18 233.12 385.83 242.91 392.69 244.11 392.57 291.68 388.3 302.33 387.34 311.48 386.52 370.17 381.26 348.15 353.83 414.23 349.26 425.46 352.03 436.11 354.65 590.45 392.69"/>
            <polygon class="cls-15" points="874.36 404.12 870.76 423.38 870.46 423.36 682.55 414.7 670.26 414.13 681.96 369.24 684.97 357.67 685.09 357.24 874.36 404.12"/>
            <polygon class="cls-3" points="1351.61 401.83 1339.74 433.67 1258.36 434.29 1264.19 410.88 1351.61 401.83"/>
          </g>
          <g>
            <polygon class="cls-2" points="1224.34 342.4 893.4 287.52 1231.69 335.55 1224.34 342.4"/>
            <polygon class="cls-2" points="1264.19 410.88 713.97 305.52 1085.17 390.33 1192.36 411.8 1187.63 433.83 1258.36 434.29 1264.19 410.88"/>
            <g>
              <g>
                <path class="cls-25" d="M990.4,360.51l-243.56-46.57s3.93-25.32,14.68-31.48c.64-.37,1.31-.67,2-.89,12.26-3.94,37.18,9.01,39.52,12.42,2.34,3.41-.81,17.14-.81,17.14,0,0,1.33-3.37,3.46-4.94.82-.6,1.77-.94,2.8-.71,3.72.83,14.73,5.27,15.48,6.52.75,1.25-1.74,10.98-1.74,10.98l12.08,3.06s-3.63-21.11.28-33c1.01-3.07,2.52-5.52,4.73-6.84,10.76-6.44,35.42-15.56,52.64-8.83,7.41,2.9,10.76,7.43,12.18,11.66,1.87,5.58.35,10.63.35,10.63,0,0,.37,0,1.04.04,3.41.21,14.5,1.57,22.53,10.45,7.32,8.09,6.86,24.71,6.23,32.17-.2,2.34-.42,3.77-.42,3.77l7.53.6s.42-1.18,1.13-2.68c1.21-2.58,3.26-6.12,5.46-6.32,1.38-.12,1.64,1.5,1.44,3.5,0,0,0,0,0,0-.28,2.9-1.5,6.6-1.6,6.9.29-.76,8.51-21.92,18.94-26.17,1.53-.62,3.11-.88,4.71-.66,12.77,1.77,21.44,23.73,21.96,27.28.07.45.07.98.02,1.56-.34,3.99-3.07,10.39-3.07,10.39Z"/>
                <path class="cls-9" d="M993.47,350.11c-6.29,3.37-17.65,7.63-27.59,1.5-13.64-8.42-.93-27.12.9-29.67-10.43,4.24-18.65,25.41-18.94,26.17.1-.3,1.32-4,1.6-6.9-1.42,5.33-3.24,8.98-5.42,7.16-.98-.82-1.42-2.35-1.48-4.35-.71,1.5-1.13,2.68-1.13,2.68l-7.53-.6s.22-1.44.42-3.77c-6.84,4.64-43.61.77-43.96-19.47-.28-16.29,10.81-21.66,15.19-23.15-.67-.04-1.04-.04-1.04-.04,0,0,1.52-5.04-.35-10.63-.03,13.53-26.98,24.1-46.27,18.27-20.56-6.21-21.02-18.28-21.02-18.28l-2.25,4.02c-3.92,11.89-.28,33-.28,33l-12.08-3.06s2.49-9.73,1.74-10.98c0,0-4.07,16.6-11.98,11.22-7.12-4.84-6.5-15.05-6.3-17.04-1.67,1.22-2.84,3.54-3.28,4.5,0,0,0,0,0,0-.12.27-.18.43-.18.43,0,0,.34-1.5.72-3.62.76-4.32,1.66-11.23.09-13.52,1.42,8.44-4.58,17.93-12.36,16.19-6.78-1.51-28.77-10.54-29.16-27.73-10.75,6.16-14.68,31.48-14.68,31.48l45.68,8.73,7.78,1.49,47.4,9.06h0s1.88.36,1.88.36h0s140.81,26.92,140.81,26.92c0,0,2.73-6.41,3.07-10.39ZM862.75,322.47c-4.62-5,3.39-6.28,3.39-6.28,10.34-1.3,17.51,7.69,17.74,10.27.23,2.58-16.51,1.01-21.13-3.99ZM883.06,333.14c-2.62-.94-2.98-3.73-2.98-3.73,6.61-.69,7.85,2.83,7.85,2.83,0,0-2.26,1.84-4.87.9Z"/>
                <path class="cls-14" d="M800.3,324.16l-7.78-1.49c3.03-2.87,7.76-8.12,10.43-15.16-.38,2.13-.72,3.62-.72,3.62,0,0,.06-.16.18-.43-1.92,4.84-2.19,10.12-2.11,13.46Z"/>
                <path class="cls-8" d="M860.01,320.6c-2.4,8.67-1.38,14.49-1.38,14.49l-11.1-1.84c10.14-1.19,10.97-8.83,12.48-12.65Z"/>
              </g>
              <path class="cls-17" d="M-30.72,328.52c-132.27-30.97-644.35-71.1-644.35-71.1l14.32-50.16,501.34,86.95-204.12-50.16,490.59,86.95,189.48,48.11L-27.83,321.1l-2.89,7.42Z"/>
              <g>
                <path class="cls-27" d="M316.55,379.1l-12.53-1.71-2-.27-5.55-.76-34.79-4.21-5.97-.72s.18-3.16.51-7.93c.95-13.66,3.17-40.53,6.16-44.36.03-.03.05-.06.08-.09,4.02-4.6,39.25,13.17,40.99,20.97.1.44.19.95.25,1.52.04.28.06.56.09.88.05.6.1,1.26.12,1.96.02.42.03.84.04,1.29,0,.3.02.6,0,.91,0,.19,0,.39,0,.59,0,.26,0,.52,0,.78,0,1.55-.06,3.2-.13,4.9-.03,1.01-.09,2.04-.15,3.08h0c-.1,1.66-.2,3.31-.32,4.92-.06.66-.1,1.31-.16,1.95-.09,1.06-.18,2.1-.26,3.07-.03.36-.07.71-.09,1.05-.04.42-.08.83-.12,1.22-.03.36-.06.71-.09,1.05-.04.43-.09.84-.12,1.22-.05.54-.1,1.02-.15,1.48-.01,0-.02.02,0,.03-.08.8-.16,1.46-.21,1.98-.02.09-.02.17-.03.24,0,.07-.01.14-.01.2-.01.06,0,.12-.02.16l.02-.11s0-.04,0-.05l.04-.24c0-.11.03-.21.05-.32s.04-.23.06-.37c.02-.09.04-.19.04-.3.02-.13.05-.26.06-.41.01-.15.04-.31.07-.47.05-.33.1-.68.16-1.05.03-.18.06-.37.09-.56.12-.77.25-1.61.4-2.5.06-.3.1-.6.15-.91.45-2.77,1.01-5.89,1.59-8.72.08-.34.14-.67.21-1.01.87-4.02,1.81-7.22,2.61-7.59,2.27-1,10.29.43,10.75,8.26.45,7.85-1.85,20.97-1.85,20.97Z"/>
                <path class="cls-5" d="M304.02,377.39l-2-.27-5.55-.76c.93-3.25,2.5-9.13,4.15-17.08,1.06-5.12,2.14-11.09,3.1-17.76.04.28.06.56.09.88.05.6.1,1.26.12,1.96.02.42.03.84.04,1.29,0,.3.02.6,0,.91,0,.19,0,.39,0,.59,0,.26,0,.52,0,.78,0,1.55-.06,3.2-.13,4.9-.03,1.01-.09,2.04-.15,3.08h0c-.1,1.66-.2,3.31-.32,4.92-.06.66-.1,1.31-.16,1.95-.09,1.06-.18,2.1-.26,3.07-.03.36-.07.71-.09,1.05-.04.42-.08.83-.12,1.22-.03.36-.06.71-.09,1.05-.04.43-.09.84-.12,1.22-.05.54-.1,1.02-.15,1.48-.01,0-.02.02,0,.03-.08.8-.16,1.46-.21,1.98-.02.09-.02.17-.03.24-.02.16-.03.3-.04.42l.03-.17c.01-.08.03-.18.04-.29s.03-.21.05-.32.04-.23.06-.37c.02-.09.04-.19.04-.3.02-.13.05-.26.06-.41.01-.15.04-.31.07-.47.05-.33.1-.68.16-1.05.03-.18.06-.37.09-.56.12-.77.25-1.61.4-2.5.06-.3.1-.6.15-.91.45-2.77,1.01-5.89,1.59-8.72-.05.5-.12,1-.17,1.48v.09s-.02.08-.02.08c-.75,7.28-.78,13.22-.62,17.27Z"/>
                <path class="cls-13" d="M302.02,377.12l-5.55-.76-34.79-4.21-2.23-.69-3.23-7.97c.95-13.66,3.17-40.53,6.16-44.36,4.06,35.85,30.91,43.31,38.23,40.15.53-.22.95-.51,1.27-.85.68-.74,1.28-1.59,1.8-2.51-.1,1.65-.2,3.3-.32,4.91-.06.66-.1,1.31-.16,1.95-.09,1.06-.18,2.1-.26,3.07-.03.36-.07.71-.09,1.05-.04.42-.08.83-.12,1.22-.03.36-.06.71-.09,1.05-.04.43-.09.84-.12,1.22-.05.54-.1,1.02-.15,1.48-.01,0-.02.02,0,.03-.08.8-.16,1.46-.21,1.98-.02.09-.02.17-.03.24,0,.07-.01.14-.01.2l.04-.24c0-.11.03-.21.05-.32s.04-.23.06-.37c.02-.09.04-.19.04-.3.02-.13.05-.26.06-.41.01-.15.04-.31.07-.47.05-.33.1-.68.16-1.05.03-.18.06-.37.09-.56.12-.77.25-1.61.4-2.5.06-.3.1-.6.15-.91.45-2.77,1.01-5.89,1.59-8.72.08-.34.14-.67.21-1.01l-.38,2.49v.09s-.02.08-.02.08l-2.61,17Z"/>
                <g>
                  <path class="cls-22" d="M271.37,373.24l-40.04-6.54h-.06s-40-6.54-40-6.54l-11.18-1.86-2.12-.34c-.29,1.51-.52,2.61-.63,3.15.11-.57.31-1.64.6-3.14l-9.82-1.61-24.11-3.96-159.69-26.14-66.65-10.91-49.46-8.09s4.49-5.44,11.54-13.68c4.46-5.19,9.87-11.46,15.81-18.12,5.7-6.43,11.84-13.22,18.02-19.79.85-.93,1.7-1.82,2.55-2.72,18.56-19.56,36.81-36.46,44.19-35.84,48.25,4.15,137.14,16.25,168.49,54.67,2.41,2.97,4.23,8.6,5.63,15.37.26,1.28.51,2.58.73,3.93.13.75.26,1.49.38,2.27,1.19,7.56,1.96,15.83,2.44,23,.29,4.19.48,8.02.61,11.1.19,4.72.25,7.71.25,7.71,0,0,.65-2.88,1.69-7.45.68-2.93,1.51-6.54,2.44-10.52,1.59-6.71,3.45-14.44,5.29-21.7.18-.68.34-1.37.53-2.05.84-3.28,1.66-6.43,2.46-9.31l.02.05c.62-.94,1.32-1.74,2.14-2.4,9.84-8.17,32.45,4.55,33.96,21.17.12,1.27.12,2.58-.03,3.89-.09.78-.14,1.44-.15,1.99-.76,4.59-1.7,9.9-2.7,15.35-.54,3.01-1.12,6.05-1.68,9.05-1.09,5.78-2.18,11.34-3.08,15.98,1.04-5.02,2.29-10.85,3.5-15.93.83-3.46,1.63-6.59,2.35-8.91.75-2.43,1.4-3.98,1.89-4.12,1.95-.61,8.11,3.12,10.71,6.25.7.86,1.15,1.66,1.19,2.34.05.83-.27,3.27-.77,6.46-.37,2.37-.84,5.12-1.35,7.92h0c-1.39,7.9-2.96,16-2.96,16,0,0,.21-.96.57-2.52.03-.17.08-.34.12-.52.02-.1.05-.2.07-.32.05-.22.11-.43.15-.67.14-.58.29-1.22.44-1.89.06-.26.12-.54.2-.82.01-.07.04-.14.05-.2.05-.19.08-.39.13-.59v-.06c.08-.3.16-.59.22-.89.22-.9.45-1.84.68-2.81.08-.32.17-.65.24-.96.03-.11.06-.24.09-.35.11-.44.23-.88.34-1.34.19-.75.39-1.51.59-2.27.17-.66.34-1.31.52-1.97.04-.15.08-.31.12-.45.18-.66.37-1.31.54-1.94.06-.2.12-.42.18-.62.17-.56.32-1.11.48-1.65.07-.26.16-.52.23-.77.09-.26.16-.52.24-.76.04-.17.1-.33.15-.48.18-.56.37-1.1.54-1.6.05-.12.09-.26.13-.37.05-.12.08-.23.13-.36.09-.22.17-.42.24-.62.24-.61.48-1.14.69-1.55.1-.17.17-.33.26-.47.09-.14.18-.27.26-.36.15-.19.29-.29.43-.3,1.41-.03,22.22,6.23,38.04,12.17,9.02,3.37,16.56,6.69,18.5,8.88h.01c.22.23.38.48.44.7.19.6.49,1.34.85,2.19.43,1.01.97,2.2,1.56,3.46.3.65.62,1.32.95,2.01.32.65.65,1.32.98,1.98.61,1.27,1.25,2.54,1.87,3.76.48.94.96,1.87,1.39,2.73,1.57,3.03,2.86,5.48,3.32,6.33.05.08.09.14.1.19.03.05.05.09.05.11Z"/>
                  <path class="cls-10" d="M144.01,352.4l-159.69-26.14-66.65-10.91-49.46-8.09s4.49-5.44,11.54-13.68c4.46-5.19,9.87-11.46,15.81-18.12,5.7-6.43,11.84-13.22,18.02-19.79.85-.93,1.7-1.82,2.55-2.72,18.56-19.56,36.81-36.46,44.19-35.84,1.86,15.57,3.71,30.75,8.4,45,.34,1.03.69,2.07,1.07,3.09,3.21,8.92,7.62,17.35,13.89,25.12,5.96,7.38,13.56,14.09,23.33,19.93,20.89,12.5,50.78,20.56,92.88,22.54,9.85.47,17.25-2.21,22.62-7.43,2.86-2.77,5.15-6.28,6.93-10.43,2.57-5.98,4.09-13.32,4.69-21.81.06-.72.1-1.46.14-2.19.06-1.23.12-2.5.15-3.78.26,1.28.51,2.58.73,3.93.13.75.26,1.49.38,2.27,1.19,7.56,1.96,15.83,2.44,23,.29,4.19.48,8.02.61,11.1.19,4.72.25,7.71.25,7.71,0,0,.65-2.88,1.69-7.45.68-2.93,1.51-6.54,2.44-10.52,1.59-6.71,3.45-14.44,5.29-21.7.18-.68.34-1.37.53-2.05.84-3.28,1.66-6.43,2.46-9.31l.02.05c.62-.94,1.32-1.74,2.14-2.4-.78,3.5-1.66,7.57-2.57,12.01-.14.69-.28,1.37-.42,2.07-1.37,6.84-2.78,14.4-3.94,21.92-.55,3.54-1.04,7.08-1.46,10.51-1.12,9.32-1.63,17.92-1,24.1Z"/>
                  <path class="cls-1" d="M187.45,320.25l-.83,4.32-1.73,8.96-4.79,24.78-2.12-.34c-.29,1.51-.52,2.61-.63,3.15.11-.57.31-1.64.6-3.14l-9.82-1.61c4.41-5.55,8.57-13.45,11.58-23.51.14-.47.28-.95.42-1.43.72-2.55,1.42-5.07,2.1-7.6,1.93-7.25,3.65-14.31,5.14-20.85.12,1.27.12,2.58-.03,3.89-.09.78-.14,1.44-.15,1.99-.76,4.59-1.7,9.9-2.7,15.35-.54,3.01-1.12,6.05-1.68,9.05-1.09,5.78-2.18,11.34-3.08,15.98,1.04-5.02,2.29-10.85,3.5-15.93.83-3.46,1.63-6.59,2.35-8.91.75-2.43,1.4-3.98,1.89-4.12Z"/>
                  <path class="cls-6" d="M271.37,373.25l-80.1-13.1c.61-.54,1-1.04,1.06-1.47.13-1.02,2.29-7.69,4.89-15.45-1.4,7.89-2.96,16-2.96,16,0,0,5.94-27.11,8.59-30.19-2.54,10.44-4.84,24.03-1.14,28.62,6.27,7.73,62.08,7.66,58.13-7.87.23.23.38.47.45.7,1.76,5.36,11.08,22.77,11.08,22.77Z"/>
                </g>
              </g>
            </g>
          </g>
          <rect class="cls-20" x="-644.89" y="-12.09" width="2646.33" height="574.19"/>
        </g>
      </g>
    </g>
  </g>
</svg>