<?xml version="1.0" encoding="UTF-8"?>
<svg xmlns="http://www.w3.org/2000/svg" xmlns:xlink="http://www.w3.org/1999/xlink" viewBox="0 0 1366 550">
  <defs>
    <style>
      .cls-1 {
        fill: url(#linear-gradient-7);
      }

      .cls-1, .cls-2, .cls-3, .cls-4 {
        mix-blend-mode: overlay;
        opacity: .36;
      }

      .cls-2 {
        fill: url(#linear-gradient-6);
      }

      .cls-5 {
        fill: none;
      }

      .cls-6 {
        fill: url(#linear-gradient-4);
      }

      .cls-7 {
        fill: url(#linear-gradient-3);
      }

      .cls-8 {
        isolation: isolate;
      }

      .cls-9 {
        fill: url(#linear-gradient-2);
        opacity: .62;
      }

      .cls-3 {
        fill: url(#linear-gradient-5);
      }

      .cls-4 {
        fill: url(#linear-gradient-8);
      }

      .cls-10 {
        fill: url(#linear-gradient);
      }

      .cls-11 {
        clip-path: url(#clippath);
      }
    </style>
    <clipPath id="clippath">
      <rect class="cls-5" x="1.38" y=".12" width="1366.88" height="550"/>
    </clipPath>
    <linearGradient id="linear-gradient" x1="645.62" y1="262.98" x2="645.62" y2="570.48" gradientUnits="userSpaceOnUse">
      <stop offset="0" stop-color="#00c4b8"/>
      <stop offset=".35" stop-color="#41d8c8"/>
      <stop offset="1" stop-color="#b7ffe6"/>
    </linearGradient>
    <linearGradient id="linear-gradient-2" x1="357.06" y1="580.14" x2="357.06" y2="220.63" gradientUnits="userSpaceOnUse">
      <stop offset="0" stop-color="#dbfff5" stop-opacity=".8"/>
      <stop offset="1" stop-color="#dbfff5" stop-opacity=".1"/>
    </linearGradient>
    <linearGradient id="linear-gradient-3" x1="274.48" y1="108.57" x2="274.48" y2="294.13" gradientUnits="userSpaceOnUse">
      <stop offset="0" stop-color="#00f2e8"/>
      <stop offset=".36" stop-color="#00adab"/>
      <stop offset="1" stop-color="#003844"/>
    </linearGradient>
    <linearGradient id="linear-gradient-4" x1="1122.17" y1="122.87" x2="1122.17" y2="253.25" xlink:href="#linear-gradient-3"/>
    <linearGradient id="linear-gradient-5" x1="119.95" y1="161.27" x2="119.95" y2="254.45" gradientUnits="userSpaceOnUse">
      <stop offset="0" stop-color="#dbfff5"/>
      <stop offset="1" stop-color="#dbfff5" stop-opacity="0"/>
    </linearGradient>
    <linearGradient id="linear-gradient-6" x1="528.17" y1="135.93" x2="528.17" y2="256.81" xlink:href="#linear-gradient-5"/>
    <linearGradient id="linear-gradient-7" x1="1094.71" y1="158.01" x2="1094.71" y2="251.19" xlink:href="#linear-gradient-5"/>
    <linearGradient id="linear-gradient-8" x1="733.66" y1="156.95" x2="733.66" y2="298.33" xlink:href="#linear-gradient-5"/>
  </defs>
  <g class="cls-8">
    <g id="_2" data-name="2">
      <g class="cls-11">
        <g>
          <g>
            <rect class="cls-10" x="-84.69" y="229.08" width="1460.62" height="327.08"/>
            <path class="cls-9" d="M1472.93,253.18c-47.48-2.05-95.84-1.93-143.92-1.76-143.02.52-286.01,1.49-428.94,2.91-68.68.68-195.05,1.4-204.87,5.5-9.82,4.1,18.67,5.16,32.96,5.2,225.09.58,574.03,4.38,799.11,4.95l4,8.4c-376.08,3.38-1171.18.06-1169.98-6.88,1.2-6.94,151.81-3.54,147.53-8.65-4.28-5.11-73.83-6.05-112.72-6.22-171.75-.77-343.51-1.54-515.26-2.31l108.73-21.68,1464.98-8.19,18.39,28.72ZM549.25,306.7c-2.38-.54-6.12-.69-9.59-.81-138.66-4.72-280.63-3-420.2-6.37-5.39-.13-11.26-.32-14.88-1.16-5.59-1.3-2.48-3.46,3.68-4.64,6.16-1.18,117.77-.57,116.9-5.45-.87-4.87-253.81-2.8-340.62-4.08l-21.74,43.44c72.56.56,319.48.18,433.33-.57,115.23-.76,117.88-6.76,39.79-7.27-82.7-.55-204.08-1.11-200.95-3.12,5.08-3.27,246.07-5.22,283.56-5.4,37.49-.18,75.18.58,112.43-.34,5.66-.14,11.61-.35,15.97-1.11,4.36-.76,6.19-2.26,2.33-3.13ZM779.34,495.62c-19.33-2.78-40.36-3.92-61.18-4.95-111.55-5.53-410.03-6.45-410.92-13.21-.9-6.76,79.72-21.33,116.97-33,8.62-2.7,17.57-7.16,9.83-10.14-2.61-1-6.53-1.49-10.29-1.92-40.15-4.63-195.15-5.52-190.94-16.57,4.21-11.05,741.13-11.21,1069.9-8.25l41.31-11.98c-221.93-4.63-878.91-8.01-913.43-7.86-47.49.22-119.32-4.92-8.01-6.56,232.47-3.42,700.61-1.48,906.36-.15l29.37-10.12c-316.57,1.02-1281.05-4.93-1283.32-8.98-2.27-4.05,113.72-2.37,116.4-9.34,2.68-6.97-49.41-6.53-76.07-7.2-84.78-2.14-402.84-.1-402.84-.1,0,8.06-3.45,3.51.5,11.61,53.05,3.94,245.31.51,287.38,7.22,6.18.98,11.05,3.35,9.77,5.6-1.24,2.17-8.05,3.39-14.09,4.29-39.69,5.94-116.1,11.68-119.07,17.81-2.97,6.13,31.85,3.99,48.99,4.29,81.78,1.46,245.93,2.92,244.81,6.84-1.11,3.92-36.71,7.43-57.97,8.77-41.01,2.59-761,1.02-804.92-.07l17.86,18.06c340.5-7.54,997.33-3.31,1002.44,17.45,1.7,6.91-125.62,25.91-177.67,33.99-4.25.66-9.06,1.58-9.59,3.13-.76,2.18,7.12,3.44,13.51,3.96,158.49,12.96,332.75,1.46,482.21,23.36,4.96.73,10.34,1.65,12.21,3.35,3.61,3.29-7.87,6.02-17.16,7.63-26.08,4.53-380.39,33.01-441.15,37.91l395.34,2.48c66.1-13.4,224.7-45.8,228.42-50.6,5.58-7.19-14.55-13.8-34.93-16.74ZM1542.01,327.84s-1124.27-7.95-1128.62,5.91c-1.87,5.98,118.29,5.93,143.43,5.92,85.87-.03,461.92-.68,459.62,4.26-2.31,4.94-271.82,3.49-266.68,6.86,5.14,3.37,53.34,3.85,80.76,3.76,62.44-.21,124.88-.41,187.33-.62,177.43-.59,354.86-1.18,532.28-1.77l-8.11-24.33ZM1651.33,440.86s-1124.27-7.95-1128.62,5.91c-1.87,5.98,118.29,5.93,143.43,5.92,85.87-.03,461.92-.68,459.62,4.26-2.31,4.94-271.82,3.49-266.68,6.86,5.14,3.37,53.34,3.85,80.76,3.76,62.44-.21,124.88-.41,187.33-.62,177.43-.59,354.86-1.18,532.28-1.77l-8.11-24.33ZM-945.31,500.47c177.43.82,354.85,1.65,532.28,2.47,62.44.29,124.88.58,187.33.87,27.42.13,146.29-1.64,147.26-6.65,3.21-16.68-425-.66-419.04-12.63,3.42-6.86,43.72-12.63,545.48-20.25,25.11-.38,145.3.08,143.43-8.27-4.35-19.37-1128.62-8.27-1128.62-8.27l-8.11,52.73Z"/>
          </g>
          <g>
            <path class="cls-7" d="M-151.08,203.48c12.38-19.96,25.15-40.31,50.23-57.33,25.08-17.02,65.1-30.44,108.69-30.08,34.06.28,65.81,8.84,90.91,19.84,25.1,11,44.84,24.43,66.38,37.03,11.08,6.49,23.66,13.08,40.53,15.35,24.75,3.34,50.05-3.55,71.29-10.47,21.23-6.93,44.85-14.56,70.31-12.82,45.94,3.13,67.26,34.33,113.58,35.73,28.89.87,50.57-12.57,76.99-17.43,101.37-18.63,162.21,67.33,162.21,67.33l-846.2,4.88-4.91-52.03Z"/>
            <path class="cls-6" d="M1493.33,218.92c-5.35-24.12-15.65-47.87-30.62-70.59-7.23-10.97-18.03-22.97-37.64-25.78-17.39-2.49-35.28,3.49-47.54,11.08-12.26,7.59-21.09,16.93-33.88,24.22-12.79,7.29-31.84,12.42-48.57,8.7-19.89-4.42-26.77-18.43-40.15-28.07-22.73-16.35-69.8-18.48-96.6-4.36-28.04,14.77-33.49,42.52-67.92,51.65-14.65,3.88-31.56,3.35-47.48,1.96-12.29-1.07-24.77-2.67-35.26-6.55-12.1-4.47-20.82-11.7-33.53-15.55-15.9-4.82-35.44-3.84-52.43-.49-113.52,22.34-140.93,46.97-170.67,79.44l742.31.82v-26.49Z"/>
          </g>
          <g>
            <path class="cls-3" d="M514.63,254.99c-41.65-31.98-102.88-55.14-170.02-64.33-67.14-9.19-139.7-4.33-201.5,13.49-25.02,7.22-48.69,16.55-75.8,20.46-82.89,11.96-165.66-29.76-250.1-22.31-37.98,3.35-72.81,17.21-91.94,36.58v16.11h789.35Z"/>
            <path class="cls-2" d="M-249.24,211.82c105.31,9.14,217.38-4.56,313.99-19.39,96.61-14.83,198.63-31.68,308.55-29.08,172.8,4.09,300.98,54.91,474.41,54.89,102.89,0,192.57-18.11,278.5-33.86,85.93-15.76,188.51-30.41,287.61-22.7v93.3H-357.48l108.24-43.17Z"/>
            <path class="cls-1" d="M1489.39,251.73c-41.65-31.98-102.88-55.14-170.02-64.33-67.14-9.19-139.7-4.33-201.5,13.49-25.02,7.22-48.69,16.55-75.8,20.46-82.89,11.96-165.66-29.76-250.1-22.31-37.98,3.35-72.81,17.21-91.94,36.58v16.11h789.35Z"/>
            <path class="cls-4" d="M-6.89,245.71c100.32,10.69,207.08-5.33,299.11-22.67,92.03-17.34,189.22-37.05,293.92-34,164.61,4.79,286.71,64.22,451.92,64.2,98.01-.01,183.44-21.18,265.29-39.61,81.86-18.43,179.57-35.56,273.97-26.55v109.12H-110L-6.89,245.71Z"/>
          </g>
        </g>
      </g>
    </g>
  </g>
</svg>