<?xml version="1.0" encoding="UTF-8"?>
<svg xmlns="http://www.w3.org/2000/svg" xmlns:xlink="http://www.w3.org/1999/xlink" viewBox="0 0 1366 550">
  <defs>
    <style>
      .cls-1 {
        fill: url(#linear-gradient-15);
      }

      .cls-2 {
        fill: url(#linear-gradient-13);
      }

      .cls-3 {
        fill: #00445a;
      }

      .cls-4 {
        fill: url(#linear-gradient-2);
      }

      .cls-5 {
        fill: url(#linear-gradient-10);
      }

      .cls-6 {
        fill: url(#linear-gradient-12);
      }

      .cls-7 {
        fill: #007236;
      }

      .cls-8 {
        fill: none;
      }

      .cls-9 {
        fill: url(#linear-gradient-4);
      }

      .cls-10 {
        fill: url(#linear-gradient-19);
        mix-blend-mode: overlay;
        opacity: .75;
      }

      .cls-11 {
        fill: url(#linear-gradient-3);
      }

      .cls-12 {
        fill: url(#linear-gradient-5);
      }

      .cls-13 {
        isolation: isolate;
      }

      .cls-14 {
        fill: url(#linear-gradient-8);
      }

      .cls-15 {
        fill: url(#linear-gradient-14);
      }

      .cls-16 {
        fill: url(#linear-gradient-17);
      }

      .cls-17 {
        fill: url(#linear-gradient-7);
      }

      .cls-18 {
        fill: #007572;
      }

      .cls-19 {
        fill: url(#linear-gradient-9);
      }

      .cls-20 {
        fill: url(#linear-gradient-11);
      }

      .cls-21 {
        fill: url(#linear-gradient-6);
      }

      .cls-22 {
        fill: #00898c;
      }

      .cls-23 {
        fill: url(#linear-gradient-16);
      }

      .cls-24 {
        fill: url(#linear-gradient);
      }

      .cls-25 {
        clip-path: url(#clippath);
      }

      .cls-26 {
        fill: url(#linear-gradient-18);
      }
    </style>
    <clipPath id="clippath">
      <rect class="cls-8" x="1.38" y=".12" width="1366.88" height="550"/>
    </clipPath>
    <linearGradient id="linear-gradient" x1="1226.34" y1="662.82" x2="1161.98" y2="458.71" gradientTransform="translate(-77.89 266.41) rotate(-15.42)" gradientUnits="userSpaceOnUse">
      <stop offset="0" stop-color="#004a46"/>
      <stop offset="1" stop-color="#008cab"/>
    </linearGradient>
    <linearGradient id="linear-gradient-2" x1="1331.66" y1="468.15" x2="1315.32" y2="306.55" gradientTransform="matrix(1,0,0,1,0,0)" xlink:href="#linear-gradient"/>
    <linearGradient id="linear-gradient-3" x1="1379.25" y1="441.22" x2="1362.99" y2="280.4" gradientTransform="translate(60.39 -131.64) rotate(7.82)" gradientUnits="userSpaceOnUse">
      <stop offset="0" stop-color="#004a46"/>
      <stop offset=".03" stop-color="#004d49"/>
      <stop offset="1" stop-color="#00c4bf"/>
    </linearGradient>
    <linearGradient id="linear-gradient-4" x1="1346.08" y1="605.35" x2="1238.97" y2="364.37" gradientUnits="userSpaceOnUse">
      <stop offset="0" stop-color="#009480"/>
      <stop offset="1" stop-color="#49df7e"/>
    </linearGradient>
    <linearGradient id="linear-gradient-5" x1="780.07" y1="835.46" x2="913.58" y2="835.46" gradientTransform="translate(262.1 1115.81) rotate(-76.22)" xlink:href="#linear-gradient-3"/>
    <linearGradient id="linear-gradient-6" x1="1194.12" y1="549.81" x2="1087.81" y2="430.58" xlink:href="#linear-gradient-4"/>
    <linearGradient id="linear-gradient-7" x1="1174.95" y1="643.87" x2="1053.4" y2="496.12" xlink:href="#linear-gradient-4"/>
    <linearGradient id="linear-gradient-8" x1="234" y1="554.91" x2="187.69" y2="415.34" gradientTransform="matrix(1,0,0,1,0,0)" xlink:href="#linear-gradient"/>
    <linearGradient id="linear-gradient-9" x1="231.09" y1="394.04" x2="59.85" y2="267.07" gradientTransform="translate(-152.43 331.32) rotate(-29.36)" xlink:href="#linear-gradient-4"/>
    <linearGradient id="linear-gradient-10" x1="186.94" y1="424.39" x2="91.69" y2="263.51" gradientTransform="translate(-128.4 261.72) rotate(-23.37)" xlink:href="#linear-gradient-4"/>
    <linearGradient id="linear-gradient-11" x1="350.3" y1="712.2" x2="285.3" y2="602.4" gradientTransform="translate(271.51 -269.81) rotate(27.92)" xlink:href="#linear-gradient-4"/>
    <linearGradient id="linear-gradient-12" x1="363.68" y1="629.62" x2="571.57" y2="470.85" xlink:href="#linear-gradient-4"/>
    <linearGradient id="linear-gradient-13" x1="234" y1="435.78" x2="171" y2="254.67" gradientTransform="translate(-126.96 258.72) rotate(-22.32)" xlink:href="#linear-gradient-3"/>
    <linearGradient id="linear-gradient-14" x1="337.69" y1="530.87" x2="549.47" y2="530.87" gradientTransform="matrix(1,0,0,1,0,0)" xlink:href="#linear-gradient"/>
    <linearGradient id="linear-gradient-15" x1="339.97" y1="480.65" x2="493.85" y2="480.65" xlink:href="#linear-gradient-4"/>
    <linearGradient id="linear-gradient-16" x1="319.7" y1="632.44" x2="339.08" y2="480.44" gradientTransform="translate(93.44 -117.75) rotate(11.31)" xlink:href="#linear-gradient-3"/>
    <linearGradient id="linear-gradient-17" x1="201.65" y1="523.52" x2="362.64" y2="523.52" xlink:href="#linear-gradient-4"/>
    <linearGradient id="linear-gradient-18" x1="656.6" y1="217.41" x2="656.6" y2="345.09" gradientUnits="userSpaceOnUse">
      <stop offset="0" stop-color="#00b0c7"/>
      <stop offset="1" stop-color="#065"/>
    </linearGradient>
    <linearGradient id="linear-gradient-19" x1="624.4" y1="263.62" x2="624.4" y2="338.2" gradientUnits="userSpaceOnUse">
      <stop offset="0" stop-color="#dbfff5"/>
      <stop offset="1" stop-color="#dbfff5" stop-opacity="0"/>
    </linearGradient>
  </defs>
  <g class="cls-13">
    <g id="_1" data-name="1">
      <g class="cls-25">
        <g>
          <g>
            <g>
              <g>
                <path class="cls-24" d="M1330.72,506.24c-1.85-5.72-5.96-11.61-14.36-14.77-8.4-3.16-21.74-2.17-25.88,3.13,3.79-5.26,7.65-10.68,7.7-16.39.05-5.7-4.64-11.81-13.67-14.03-9.02-2.22-21.63,1.36-21.76,7.06,1.93-5.6,3.86-11.33,2.47-16.98-1.39-5.65-6.77-11.31-15.77-13.59-8.77-2.22-19.54-.71-26.63,3.02-7.09,3.73-10.71,9.35-11.13,14.9-3.12-10.02-7.55-20.07-16.53-28.81-8.98-8.74-23.08-16.09-40.13-18.39-17.05-2.3-36.88,1.34-46.04,10.02-10.55,9.99-4.46,23.63,8.83,32.45,13.29,8.82,32.22,13.93,50.57,18.79-14.16-4.44-33.3,2.46-36.29,11.65-2.99,9.19,7.01,18.58,20.73,23.46,13.72,4.88,30.39,6.04,46.47,6.11-16.88-1.54-34.51,5.07-40.22,14.44-5.71,9.37.19,20.52,13.17,26.99,12.98,6.47,118.56,11,118.56,11,0,0,45.13-43.88,39.91-60.06Z"/>
                <path class="cls-3" d="M1239.2,497.62c-29.39-27.24-66.33-54.24-109.51-74.55-.19-.09-.41.05-.26.15,17.76,12.3,38.5,23.12,56.42,35.4,18.41,12.61,35.16,26.04,50.12,40.11,29.48,27.72,50.04,57.53,67.13,88.46.51.92,2.88.55,2.5-.4-12.6-31.55-36.9-61.84-66.4-89.18Z"/>
              </g>
              <g>
                <path class="cls-4" d="M1341.56,514.71c10.45-50.13-101.57-174.37-30.69-184.43,81.39-11.55,30.69,184.43,30.69,184.43Z"/>
                <path class="cls-3" d="M1313.76,337.18c-.08-.28-.78-.15-.71.11,14.12,59.29,29.18,118.45,26.19,178.49-.03.7,1.79.69,1.85,0,5.52-59.85-10.23-119.75-27.33-178.61Z"/>
              </g>
              <g>
                <path class="cls-11" d="M1356.05,538.99c22.08-48.84-59.86-180.79,12.72-185.14,83.33-5-12.72,185.14-12.72,185.14Z"/>
                <path class="cls-3" d="M1370.02,360.91c-.02-.28-.73-.21-.73.06.13,59.86,1.22,119.65-15.78,178.91-.2.69,1.61.82,1.83.15,19.47-58.86,17.87-119.45,14.68-179.11Z"/>
              </g>
              <g>
                <path class="cls-9" d="M1387.55,597.67c-.33-.08-.64-.17-.97-.26-1.59-.4-3.2-.83-4.79-1.25-32.27-8.72-67.08-22.29-104.99-46.53l16.87-13.36-37.53-.3s-7.56-9.68-17.42-23.53c-.31-.44-.62-.88-.95-1.32-2.06-2.91-4.19-5.97-6.37-9.15-1.14-1.64-2.27-3.31-3.41-5-11.04-16.4-22.61-35.19-29.1-50.53-.12-.28-.24-.55-.36-.81-.19-.5-.4-.96-.59-1.43-1.47-3.42-2.77-6.42-3.96-9.08-.21-.54-.45-1.06-.66-1.56-6.26-14.09-8.36-17.28-9.1-17.83l30.61-11.87h-30.97s.97-25.14,9.38-57.32c13.15,2.18,84.64,15.28,127.65,57.87l-16.89,12.56,22.53-3.83s4.17,5.11,10.05,13.27c1.21,1.67,2.49,3.47,3.82,5.39,10.69,15.35,24.71,37.85,31.21,58.33.4,1.25.78,2.56,1.18,3.91.38,1.38.76,2.81,1.14,4.27,9.57,37.3,13.62,99.37,13.62,99.37Z"/>
                <path class="cls-7" d="M1403.9,635.4c-7.3-13.11-14.64-26.19-22.11-39.25-21.07-36.98-42.79-73.8-65.28-110.52-2.06-3.38-4.15-6.74-6.23-10.09-12.77,6.22-26.89,11.52-39.29,18.07-11.3,5.98-22.16,12.2-32.27,18.83-.31-.44-.62-.88-.95-1.32,8.93-6.99,18.65-13.64,29.48-19.67,12.27-6.82,25.88-14.24,41.16-18.94-.28-.47-.57-.95-.88-1.43-15.21,3.53-29.81,8.02-43.01,13.62-8.18,3.46-15.88,7.3-23.15,11.38-3.29,1.86-6.21,4.4-9.98,5.89-1.14-1.64-2.27-3.31-3.41-5,2.56-2.01,5.97-3.83,8.39-5.43,7.39-4.88,15.35-9.55,24.03-13.67,13.2-6.26,27.32-11.09,43.43-12.67-6.59-10.41-13.41-20.73-20.69-30.91-14.6,1.46-29.45,2.21-43.93,4.02-13.86,1.75-27.61,4.11-40.69,7.32-.19-.5-.4-.96-.59-1.43,25.43-7.3,55.23-11.38,83.48-12.35-.07-.12-.17-.23-.24-.34-29.29-.07-58.86-.66-87.2,3.61-.21-.54-.45-1.06-.66-1.56,27.18-5.26,58.17-6.13,86.18-4.38-20.35-27.74-44.6-54.27-78.22-78.1-.14-.11.09-.25.26-.15,48.69,28.67,95.97,98.41,100.73,106.11,9.86-10.46,21.33-20.89,34.31-30.62,1.21,1.67,2.49,3.47,3.82,5.39-12.23,8.7-24.03,17.59-35.14,26.99-.43.36-1,.51-1.56.54,1.16,1.87,11.52,18.87,12.7,20.81,7.42,12.11,14.9,24.23,22.37,36.36,6.42-7.69,18.48-14.53,29.19-20.04,1.59-.81,3.2-1.63,4.83-2.41.38,1.38.76,2.81,1.14,4.27-1,.47-1.97.95-2.94,1.43-11.49,5.79-20.05,13-30.78,19.09,16.02,26.08,31.82,52.24,46.37,78.59,6.87,12.49,13.46,25.03,19.64,37.63.43.88-1.85,1.23-2.32.37Z"/>
              </g>
              <g>
                <path class="cls-12" d="M1326.07,559.9c3.11-3.91,4.98-8.49,2.25-12.5-2.73-4.01-11.51-6.74-17.93-4.58,6.17-2.22,12.5-4.54,16.75-7.96,4.24-3.43,5.92-8.28,2.12-11.88-3.8-3.6-14.06-4.59-18.34-1.18,5.3-2.9,10.7-5.87,14.03-9.63,3.34-3.76,4.27-8.52.52-12.14-3.65-3.53-11.27-5.31-18.3-4.83-7.03.48-13.37,2.96-17.72,6.21,5.51-6.82,10.27-13.99,11.31-21.51,1.03-7.51-2.04-15.48-10.63-21.12-8.58-5.65-23.24-8.4-35.17-5.46-13.75,3.39-20.14,13.14-18.64,21.78,1.5,8.64,9.15,16.46,16.63,23.97-5.27-6.21-21.91-6.84-30.5-2.04-8.59,4.8-9.49,12.96-4.82,19.33,4.68,6.37,13.88,11.24,23.52,15.3-9.05-5.15-24.57-5.56-34.93-1.34-10.36,4.23-15.04,12.43-11.99,19.57,3.05,7.14,63.4,36.26,63.4,36.26,0,0,59.64-15.2,68.44-26.26Z"/>
                <path class="cls-3" d="M1277.23,531.83c2.39-23.78.04-49.3-11.01-72.34-.05-.1-.28-.07-.27.03,1.63,11.86,6.15,23.57,7.89,35.46,1.79,12.21,1.97,24.5.61,36.72-2.69,24.09-12.3,47.21-24.84,70.15-.37.68,1.33,1.05,1.8.38,15.7-22.18,23.42-46.53,25.81-70.4Z"/>
              </g>
              <g>
                <path class="cls-21" d="M1080.52,454.46c-.63,31.91,31.86,114.07,167.69,121.51,0,0,11.16-43.61-51.5-75.35-45.53-23.06-54.3-23.07-54.3-23.07l-5.57,6.48-3.19-11.57s-31.41-13.3-53.13-18Z"/>
                <path class="cls-7" d="M1286.4,585.36c-27.66-7.25-51.28-16.97-72.7-28.46.01-.04.05-.07.06-.11,1.77-13.02,6.51-25.53,11.04-38.28.05-.14-.27-.18-.36-.06-8.3,11.62-12.1,24.15-14.1,36.64-.33-.18-.68-.36-1.01-.54,1.34-6.85,1.91-13.71,3.82-20.54,1.81-6.47,5.17-12.72,7.12-19.15.08-.28-.61-.51-.85-.21-8.73,11.12-13.35,25.65-13.08,38.21-9.45-5.37-18.49-11.08-27.28-17.1-1.04-.71-2.06-1.44-3.09-2.15,0,0,0,0,0,0,.73-13.83,3.64-27.43,5.65-41.19.04-.31-.78-.36-.91-.07-5.85,12.57-7.69,25.96-8.01,38.99-1.93-1.34-3.87-2.67-5.78-4.03,1.26-13.32,1.44-26.59,3.57-39.9.01-.08-.21-.1-.23-.02-3.31,12.63-5.99,25.66-5.34,38.48-3.66-2.61-7.27-5.24-10.85-7.88-.03-.26-.3-.49-.8-.6-21.3-15.78-41.09-32.25-57.91-49.78-.23-.24-.86-.03-.64.22,13.29,14.78,28.62,28.79,45.32,42.24-11.55-2.94-26.76-3.48-38.61-2.4-.33.03-.21.3.07.32,7.45.43,15.02.71,22.38,1.52,6.43.71,12.56,2.14,18.96,2.81,1.87,1.49,3.78,2.95,5.68,4.43-15.43-2.08-30.26-4.71-46.38-4.17-.12,0-.12.1,0,.11,16.77.41,32.71,3.73,48.89,6.02,8.64,6.61,17.59,13.1,26.78,19.48,5.92,4.11,11.97,8.11,18.19,11.96-6.6-.21-13.24.9-19.85,1.22-7.67.38-15.14.27-22.81.16-1.67-.02-2.32,1.36-.85,1.83,6.01,1.92,15.38,1.76,21.98,1.51,7.9-.3,17.35-.63,24.31-2.83.07-.02.13-.06.19-.09,24.59,14.9,52.06,27.42,86.14,35.18,1.74.4,3-1.32,1.28-1.77Z"/>
              </g>
              <g>
                <path class="cls-17" d="M1172.49,581.68c7.55-13.91,9.06-28.92,4.33-43.25-1.53-4.64-3.75-9.28-8.06-13.28-4.31-4-10.94-7.33-18.86-8.37-7.92-1.04-17.06.58-21.54,4.52-1.92-6.75-3.94-13.65-9.68-19.62-5.75-5.97-16.07-10.92-27.83-11.06-11.76-.14-23.61,5.97-21.96,12.75-1.71-5.23-8.47-10.05-17.43-11.14-10.43-1.27-21.32,2.87-25.67,8.52-4.35,5.65-3.09,12.34.98,18.06,4.08,5.72,10.72,10.68,17.28,15.56-6.5-4.19-18.71-4.24-26.45-.84-7.73,3.4-11.1,9.47-10.13,15.08.96,5.61,5.71,10.8,11.65,15.26,14,10.5,35.24,17.63,57.88,19.43,0,0,94.02-1.75,95.48-1.63Z"/>
                <path class="cls-7" d="M1181.49,588.25c-28.13-12.4-54.18-25.79-77.58-40.57,7.13-13.2,5.96-26.87,4.59-40.54-.02-.21-.56-.21-.56,0,.5,13.29.38,26.52-5.81,39.39-21.98-14.03-41.6-29.32-58.31-46.24-.36-.36-1.31-.04-.96.33,6.27,6.59,13.08,13.07,20.31,19.41-3.77-.65-7.73-.96-11.48-1.72-4.69-.95-9.29-2.12-13.66-3.5-.53-.17-.94.26-.47.46,3.72,1.58,7.55,2.97,11.83,3.97,2.22.52,4.47.96,6.77,1.34,2.21.36,5.74.4,7.53,1.25.5.24,1.11.15,1.39-.11,14.53,12.56,30.87,24.53,48.93,35.49-27.35.89-56.41-.54-80.05-9.01-.37-.13-.72.16-.45.34,9.43,6.05,24.18,8,37.53,9.33,14.82,1.47,30.28,2.13,45.17.67,19.47,11.64,40.85,22.13,64.04,30.91,1.33.5,2.41-.68,1.21-1.21Z"/>
              </g>
            </g>
            <g>
              <g>
                <path class="cls-14" d="M249.59,518.98c13.1-8.03,20.82-18.96,21.21-30.03.08-2.29-.17-4.67-1.93-6.72s-5.33-3.72-9.28-3.65c-3.34.06-6.32,1.35-8.22,2.95-1.9,1.6-2.89,3.49-3.85,5.35,2.41-5.88,3.08-12.01,1.98-18.02-.51-2.78-2.18-6.07-6.82-6.78-3.27-.5-6.76.6-8.78,2.18-2.02,1.58-2.88,3.54-3.69,5.45,15.59-27.96-11.87-36.67-18.24-18.19-5.38-7.75-9.97-34.04-33.73-27.84-23.76,6.21,4.12,28.44,10.57,34.52-5.46-2.7-23.17-10.75-29.32-5.56-8.93,7.54,12.27,18.41,29.09,26.55-6.74-1.78-13.8-3.6-21.2-3.42-7.4.17-15.18,3.01-16.16,7.28-.84,3.67,3.37,7.06,7.83,9.7,10.27,6.07,23.19,10.62,37.2,13.09-4.79-.13-9.76-.25-14.21.8-4.45,1.04-8.6,3.62-7.74,6.37,5.3,16.97,73.88,8.37,75.3,5.99Z"/>
                <path class="cls-3" d="M241.18,472.39c-2.92,8.1-7.04,16.09-9.95,24.19-4.21-5.76-8.47-11.51-12.76-17.25,1.81-8.18,1.71-16.58,1.76-24.81,0-.34-.9-.39-.92-.05-.41,7.69-1.7,15.35-2.2,23.03-12.2-16.31-24.56-32.58-36.42-48.96-.12-.16-.53-.04-.42.12,10.9,15.94,21.73,31.96,33.06,47.85-11.12-4.99-23.45-9.15-34.65-14.11-.18-.08-.36.08-.2.17,11.11,5.44,22.76,11.38,35.77,15.24,4.8,6.72,9.7,13.41,14.73,20.06-15.07-2.45-29.88-3.42-43.65-8.28-.32-.11-.64.16-.33.28,12.89,4.9,29.19,8.11,44.62,8.84,4.97,6.56,10.07,13.08,15.35,19.54.45.55,1.85.15,1.46-.41-4.67-6.71-9.46-13.39-14.32-20.06,5.15-8,7.53-16.98,9.29-25.39.02-.09-.2-.09-.23-.01Z"/>
              </g>
              <g>
                <path class="cls-19" d="M269.37,557.38c-63.99-13.52-247,14.27-247.66-19.01-.76-38.21,247.66,19.01,247.66,19.01Z"/>
                <path class="cls-7" d="M31.27,538.31c-.38-.01-.34.32.02.34,80.38,4.22,160.73,8,239.07,19.95.91.14,1.22-.67.33-.82-77.63-13.05-159.09-16.65-239.42-19.47Z"/>
              </g>
              <g>
                <path class="cls-5" d="M250.65,570.11c-43.91-29.46-224.24-56.57-197.39-85.38,30.83-33.08,197.39,85.38,197.39,85.38Z"/>
                <path class="cls-7" d="M61.54,487.34c-.31-.12-.56.18-.26.3,65.67,26.03,131.68,51.68,189.22,83.8.67.37,1.6-.24.96-.62-56.03-32.86-123.14-58.67-189.92-83.48Z"/>
              </g>
              <g>
                <path class="cls-20" d="M246.85,542.34c12.07-38.35-64.32-137.16-8.88-142.99,63.66-6.69,8.88,142.99,8.88,142.99Z"/>
                <path class="cls-7" d="M239.65,404.74c-.04-.21-.59-.14-.56.07,6.13,46.08,13,92.09,5.89,138.29-.08.54,1.32.58,1.43.05,9.05-45.98,1.71-92.58-6.76-138.41Z"/>
              </g>
              <g>
                <path class="cls-6" d="M379.86,575.48c.04-.14.09-.27.15-.41.21-.66.44-1.33.68-1.99,4.91-13.47,14.83-28.62,36.2-46.53l17.4,4.37-5.26-14.2s9.66-4.29,23.62-10.08c.45-.18.89-.36,1.33-.55,2.93-1.21,6.03-2.47,9.25-3.77,1.66-.67,3.35-1.35,5.07-2.03,16.63-6.61,35.85-13.77,51.97-18.51.29-.09.58-.17.85-.26.52-.15,1.02-.3,1.51-.44,3.59-1.06,6.74-2,9.53-2.85.57-.16,1.12-.33,1.64-.48,14.77-4.46,18.02-5.73,18.52-6.09l17.79,9.77-4.62-11.68s28.16-3.38,65.29-5.01c-.47,5.28-4.41,34.2-45.46,56.77l-16.51-4.5,7.63,7.93s-5.08,2.34-13.29,5.77c-1.68.7-3.5,1.46-5.44,2.24-15.52,6.32-38.5,14.96-60.35,20.47-1.34.34-2.74.68-4.19,1.03-1.48.35-3.02.71-4.59,1.07-40.14,9.17-108.72,19.96-108.72,19.96Z"/>
                <path class="cls-7" d="M340.24,587.28c13.52-4.71,27-9.43,40.45-14.19,38.07-13.46,75.88-27.15,113.45-41.1,3.46-1.28,6.89-2.57,10.31-3.85-8.83-3.89-16.85-8.42-26-12.12-8.35-3.37-16.9-6.53-25.8-9.36.45-.18.89-.36,1.33-.55,9.12,2.33,17.99,5,26.32,8.18,9.43,3.61,19.73,7.63,27.25,12.7.48-.18.98-.36,1.47-.54-6.2-5.21-13.39-10.04-21.59-14.19-5.08-2.57-10.51-4.9-16.14-7.03-2.57-.96-5.83-1.69-8.05-2.88,1.66-.67,3.35-1.35,5.07-2.03,2.62.66,5.16,1.68,7.3,2.35,6.54,2.06,12.94,4.37,18.82,7.02,8.94,4.04,16.44,8.65,20.6,14.49,10.62-4.04,21.1-8.15,31.37-12.41-3.81-5.29-6.85-10.78-11.04-15.97-4.02-4.97-8.7-9.8-14.23-14.25.52-.15,1.02-.3,1.51-.44,11.93,8.5,20.93,19.13,26.22,29.64.13-.05.24-.1.35-.14-4.29-11.05-8.04-22.29-17.03-32.34.57-.16,1.12-.33,1.64-.48,9.92,9.46,15.51,21.02,17.74,31.84,27.89-11.81,53.84-24.91,75.39-41.15.1-.07.29,0,.21.08-24.69,22.64-95.37,50.87-103.24,53.81,13.13,2.16,26.47,4.92,39.25,8.37-1.68.7-3.5,1.46-5.44,2.24-11.52-3.31-23.19-6.44-35.32-9.23-.46-.11-.72-.3-.83-.51-1.92.72-19.31,7.16-21.3,7.89-12.4,4.6-24.78,9.23-37.19,13.86,9.53,1.27,18.95,4.8,26.69,8.02,1.14.48,2.29.96,3.41,1.46-1.48.35-3.02.71-4.59,1.07-.67-.31-1.35-.6-2.04-.89-8.17-3.47-17.48-5.62-25.87-8.76-26.67,9.93-53.47,19.79-80.67,29.21-12.89,4.45-25.89,8.81-39.01,13.02-.92.29-1.64-.51-.76-.82Z"/>
              </g>
              <g>
                <path class="cls-2" d="M272.26,512.17c-2.09-3.84-5.76-7.69-11.98-9.46-6.22-1.77-15.25-.44-17.35,3.4,1.85-3.8,3.73-7.71,2.95-11.64-.78-3.92-4.88-7.89-11.4-8.98-6.52-1.09-14.68,1.98-13.95,5.91.52-3.94,1.03-7.98-.73-11.79s-6.27-7.45-12.78-8.58c-6.34-1.1-13.54.46-17.88,3.37-4.34,2.91-6.03,6.94-5.52,10.78-3.58-6.73-8.06-13.43-15.48-19-7.42-5.57-18.17-9.94-30.22-10.7-12.05-.76-25.16,2.71-30.21,9.11-5.82,7.38.31,16.46,10.71,21.88,10.4,5.42,24.14,8.02,37.45,10.47-10.37-2.36-22.54,3.3-23.28,9.76-.74,6.46,7.48,12.43,17.61,15.12,10.13,2.69,21.75,2.68,32.82,1.95-11.83-.24-23,5.16-25.58,11.87-2.58,6.72,3.07,14.1,12.91,17.92,9.85,3.82,83.07,1.82,83.07,1.82,0,0,24.74-32.35,18.84-43.22Z"/>
                <path class="cls-18" d="M208.11,510.68c-24.1-17.3-53.36-34.08-85.94-45.94-.14-.05-.28.05-.16.12,13.97,7.59,29.78,14.03,43.85,21.6,14.46,7.78,27.89,16.2,40.19,25.15,24.23,17.63,42.63,37.13,58.8,57.56.48.61,2.06.24,1.66-.4-13.17-21.08-34.21-40.73-58.4-58.09Z"/>
              </g>
              <g>
                <path class="cls-15" d="M393.93,567.57c6.8.77,14.37.74,20.01-1.6s7.96-7.58,3.16-10.49c4.85,2.76,9.87,5.59,16.16,7.07,6.29,1.48,14.25,1.28,19.02-1.53,4.77-2.81,4.03-8.44-2.25-9.95,5.7,2.15,11.55,4.34,18.16,5.27,6.61.93,14.25.36,19.07-2.43,4.7-2.71,5.78-7.13,3.47-10.74-2.31-3.61-7.6-6.4-13.64-7.98,11.88,1.39,24.13,2.31,36.09,1.18,11.96-1.13,23.7-4.52,30.61-10.32,6.91-5.79,7.94-14.15.69-19.79-8.36-6.51-25-7.71-38.15-4.99-13.16,2.72-23.65,8.5-33.72,14.12,8.53-4.16,5.8-13.09-3.61-16.56s-22.35-2.13-31.25,1.76c-8.91,3.89-14.45,9.83-18.65,15.83,6.02-5.93,3.21-14.21-5.69-18.75-8.91-4.53-22.75-5.18-33.22-1.97-10.47,3.2-42.49,41.56-42.49,41.56,0,0,37.01,28.11,56.24,30.3Z"/>
                <path class="cls-3" d="M426.88,535.52c37.65-4.03,76.97-10.96,110.48-21.92.14-.05.05-.17-.1-.14-18.15,3.5-35.43,8.5-53.59,12.06-18.66,3.66-37.8,6.5-57.19,8.5-38.21,3.95-76.45,4.02-115.04,2.5-1.15-.05-1.34.94-.2,1.04,38.12,3.35,77.85,2.01,115.65-2.04Z"/>
              </g>
              <g>
                <path class="cls-1" d="M493.85,422.73c-49.93,6.84-170.81,42.46-151.89,115.83,0,0,70.02-4.07,105.98-44.12,24.06-26.8,42.51-57.82,45.91-71.71Z"/>
                <path class="cls-7" d="M335.9,560.83c5.1-16.23,14.95-30.88,28.06-44.77.07,0,.12.01.19,0,20.72-1.99,41.29-2.3,62.21-2.78.23,0,.23-.18,0-.2-20-1.77-40.4-.96-60.34.79.21-.22.41-.44.62-.66,10.99-.83,21.83-2.07,32.91-2.6,10.5-.5,21.01-.13,31.48-.55.45-.02.65-.44.13-.49-19.31-2.11-43.02-1.28-62.55,1.68,6.26-6.19,13.13-12.25,20.55-18.24.88-.71,1.78-1.41,2.66-2.12,0,0,0,0,0,0,21.75-2.73,43.61-4.24,65.54-6.28.49-.05.39-.49-.09-.5-20.92-.26-42.24,1.78-62.63,4.54,1.66-1.32,3.3-2.64,4.98-3.96,21.06-2.33,41.81-5.22,63.05-7.08.12-.01.1-.13-.02-.13-20.44,1.09-41.39,2.61-61.24,5.83,3.24-2.52,6.54-5.01,9.86-7.5.4-.08.7-.27.75-.56,19.83-14.79,41.09-28.94,64.64-41.76.33-.18-.15-.46-.48-.29-20.07,10.34-38.48,21.58-55.72,33.42,1.99-6.76-.59-14.91-4.94-20.92-.12-.17-.52-.04-.48.11,1,4.03,2.27,8.09,2.67,12.15.34,3.55-.52,7.11-.13,10.64-1.9,1.32-3.76,2.66-5.63,3.99-.23-8.61.55-17.03-3.92-25.42-.03-.06-.19-.04-.17.02,3.13,8.94,1.53,18.1,1.59,27.16-8.38,6.05-16.49,12.23-24.38,18.52-5.08,4.05-9.96,8.14-14.57,12.29-1.16-3.53-4.38-6.79-6.37-10.2-2.32-3.96-3.82-7.93-5.38-12.01-.34-.88-2.65-.92-3.05-.04-1.65,3.61.71,8.52,2.58,11.94,2.24,4.1,4.88,9.02,9.89,12.19.05.03.12.05.18.08-17.72,16.33-31.08,33.64-35.52,53.37-.23,1.01,2.74,1.29,3.05.28Z"/>
              </g>
              <g>
                <path class="cls-23" d="M305.28,541.85c28.08-2.79,54.18-11.85,71.72-24.91,3.63-2.7,6.99-5.68,8.05-9.06,1.06-3.38-.65-7.24-5.49-9.21-4.1-1.67-9.65-1.69-14.39-.76s-8.85,2.68-12.87,4.4c11.95-5.79,22.2-12.77,30.15-20.55,3.67-3.59,6.74-8.4,2.28-11.68-3.14-2.31-9.03-2.81-13.88-1.97-4.85.83-8.91,2.74-12.83,4.6,10.59-7.54,19.56-15.84,26.66-24.65,2.51-3.12,4.82-6.69,2.82-9.93-1.98-3.22-10.26-7.48-23.29,3.28,5.51-12.09,9.31-24.44,11.36-36.89.88-5.37-.11-12.23-8.83-14.05-8.75-1.83-17.09,3.18-21.69,7.88-9.08,9.28-17.24,28.34-18.87,38.98-2.37-6.08-11.17-24.97-26.54-21.96-22.32,4.37-13.68,28.45-6.1,46.98-5.34-5.65-10.99-11.51-20.12-15.16-9.13-3.65-22.82-4.31-30.58.29-6.67,3.96-6.84,10.21-5.57,15.7,2.93,12.63,11.4,24.82,24.37,35.09-5.54-2.66-11.31-5.39-18.25-6.46-6.94-1.07-15.89-.15-19.09,3.59-19.81,23.09,75.6,48.56,80.96,46.46Z"/>
                <path class="cls-18" d="M367.03,481.66c-15.99,8.18-33.24,15.61-49.21,23.79,3.84-9.1,7.6-18.21,11.31-27.32,14.78-8.85,27.61-18.96,40.36-28.8.53-.41-.48-.94-1.04-.53-12.34,9-25.71,17.5-38.15,26.44,10.53-25.9,20.82-51.84,31.88-77.65.11-.25-.56-.33-.68-.08-11.53,24.78-23.25,49.62-34.18,74.56-5.63-11.78-13.98-23.2-19.74-34.98-.09-.19-.57-.09-.49.1,4.92,12.31,9.72,25.5,19.34,36.92-4.6,10.55-9.06,21.12-13.29,31.72-14.27-10.8-30.51-19.68-39.52-32.69-.21-.3-1.01-.14-.82.16,7.89,12.59,22.47,24.94,39.81,33.87-4.16,10.45-8.1,20.92-11.74,31.42-.31.9,1.98,1.15,2.38.28,4.76-10.47,9.32-20.97,13.77-31.5,18.5-6.89,35.21-16.41,50.27-25.57.16-.1-.1-.22-.26-.13Z"/>
              </g>
              <g>
                <path class="cls-16" d="M208.22,565.33c-7.06-13.01-8.47-27.04-4.05-40.43,1.43-4.34,3.51-8.67,7.54-12.42,4.03-3.74,10.23-6.86,17.63-7.83,7.4-.97,15.95.55,20.13,4.23,1.8-6.31,3.68-12.76,9.05-18.34,5.37-5.58,15.03-10.21,26.02-10.34,10.99-.13,22.07,5.59,20.53,11.92,1.6-4.89,7.92-9.39,16.29-10.41,9.75-1.18,19.93,2.68,24,7.97,4.07,5.29,2.89,11.54-.92,16.89-3.81,5.35-10.02,9.99-16.16,14.55,6.07-3.91,17.5-3.97,24.72-.78,7.23,3.18,10.37,8.85,9.48,14.1s-5.34,10.1-10.9,14.26c-13.09,9.82-32.95,16.49-54.11,18.17,0,0-87.9-1.64-89.27-1.52Z"/>
                <path class="cls-7" d="M199.8,571.47c26.3-11.6,50.65-24.11,72.53-37.93-6.66-12.34-5.58-25.12-4.29-37.9.02-.19.53-.2.52,0-.47,12.43-.36,24.79,5.43,36.83,20.55-13.12,38.9-27.41,54.52-43.23.33-.34,1.22-.04.9.3-5.86,6.16-12.23,12.22-18.99,18.15,3.53-.61,7.22-.89,10.74-1.61,4.39-.89,8.68-1.98,12.77-3.27.5-.16.88.25.44.43-3.48,1.48-7.05,2.78-11.06,3.71-2.07.48-4.18.9-6.33,1.25-2.06.34-5.36.37-7.04,1.17-.47.22-1.03.14-1.3-.1-13.58,11.74-28.86,22.93-45.75,33.18,25.57.84,52.74-.5,74.84-8.43.34-.12.68.15.42.32-8.82,5.66-22.61,7.48-35.08,8.72-13.85,1.38-28.31,1.99-42.23.63-18.2,10.88-38.19,20.69-59.88,28.9-1.24.47-2.26-.64-1.14-1.13Z"/>
              </g>
            </g>
          </g>
          <path class="cls-26" d="M874.93,314.42c-7.34-11.19-17.25-21.81-29.37-31.49-12.7-10.14-28.16-19.38-47.26-25.2-19.1-5.82-42.21-7.9-62.55-3.73-28.7,5.88-49.35,23.24-79.66,24.78-28.49,1.45-54.04-11.88-82.64-11.73-17.93.09-34.58,5.54-48.38,12.2-31.02,14.98-86.8,43.95-86.8,48.65s436.66,0,436.66,0v-13.47Z"/>
          <path class="cls-10" d="M967.41,338.63c-33.34-25.6-82.35-44.14-136.09-51.5-53.74-7.36-111.83-3.47-161.29,10.8-20.03,5.78-38.97,13.25-60.67,16.38-66.35,9.57-132.22-22.05-200.2-17.86-54.74,3.37-127.76,42.18-127.76,42.18h686.02Z"/>
          <ellipse class="cls-22" cx="683" cy="559.46" rx="853.88" ry="25.44"/>
        </g>
      </g>
    </g>
  </g>
</svg>