<?xml version="1.0" encoding="UTF-8"?>
<svg id="Layer_1" xmlns="http://www.w3.org/2000/svg" version="1.1" viewBox="0 0 128 128">
  <!-- Generator: Adobe Illustrator 30.1.0, SVG Export Plug-In . SVG Version: 2.1.1 Build 136)  -->
  <defs>
    <style>
      .st0 {
        fill: #fff;
      }

      .st1 {
        fill: #c99e4b;
      }
    </style>
  </defs>
  <path class="st0" d="M48.26,14.75c-5.58,5.94-8.55,13.17-9.42,21.13-.28,2.55-.25,4.98-.23,7.52.02,2.3.39,4.41.82,6.66,1.27,6.6,4.58,13.55,9.61,18.16,1.57,1.43,3.49,3,5.36,3.94l2.24,1.05c0,1.58-.06,2.17,0,3-2.31-.62-5.03-1.4-7.19-2.24-3.74-1.45-7.23-3.15-10.26-5.75-6.88-5.9-11.18-14.69-11.83-23.67-.45-6.14.09-11.47,2.3-17.19,1.76-4.55,4.36-8.5,7.81-11.95,4.48-4.46,9.12-7.14,15.18-9.11,4.41-1.43,10.17-1.74,14.82-1.44,4.94.31,9.56,1.37,14.04,3.53,7,3.36,12.77,9.02,16.06,16.03,3.47,7.4,4.19,15.54,2.63,23.48-1.07,5.5-3.2,10.55-6.72,14.88-2.06,2.53-4.22,4.64-6.89,6.54-4.4,3.11-11.32,6.01-16.63,6.89,0-.8-.03-1.5.02-2.19,3.17-1.62,8.25-4.02,10.76-6.53,6.74-6.74,8.9-14.94,8.99-24.25.06-6.11-1.18-12.35-3.86-17.83-2.28-4.66-4.61-8.01-8.58-11.41-5.1-4.37-11.32-6.64-18.08-5.22-4.21.88-7.94,2.78-10.97,6h0s0,0,0,0Z"/>
  <path class="st1" d="M82.37,38.61c-.68-2.37-2.88-5.52-5.24-6.48l-3.52-1.43-.05-.43c-.05-.42-.08-.84-.11-1.25-.07-.94-.14-1.82-.39-2.65-.89-2.89-3.25-5.28-6.33-6.39-3.06-1.11-6.28-.8-8.84.85-3.51,2.26-4.86,4.61-4.96,8.67-.02.8-.48,1.39-1.28,1.68-1.53.54-3.46,1.35-4.81,2.78-.41.44-.77.93-1.14,1.44-.25.35-.52.71-.8,1.06-.25.3-.37.75-.49,1.23-.08.3-.16.62-.28.93-.59,1.5-.68,3.14-.27,5.17.7,3.41,2.86,6.14,6.09,7.69,1.6.77,3.35,1.44,5.37,1.16l3.14-.43c.08-.01.16-.02.25-.02.35,0,.68.11.93.3.27.22.44.54.47.9.11,1.3.18,2.7-.06,4.03l-.08.46-2.17.58c-.22.06-.35.32-.4.47-.19.51-.12,1.22.15,1.62.24.34.71.53,1.2.74.13.05.25.11.38.16.55.25.97.85,1.01,1.47.03.51-.19.98-.62,1.24-.32.2-.65.31-.95.42-.37.13-.69.24-.86.46-.36.44-.41,1.28-.13,1.94.11.28.37.39.91.58.68.24,1.81.65,1.81,2.17v13.06s-.08,37.5-.08,37.5c0,.88.24,2.45,1.89,3.15.65.28,1.71.26,2.42-.04.53-.23,1.21-.89,1.42-1.39.08-.18.14-.38.19-.58.29-.23.49-.56.57-.94.13-.66.4-1.33.93-1.63.52-.3,1.18-.2,1.94.29h.01s.16.11.16.11l.02.98c.02.86.74,1.55,1.61,1.55h4.05c.83,0,1.5-.66,1.5-1.48v-3.56c0-.86-.71-1.56-1.57-1.56h-.04c-.9,0-1.63.72-1.63,1.6v.39c0,.66-.54,1.19-1.2,1.19s-1.2-.53-1.2-1.19v-.52c0-.81-.3-1.47-1.11-1.47h-.56c-.57.01-1.03-.44-1.03-1v-1.1c0-.55.44-.99.99-1.01l.88-.02c.66-.01.82-.55.82-1.2v-.44c0-.66.54-1.19,1.2-1.19s1.2.53,1.2,1.19v.02c0,.89.72,1.6,1.62,1.6s1.62-.72,1.62-1.6v-2.86c0-1.04-.86-1.89-1.91-1.89h-3.13c-.86,0-1.61.6-1.8,1.43,0,.02-.01.05-.02.08-.21.9-.75,1.51-1.39,1.57-.4.03-.75-.18-.92-.57-.11-.26-.21-.68-.28-1.12-.1-.63-.56-1.12-1.16-1.31l-.07-11.27-.02-24.83c0-1.52,1.11-1.84,1.76-2.03.66-.2,1.03-.3,1.13-1.17.03-.24.02-.47-.02-.68-.17-.82-.66-1.03-1.58-1.36-.23-.08-.47-.17-.71-.28-.3-.14-.52-.41-.58-.76-.11-.56.16-1.3.48-1.63.37-.39.85-.56,1.28-.71.76-.28,1.15-.42,1.15-1.41,0-.48-.12-.84-.38-1.11-.19-.2-.46-.23-.88-.25-.45-.02-1.49-.07-1.55-1.19-.01-.24-.03-.48-.05-.72-.08-1.11-.16-2.26.17-3.42.12-.41.57-1.04,2.24-.65,4.56,1.08,8.99-.38,11.84-3.91h0s0,0,0,0c2.14-2.65,2.82-6.3,1.83-9.77ZM78.19,44.47c-1.32,3.2-5.04,4.99-8.46,4.08-1.6-.42-2.81-1.11-4.03-2.29h.01s-2.46-2.37-2.46-2.37c-.24.13-.71.63-1.06,1.01-1.04,1.1-2.45,2.61-4.68,3.38-.98.34-1.89.51-2.76.51-1.22,0-2.35-.34-3.46-1.01-1.77-1.07-3.02-2.86-3.41-4.91-.39-1.98.07-4.01,1.26-5.58,1.66-2.2,4.44-3.21,7.09-2.6.41.1.84.27,1.26.43.52.21,1.48.58,1.67.38.17-.18.06-.43-.59-1.41-.7-1.05-1.65-2.49-1.75-4.54-.11-2.53,1.58-5.12,3.94-6.01,2.64-1.01,5.33-.38,7.19,1.68,1.58,1.74,2.02,4.14,1.17,6.41-.36.97-.83,1.74-1.2,2.35-.53.88-.72,1.25-.59,1.53.06,0,.17-.03.35-.12,2.01-1.03,4.35-1.18,6.41-.4,1.96.73,3.45,2.2,4.21,4.14.6,1.54.56,3.68-.12,5.32Z"/>
</svg>