<?xml version="1.0" encoding="utf-8"?>
<!-- Generator: Adobe Illustrator 25.3.0, SVG Export Plug-In . SVG Version: 6.00 Build 0)  -->
<svg version="1.1" id="Capa_1" xmlns="http://www.w3.org/2000/svg" xmlns:xlink="http://www.w3.org/1999/xlink" x="0px" y="0px"
	 viewBox="0 0 1034.16 800" style="enable-background:new 0 0 1034.16 800;" xml:space="preserve">
<style type="text/css">
	.st0{clip-path:url(#SVGID_2_);}
	.st1{fill:#3D340D;}
	.st2{fill:#C0DCF3;}
	.st3{fill:#004435;}
	.st4{fill:#106B66;}
	.st5{fill:#C99E4C;}
	.st6{fill:#F1D298;}
	.st7{fill:#FFFFFF;}
	.st8{clip-path:url(#SVGID_6_);}
	.st9{clip-path:url(#SVGID_10_);}
	.st10{clip-path:url(#SVGID_14_);}
	.st11{clip-path:url(#SVGID_18_);}
	.st12{clip-path:url(#SVGID_22_);}
	.st13{clip-path:url(#SVGID_26_);}
</style>
<g>
	<path class="st7" d="M590.7,480.6c-1.63-2.06-3.62-3.3-4.36-5.94l19.65-5.67c11.37-3.29,23.99-10.85,29.67-21.68
		c7.03-13.41,7.51-32.67-0.14-45.86c-6.92-11.96-19.75-18.79-33.51-20.24c-10.87-1.14-21.59-0.42-32.29,0.98
		c-0.67,1.32-0.79,2.74-0.79,4.23l-0.08,86.88l0.2,59.21c0.03,8.22,0.34,23.41,4.44,29.93c4.33,6.9,16.16,6.85,22.38,9.12
		c0.27,1.72-1.71,1.77-2.76,1.73l-6.6-0.24l-66.91-0.04c-3.62,0-7,0.79-10.45-0.08c-0.41-0.93,0.94-1.57,1.81-1.73
		c12.95-2.49,21.29-6.85,22.26-21.14c0.49-7.12,0.91-13.58,0.91-20.78l0.03-118.65l-0.79-16.59c-0.22-4.51-1.48-8.96-3.87-12.73
		c-4.94-7.8-22.84-8.19-22.79-9.79c0.01-0.54,0.31-1.22,1.32-1.21c22.68,0.38,44.91-0.3,67.61-1.28c9.66-0.42,18.58-0.24,28.13,0.07
		c19.9,0.66,43.04,4.51,58.13,18.22c8.22,7.47,13.21,16.32,14.4,27.44c2.46,22.9-7.26,39.52-27.03,50.86
		c-6.19,3.56-12.99,5.27-19.84,8.06c3.43,5.72,7.51,10.05,11.35,14.9l22.03,27.82c9.09,11.49,17.96,22.5,28.18,32.98l9.65,9.89
		c6.8,6.96,14.13,12.87,22.11,18.69c12.54,9.15,26.38,16.09,41.33,20.73c14.73,4.57,34.35,5.84,49.62,3.79
		c18.32-2.46,35.25-10.44,48.15-23.51c0.29-0.28,0.67-0.48,0.9-0.38c2.59,1.13-8.43,14.44-10.23,16.32
		c-5.82,6.03-12.77,10.01-20.1,13.88c-5.33,2.81-10.56,4.5-16.29,6.27c-13.83,4.29-27.47,5.91-42.03,5.71
		c-18.65-0.27-36.03-4.51-53.2-11.54c-12.92-5.28-24.29-12.28-35.69-20.19c-6.83-4.73-12.36-9.98-18.39-15.62
		c-14.17-13.22-20.13-21.09-32.08-35.81l-6.57-8.09l-20.57-27.28c-5.55-7.36-10.98-14.27-16.86-21.69L590.7,480.6z"/>
	<path class="st7" d="M333.79,392.56c-17.96,19.13-27.51,42.41-30.32,68.02c-0.9,8.21-0.8,16.04-0.73,24.21
		c0.05,7.41,1.25,14.21,2.65,21.44c4.1,21.25,14.74,43.63,30.94,58.45c5.04,4.61,11.22,9.66,17.24,12.67l7.22,3.37
		c0,5.08-0.19,6.98,0,9.66c-7.44-1.99-16.18-4.51-23.14-7.21c-12.04-4.68-23.28-10.14-33.03-18.5
		c-22.16-18.98-35.99-47.3-38.08-76.2c-1.44-19.75,0.3-36.93,7.41-55.34c5.66-14.65,14.02-27.36,25.15-38.46
		c14.43-14.37,29.36-23,48.87-29.32c14.21-4.61,32.75-5.59,47.7-4.65c15.89,0.99,30.78,4.42,45.21,11.36
		c22.52,10.83,41.1,29.03,51.69,51.61c11.17,23.83,13.48,50.01,8.48,75.59c-3.46,17.69-10.29,33.96-21.62,47.89
		c-6.62,8.14-13.57,14.95-22.18,21.04c-14.16,10.02-36.45,19.34-53.54,22.18c0-2.58-0.09-4.84,0.07-7.05
		c10.21-5.2,26.56-12.95,34.64-21.02c21.71-21.69,28.65-48.09,28.94-78.07c0.19-19.68-3.8-39.76-12.43-57.41
		c-7.34-15-14.83-25.78-27.62-36.74c-16.41-14.06-36.43-21.37-58.2-16.82c-13.54,2.83-25.57,8.95-35.31,19.32V392.56z"/>
	<path class="st7" d="M322.47,650c-51.02-15.34-100.8-25.59-154.43-22.66l-22.66,1.24c-1.05,0.05-1.91-0.89-2.09-1.56
		c-0.83-3.04,20.89-1.93,36.82-14.16c9.57-7.33,11.01-22.18,11.9-33.25c1.52-18.47,1.6-36.32,1.57-54.99l-0.18-107.4l-0.68-22.45
		c-0.24-8.27-0.96-16.33-4-23.94c-4.44-11.1-17.72-13.47-28.61-14.45c-1.13-0.11-1.55-0.79-1.47-1.59c0.15-1.29,0.81-1.17,2.09-1.16
		l43.2,0.51c7.75,0.09,14.94-0.2,22.62-0.34l30.51-0.54c0.86-0.01,1.33,0.42,1.49,0.78c0.27,0.58-0.14,1.71-1.06,1.69
		c-5.84-0.05-10.99,1.99-16,4.7c-4.18,2.26-6.94,5.53-7.74,10.34c-0.92,5.55-1.52,10.91-1.52,16.87l-0.09,105.61l0.34,101.39
		l-0.37,12.17c45.14-0.13,85.77,12.24,128.67,23.78l-0.05,33.29l-8.44-2.75c-9.38-3.53-20.13-8.21-29.83-11.14V650z"/>
	<path class="st7" d="M550.71,186.19c-3.34-9.15-10.63-15.31-19.2-18.98c-10.87-4.65-26.53-4.81-38.2-3.22
		c-2.05,0.28-3.95-0.21-6.11,1.05v121.53c0,6.62,0.65,12.41,1.03,18.82c0.35,5.98,3.5,11.27,8.97,13.7
		c6.99,3.1,15.16,2.15,13.04,4.97l-37.06-0.19l-37.15,0.28c-0.27-0.74-0.26-1.01-0.09-1.2c0.35-0.44,1.05-0.56,1.66-0.73
		c13.06-3.47,18.31-6.89,18.7-21.64l0.48-18.22l0.11-65.16c0.03-16.17,0-31.69-1.37-47.63c-1.22-14.19-21.5-12.68-21.71-14.31
		c-0.09-0.78,0.48-1.38,1.55-1.38l40.27-0.42l20.81-0.38c20.21-0.36,31.93-0.7,51.86,3.82c10.18,2.31,18.88,7.2,26.28,14.36
		c6.51,6.3,9.84,14.1,10.74,22.98c1.34,13.47-2.93,25.6-12.72,35.11c-5.28,5.13-11.63,8.92-18.84,11.27l-11.16,3.64
		c1.89,4.57,4.8,7.7,7.63,11.5c12.31,16.56,24.63,32.79,38.99,47.73c12.65,13.15,27.54,23.49,44.72,29.54
		c6.46,2.27,13.06,3.06,19.65,3.13c2.39,0.03,4.49-1.33,6.99-0.09c-2.69,3.01-6.18,4.94-10.37,6.13
		c-23.51,6.65-45.93,3.3-67.22-8.46c-31.57-17.45-54-61.66-79.16-87.37c1.52-0.98,3.58-1.46,5.75-1.98
		c6.8-1.63,13.03-3.52,19.67-6.06c21.44-8.21,29.19-31.03,21.51-52.09L550.71,186.19z"/>
	<path class="st7" d="M257.99,216.64l-36.11-0.08c-1.22,23.29,1.3,43.44,11.7,64.77c3.28,5.43,6.61,10.65,11.41,14.83
		c5.36,4.66,10.64,9.14,17.22,12.14c28.57,13.04,62.92,5.9,81.05-20.39c1.81-2.62,2.44-5.49,5.12-7.97
		c0.03,5.36-1.85,9.91-3.96,14.78c-5.67,13.04-15.34,23.88-28.43,30.05c-25.65,12.08-61.24,9.71-85.6-3.95
		c-18.1-10.14-31.79-25.34-39.71-44.46c-6.57-15.84-8.79-32.43-8.86-49.5c-0.05-13.2,1.87-25.2,5.51-37.83
		c6.75-23.44,20.36-43.95,40.62-58.03c7.7-5.35,15.85-9.11,24.7-12.3c8.85-3.2,18.63-4.38,28.42-6.02
		c8.69,0.22,17.21-0.58,25.87,0.26c10.91,1.05,21.36,1.99,32.87,2.2l-3.5,31.9c-0.35,3.26-1.15,6.15-1.26,8.96
		c-1.78-0.48-2.66-1.14-2.97-2.7c-3.66-18.09-17.59-30.02-36.44-31.43c-11.52-0.86-22.43,2.42-32.37,8.32
		c-10.82,6.39-18.72,16.11-24.88,26.89c-7.44,13.03-14.44,31.59-15.32,46.68l65,0.03c11.24,0,22.28,1.36,32.95-1.73l12.26-3.55
		l-18,44.29l-3.24-10.46c-3.46-11.19-22.09-14.49-32.38-14.98l-21.65-0.74V216.64z"/>
	<path class="st7" d="M812.1,438.73c4.57-2.98,7.76-7.72,9.68-12.51c7.83-19.67-0.84-46.1-23.3-49.66
		c-10.64-1.68-20.95,0.3-29.8,6.18c-8.09,6.03-14.7,13.22-19.18,22.29c-6.54,13.24-10.12,27.35-10.44,42.34l50.11-0.28
		C797.5,447.03,805.04,443.32,812.1,438.73z M826.35,541.61c14.51-0.73,37.19-8.41,46.86-17.26l17.68-16.19
		c-0.41,5.09-3.2,9.32-6.04,13.35c-19.52,27.79-57.61,38.53-90.69,36.95c-17.29-0.82-34.15-5.75-49.09-14.13
		c-27.84-15.61-43.24-43.43-44.5-74.75c-0.86-21.3,2.17-40.68,12.89-59.21c4.66-8.05,10.26-14.43,17.13-20.59
		c17.45-15.68,40-23.35,63.62-23.04c21.63,0.28,44.35,5.39,57.54,23.68c6.23,8.64,8.05,19.28,6.57,29.82
		c-1.18,8.41-5.04,15.25-10.76,21.3c-9.77,10.34-25.54,14.33-39.45,15.66c-8.13,0.78-15.92,0.48-24.08,0.54l-45.06,0.32
		c0.03,10.69,1.68,20.71,4.67,30.61c11.05,36.56,44.68,54.85,82.69,52.95V541.61z"/>
	<path class="st7" d="M707.5,217.57c13.99-7.98,15.57-27.46,10.48-40.69c-5.62-14.64-21-19.01-35.08-15.66
		c-6.72,1.6-12,5.32-17.26,9.62c-13.91,12.61-19.83,33.68-20.98,52.36l45.75-0.12c5.96-0.01,11.89-2.54,17.09-5.51H707.5z
		 M709.97,308.13c27.17,1.77,53-10.03,70.11-31.12c0.52,4.28-1.44,7.39-3.53,10.46c-9.35,13.8-22.96,23.82-39.06,29.3
		c-29.53,10.05-66.75,8.48-92.89-9.54c-8.09-5.57-14.68-11.82-19.92-20.05c-3.69-5.82-6.98-11.41-9.15-18.04
		c-4.22-12.95-5.77-26.03-4.63-39.65c1.23-14.74,4.94-28.93,12.84-41.48c11.98-19.03,30.92-31.31,53.03-35.62
		c8.31-1.63,16.27-1.52,24.73-1.17c6.84,0.28,13.12,1.67,19.58,3.77c9.38,3.08,17.24,8.18,23.6,15.84
		c4.06,4.9,5.82,11.08,6.45,17.49c2.13,22.14-10.93,37.18-31.96,42.56c-9.62,2.79-19.23,3.24-29.34,3.3l-45.19,0.3
		c0.19,20.7,8.16,43.78,23.76,57.14c11.6,10.33,26.07,15.53,41.57,16.54V308.13z"/>
	<path class="st7" d="M403.78,669.96c-0.16-4.92-0.15-27.32,0-29.86c0.03-0.36,0.98-0.38,1.59-0.19l47.31,18.2l52.25,16.47
		l23.71,6.31c41.61,11.08,86.67,16.56,129.62,10.81c24.02-3.21,46.58-10.97,67.02-23.74c12.87-8.03,27.48-21.09,34.96-34.5
		l24.96,0.13c-0.35,6.06-14.17,20.01-18.85,24.26c-17.78,16.15-38.5,28.41-61.1,37.2c-47.6,18.48-99.83,21.99-150.39,14.45
		c-27.1-4.04-53.26-10.21-79.73-17.13c-12.16-3.18-23.72-5.67-35.6-9.58l-35.73-12.84L403.78,669.96z"/>
	<path class="st7" d="M359.37,324.05c-1,0-1.52-0.3-1.78-0.63c-0.26-0.35-0.49-1.44,0.16-1.73l6.61-3.01
		c8.89-4.04,8.75-20.07,8.88-29.03l0.43-32.02l-0.22-47.08c-0.05-12.13,0.04-23.59-0.83-35.69c-0.33-4.49-0.91-9.66-4.29-12.83
		c-6.41-6.02-18-5.55-18.21-6.8c-0.19-1.13,0.42-1.46,1.62-1.46l43.25,0.27l25.42-0.32c2.1-0.03,4.25-1.29,6.23,0.74
		c-6.83,2.57-15.01,2.2-19.42,9.05c-2.67,4.15-3.03,18.99-3.03,24.73l-0.14,92.28l0.39,22.45c0.41,23.02,22.12,16.05,21.67,20.79
		c-0.07,0.64-0.8,0.35-1.52,0.34l-35.08-0.43l-30.18,0.39H359.37z"/>
	<path class="st5" d="M389.94,494.02l-7.91-7.63c-0.76,0.42-2.28,2.03-3.41,3.24c-3.34,3.55-7.9,8.41-15.05,10.89
		c-3.14,1.09-6.08,1.64-8.88,1.64c-3.92,0-7.57-1.08-11.14-3.24c-5.71-3.45-9.72-9.2-10.99-15.8c-1.24-6.37,0.24-12.9,4.06-17.95
		c5.35-7.07,14.3-10.34,22.83-8.36c1.32,0.31,2.71,0.86,4.06,1.4c1.66,0.66,4.75,1.88,5.37,1.22c0.54-0.58,0.2-1.38-1.9-4.55
		c-2.25-3.38-5.32-8.02-5.62-14.6c-0.35-8.15,5.09-16.47,12.68-19.36c8.51-3.24,17.15-1.21,23.14,5.41
		c5.09,5.61,6.49,13.34,3.76,20.63c-1.17,3.13-2.66,5.6-3.85,7.58c-1.7,2.82-2.33,4.03-1.91,4.92c0.18-0.01,0.56-0.09,1.14-0.39
		c6.46-3.32,13.99-3.79,20.64-1.29c6.3,2.35,11.12,7.09,13.54,13.33c1.94,4.97,1.79,11.85-0.38,17.13
		c-4.25,10.29-16.22,16.07-27.25,13.15c-5.16-1.36-9.04-3.56-12.97-7.36L389.94,494.02z M437.71,500.83
		c6.88-8.52,9.08-20.27,5.88-31.45c-2.18-7.63-9.26-17.77-16.86-20.86l-11.32-4.61l-0.16-1.38c-0.16-1.36-0.26-2.71-0.37-4.03
		c-0.23-3.01-0.45-5.87-1.26-8.54c-2.85-9.31-10.46-17.01-20.37-20.58c-9.85-3.56-20.22-2.57-28.46,2.73
		c-11.31,7.27-15.63,14.83-15.97,27.9c-0.07,2.57-1.53,4.47-4.11,5.4c-4.93,1.75-11.14,4.35-15.47,8.96
		c-1.33,1.42-2.47,2.98-3.66,4.63c-0.81,1.13-1.66,2.28-2.58,3.41c-0.8,0.98-1.18,2.43-1.57,3.96c-0.26,0.98-0.52,1.99-0.91,2.98
		c-1.91,4.82-2.19,10.1-0.86,16.63c2.25,10.98,9.22,19.77,19.61,24.76c5.14,2.47,10.79,4.62,17.3,3.73l10.12-1.38
		c0.27-0.04,0.53-0.05,0.79-0.05c1.13,0,2.19,0.34,2.99,0.97c0.88,0.7,1.43,1.73,1.52,2.91c0.35,4.2,0.57,8.69-0.18,12.96
		l-0.26,1.48l-6.98,1.88c-0.72,0.19-1.13,1.02-1.3,1.5c-0.61,1.64-0.39,3.92,0.49,5.2c0.76,1.09,2.27,1.72,3.85,2.38
		c0.41,0.17,0.81,0.34,1.21,0.51c1.78,0.79,3.11,2.74,3.24,4.74c0.11,1.65-0.62,3.14-1.98,3.98c-1.02,0.63-2.1,1.01-3.07,1.36
		c-1.19,0.42-2.23,0.78-2.78,1.48c-1.15,1.41-1.33,4.11-0.43,6.26c0.37,0.89,1.18,1.25,2.93,1.88c2.19,0.78,5.84,2.08,5.84,6.98
		l-0.03,42.05l-0.23,120.72c0,2.82,0.77,7.89,6.07,10.14c2.1,0.9,5.52,0.85,7.78-0.13c1.71-0.74,3.88-2.88,4.57-4.49
		c1.26-2.97,1.29-6.61,1.32-10.46c0-0.95,0-1.91,0.04-2.85c0.05-1.91,0.07-4.47,0.05-7.63l-0.41-67.57l-0.05-79.93
		c0-4.88,3.56-5.91,5.67-6.53c2.14-0.63,3.33-0.97,3.65-3.76c0.09-0.78,0.07-1.52-0.08-2.2c-0.56-2.63-2.13-3.32-5.1-4.39
		c-0.75-0.27-1.51-0.55-2.27-0.89c-0.98-0.44-1.66-1.33-1.87-2.46c-0.35-1.81,0.5-4.18,1.53-5.25c1.18-1.24,2.74-1.8,4.11-2.3
		c2.46-0.89,3.69-1.34,3.69-4.53c0-1.56-0.39-2.69-1.22-3.57c-0.6-0.64-1.47-0.74-2.82-0.81c-1.44-0.07-4.79-0.24-4.98-3.84
		c-0.04-0.77-0.1-1.55-0.15-2.32c-0.26-3.57-0.52-7.27,0.56-11c0.38-1.33,1.82-3.36,7.21-2.08c14.68,3.49,28.94-1.21,38.11-12.59
		V500.83z"/>
	<path class="st7" d="M246.58,100.73c0,0,8.77-20.66,50.09-4.96c0,0,30.89,8.68,34.23-10.75c0,0,5.01-14.45-9.6-28.09
		c0,0-3.76,26.44-30.47,24.78c0,0-45.91-8.68-44.24,19.01H246.58z"/>
	<path class="st5" d="M402.44,728.6l0.52,0.34l0.08,3.16c0.07,2.78,2.37,5,5.18,5h13.04c2.66,0,4.83-2.14,4.83-4.78v-11.47
		c0-2.77-2.27-5.01-5.06-5.01h-0.14c-2.9,0-5.24,2.31-5.24,5.16v1.26c0,2.11-1.74,3.83-3.87,3.83c-2.13,0-3.87-1.72-3.87-3.83v-1.69
		c0-2.61-0.95-4.73-3.58-4.73l-1.8,0.03c-1.82,0.01-3.3-1.44-3.3-3.24v-3.53c0-1.76,1.43-3.2,3.2-3.24l2.82-0.07
		c2.13-0.04,2.65-1.76,2.65-3.87v-1.41c0-2.11,1.74-3.83,3.87-3.83c2.13,0,3.87,1.72,3.87,3.83v0.05c0,2.85,2.33,5.16,5.21,5.16
		c2.88,0,5.21-2.31,5.21-5.16c0-2.85,0-6.27,0-9.2c0-3.36-2.76-6.08-6.15-6.08h-10.08c-2.78,0-5.17,1.92-5.78,4.61
		c-0.01,0.08-0.04,0.17-0.05,0.27c-0.67,2.89-2.42,4.86-4.47,5.04c-1.29,0.09-2.43-0.59-2.96-1.84c-0.35-0.85-0.67-2.19-0.9-3.6
		c-0.43-2.58-2.7-4.47-5.35-4.47l-6.34,0.36l0.73,51.18l3.37,0.26c2.5,0,4.6-1.77,5.09-4.19c0.42-2.12,1.29-4.27,3-5.25
		c1.68-0.97,3.79-0.65,6.23,0.94L402.44,728.6z"/>
</g>
</svg>
