<?xml version="1.0" encoding="utf-8"?>
<!-- Generator: Adobe Illustrator 25.3.0, SVG Export Plug-In . SVG Version: 6.00 Build 0)  -->
<svg version="1.1" id="Capa_1" xmlns="http://www.w3.org/2000/svg" xmlns:xlink="http://www.w3.org/1999/xlink" x="0px" y="0px"
	 viewBox="0 0 528.51 700" style="enable-background:new 0 0 528.51 700;" xml:space="preserve">
<style type="text/css">
	.st0{clip-path:url(#SVGID_2_);}
	.st1{fill:#3D340D;}
	.st2{fill:#C0DCF3;}
	.st3{fill:#004435;}
	.st4{fill:#106B66;}
	.st5{fill:#C99E4C;}
	.st6{fill:#F1D298;}
	.st7{fill:#FFFFFF;}
	.st8{clip-path:url(#SVGID_6_);}
	.st9{clip-path:url(#SVGID_10_);}
	.st10{clip-path:url(#SVGID_14_);}
	.st11{clip-path:url(#SVGID_18_);}
	.st12{clip-path:url(#SVGID_22_);}
	.st13{clip-path:url(#SVGID_26_);}
</style>
<g>
	<path class="st7" d="M187.15,109.45c-27.14,28.91-41.58,64.1-45.83,102.81c-1.35,12.41-1.21,24.24-1.11,36.59
		c0.08,11.21,1.89,21.48,4,32.4c6.19,32.12,22.28,65.94,46.77,88.34c7.61,6.96,16.96,14.6,26.05,19.15l10.91,5.1
		c0,7.68-0.29,10.56,0,14.6c-11.24-3-24.45-6.82-34.97-10.9c-18.19-7.07-35.18-15.33-49.93-27.96
		c-33.5-28.69-54.4-71.49-57.56-115.18c-2.17-29.85,0.45-55.81,11.2-83.65c8.55-22.15,21.19-41.36,38.01-58.13
		c21.81-21.72,44.37-34.76,73.87-44.32c21.48-6.96,49.5-8.45,72.1-7.03c24.02,1.5,46.52,6.68,68.33,17.18
		c34.03,16.36,62.11,43.87,78.13,78c16.88,36.02,20.37,75.59,12.82,114.24c-5.23,26.74-15.55,51.33-32.68,72.38
		c-10.01,12.3-20.51,22.6-33.52,31.79c-21.39,15.15-55.1,29.24-80.92,33.52c0-3.9-0.14-7.31,0.1-10.66
		c15.43-7.86,40.14-19.57,52.35-31.77c32.82-32.79,43.3-72.68,43.73-118c0.29-29.74-5.74-60.1-18.79-86.78
		c-11.1-22.68-22.42-38.96-41.74-55.53c-24.8-21.26-55.06-32.3-87.96-25.42c-20.47,4.28-38.65,13.52-53.37,29.19V109.45z"/>
	<g>
		<path class="st5" d="M272.01,262.81l-11.96-11.53c-1.15,0.63-3.45,3.07-5.15,4.89c-5.05,5.36-11.94,12.71-22.75,16.47
			c-4.74,1.64-9.19,2.48-13.42,2.48c-5.93,0-11.45-1.62-16.84-4.89c-8.64-5.22-14.69-13.91-16.62-23.88
			c-1.87-9.62,0.37-19.49,6.13-27.12c8.08-10.68,21.62-15.63,34.5-12.63c1.99,0.47,4.1,1.3,6.13,2.11c2.5,1,7.18,2.84,8.12,1.85
			c0.82-0.87,0.31-2.09-2.87-6.88c-3.41-5.12-8.04-12.12-8.49-22.07c-0.53-12.32,7.69-24.89,19.16-29.26
			c12.86-4.89,25.93-1.83,34.97,8.18c7.69,8.49,9.81,20.16,5.68,31.19c-1.76,4.73-4.02,8.47-5.83,11.45
			c-2.56,4.26-3.53,6.09-2.89,7.43c0.27-0.02,0.84-0.14,1.72-0.59c9.76-5.01,21.15-5.73,31.2-1.95c9.52,3.55,16.8,10.72,20.47,20.14
			c2.93,7.51,2.71,17.91-0.57,25.89c-6.42,15.55-24.51,24.28-41.19,19.88c-7.79-2.05-13.66-5.38-19.61-11.13L272.01,262.81z
			 M344.21,273.1c10.4-12.87,13.72-30.64,8.88-47.53c-3.3-11.53-13.99-26.86-25.48-31.53l-17.11-6.96l-0.25-2.09
			c-0.25-2.05-0.39-4.1-0.55-6.09c-0.35-4.55-0.68-8.87-1.91-12.91c-4.31-14.07-15.82-25.7-30.79-31.1
			C262.12,129.49,246.45,131,234,139c-17.09,10.98-23.63,22.41-24.14,42.17c-0.1,3.88-2.32,6.76-6.22,8.16
			c-7.45,2.64-16.84,6.58-23.38,13.54c-2.01,2.15-3.73,4.51-5.54,7c-1.23,1.71-2.5,3.45-3.9,5.16c-1.21,1.48-1.78,3.68-2.38,5.99
			c-0.39,1.48-0.78,3-1.37,4.51c-2.89,7.29-3.3,15.27-1.29,25.14c3.41,16.59,13.93,29.89,29.64,37.42
			c7.77,3.74,16.31,6.98,26.15,5.64l15.3-2.09c0.41-0.06,0.8-0.08,1.19-0.08c1.7,0,3.3,0.51,4.51,1.46c1.33,1.05,2.15,2.62,2.3,4.4
			c0.53,6.35,0.86,13.14-0.27,19.59l-0.39,2.23l-10.54,2.84c-1.09,0.28-1.7,1.54-1.97,2.27c-0.92,2.48-0.59,5.93,0.74,7.86
			c1.15,1.65,3.43,2.6,5.83,3.59c0.62,0.26,1.23,0.51,1.83,0.77c2.69,1.2,4.7,4.14,4.9,7.17c0.16,2.5-0.94,4.75-2.99,6.01
			c-1.54,0.95-3.18,1.52-4.64,2.05c-1.81,0.63-3.36,1.18-4.2,2.23c-1.74,2.13-2.01,6.21-0.66,9.46c0.55,1.34,1.78,1.89,4.43,2.84
			c3.3,1.18,8.82,3.15,8.82,10.56l-0.04,63.55l-0.35,182.46c0,4.26,1.17,11.92,9.17,15.33c3.18,1.36,8.35,1.28,11.75-0.2
			c2.58-1.12,5.87-4.35,6.91-6.78c1.91-4.49,1.95-9.99,1.99-15.82c0-1.44,0-2.88,0.06-4.3c0.08-2.88,0.1-6.76,0.08-11.53
			l-0.62-102.12l-0.08-120.8c0-7.37,5.37-8.93,8.57-9.87c3.24-0.95,5.03-1.46,5.52-5.68c0.14-1.18,0.1-2.29-0.12-3.33
			c-0.84-3.98-3.22-5.01-7.71-6.64c-1.13-0.41-2.28-0.83-3.43-1.34c-1.48-0.67-2.5-2.01-2.83-3.72c-0.53-2.74,0.76-6.31,2.32-7.94
			c1.78-1.87,4.14-2.72,6.22-3.47c3.71-1.34,5.58-2.03,5.58-6.84c0-2.35-0.59-4.06-1.85-5.4c-0.9-0.97-2.22-1.12-4.27-1.22
			c-2.17-0.1-7.24-0.37-7.53-5.81c-0.06-1.16-0.14-2.34-0.23-3.51c-0.39-5.4-0.78-10.98,0.84-16.63c0.57-2.01,2.75-5.08,10.89-3.15
			c22.19,5.28,43.73-1.83,57.6-19.02V273.1z"/>
		<path class="st5" d="M290.9,617.35l0.78,0.51l0.12,4.77c0.1,4.2,3.59,7.55,7.84,7.55h19.71c4.02,0,7.3-3.23,7.3-7.23v-17.34
			c0-4.18-3.43-7.57-7.65-7.57h-0.21c-4.39,0-7.92,3.49-7.92,7.8v1.91c0,3.19-2.63,5.79-5.85,5.79c-3.22,0-5.85-2.6-5.85-5.79v-2.56
			c0-3.94-1.44-7.15-5.42-7.15l-2.73,0.04c-2.75,0.02-4.98-2.17-4.98-4.89v-5.34c0-2.66,2.15-4.83,4.84-4.89l4.27-0.1
			c3.22-0.06,4-2.66,4-5.85v-2.13c0-3.19,2.63-5.79,5.85-5.79c3.22,0,5.85,2.6,5.85,5.79v0.08c0,4.3,3.53,7.8,7.88,7.8
			c4.35,0,7.88-3.49,7.88-7.8c0-4.3,0-9.48,0-13.91c0-5.08-4.16-9.2-9.29-9.2h-15.24c-4.21,0-7.82,2.9-8.74,6.96
			c-0.02,0.12-0.06,0.26-0.08,0.41c-1.01,4.37-3.65,7.35-6.75,7.61c-1.95,0.14-3.67-0.89-4.47-2.78c-0.53-1.28-1.01-3.31-1.35-5.44
			c-0.66-3.9-4.08-6.76-8.08-6.76l-9.58,0.55l1.11,77.35l5.09,0.39c3.77,0,6.95-2.68,7.69-6.33c0.64-3.21,1.95-6.46,4.53-7.94
			c2.54-1.46,5.72-0.97,9.42,1.42L290.9,617.35z"/>
	</g>
</g>
</svg>
