<?xml version="1.0" encoding="UTF-8"?>
<svg id="Capa_1" xmlns="http://www.w3.org/2000/svg" version="1.1" viewBox="0 0 1034.16 380">
  <!-- Generator: Adobe Illustrator 30.1.0, SVG Export Plug-In . SVG Version: 2.1.1 Build 136)  -->
  <defs>
    <style>
      .st0 {
        fill: #c99e4c;
      }

      .st1 {
        fill: #fff;
      }
    </style>
  </defs>
  <g>
    <path class="st1" d="M334.96,143.73c-2.37-6.91-7.55-11.58-13.64-14.35-7.71-3.51-18.85-3.64-27.13-2.43-1.45.21-2.81-.17-4.34.79v91.89c0,5.01.47,9.39.73,14.23.25,4.51,2.49,8.51,6.37,10.37,4.97,2.34,10.76,1.63,9.26,3.76l-26.32-.14-26.38.21c-.19-.56-.19-.77-.06-.9.25-.33.74-.42,1.18-.56,9.27-2.62,13.01-5.21,13.28-16.36l.33-13.78.08-49.26c.03-12.23,0-23.96-.98-36.02-.86-10.73-15.27-9.58-15.42-10.82-.06-.59.33-1.04,1.1-1.04l28.6-.32,14.78-.29c14.35-.27,22.68-.53,36.83,2.88,7.23,1.75,13.41,5.45,18.67,10.86,4.63,4.77,6.99,10.67,7.62,17.37.95,10.19-2.08,19.36-9.03,26.54-3.75,3.88-8.25,6.75-13.39,8.51l-7.92,2.75c1.34,3.45,3.41,5.82,5.42,8.69,8.74,12.52,17.49,24.79,27.69,36.09,8.98,9.95,19.56,17.76,31.77,22.33,4.59,1.72,9.27,2.31,13.95,2.37,1.69.03,3.18-1,4.97-.06-1.9,2.27-4.39,3.74-7.36,4.63-16.69,5.03-32.61,2.49-47.73-6.4-22.41-13.2-38.35-46.62-56.21-66.05,1.08-.74,2.55-1.1,4.09-1.49,4.83-1.23,9.26-2.66,13.97-4.57,15.23-6.21,20.72-23.45,15.28-39.39l-.04-.04h-.04Z"/>
    <path class="st1" d="M127.09,166.75l-25.64-.06c-.86,17.61.93,32.84,8.3,48.97,2.34,4.1,4.69,8.06,8.1,11.21,3.8,3.53,7.55,6.91,12.23,9.18,20.28,9.86,44.68,4.47,57.56-15.42,1.28-1.98,1.73-4.15,3.64-6.02.03,4.05-1.31,7.49-2.81,11.18-4.03,9.86-10.89,18.05-20.18,22.71-18.21,9.13-43.49,7.34-60.79-2.99-12.86-7.67-22.58-19.15-28.2-33.62-4.66-11.98-6.25-24.52-6.29-37.43-.04-9.99,1.33-19.06,3.91-28.6,4.79-17.73,14.46-33.23,28.85-43.88,5.47-4.04,11.26-6.88,17.54-9.3,6.28-2.42,13.23-3.31,20.18-4.56,6.17.17,12.22-.44,18.38.2,7.76.79,15.17,1.51,23.35,1.67l-2.49,24.12c-.25,2.46-.82,4.65-.89,6.78-1.27-.36-1.9-.86-2.11-2.04-2.6-13.67-12.49-22.7-25.88-23.76-8.18-.65-15.93,1.83-23,6.28-7.69,4.83-13.3,12.18-17.66,20.33-5.28,9.85-10.25,23.89-10.88,35.3l46.16.03c7.98,0,15.82,1.03,23.39-1.3l8.71-2.69-12.78,33.48-2.29-7.91c-2.46-8.45-15.69-10.95-23-11.33l-15.38-.56h-.04v.02Z"/>
    <path class="st1" d="M446.32,167.45c9.93-6.04,11.05-20.76,7.44-30.77-3.99-11.06-14.91-14.38-24.91-11.84-4.77,1.21-8.51,4.03-12.25,7.27-9.87,9.54-14.09,25.46-14.91,39.59l32.49-.09c4.23,0,8.44-1.92,12.13-4.16h0,0ZM448.07,235.93c19.29,1.34,37.64-7.59,49.79-23.53.36,3.23-1.03,5.58-2.51,7.91-6.64,10.44-16.31,18.02-27.74,22.15-20.98,7.6-47.4,6.41-65.98-7.21-5.75-4.21-10.43-8.93-14.15-15.15-2.62-4.41-4.95-8.63-6.5-13.64-3-9.8-4.1-19.68-3.29-29.98.88-11.14,3.51-21.88,9.12-31.36,8.51-14.38,21.96-23.68,37.65-26.94,5.9-1.23,11.56-1.15,17.56-.89,4.86.21,9.32,1.27,13.9,2.85,6.66,2.34,12.24,6.19,16.76,11.98,2.88,3.7,4.13,8.38,4.57,13.22,1.52,16.74-7.77,28.11-22.7,32.17-6.84,2.11-13.66,2.45-20.84,2.49l-32.09.23c.14,15.65,5.8,33.11,16.87,43.2,8.24,7.82,18.52,11.74,29.52,12.51v-.03h0l.03.02Z"/>
    <path class="st1" d="M199.09,247.96c-.71,0-1.08-.23-1.27-.48-.19-.26-.35-1.09.11-1.3l4.69-2.27c6.31-3.06,6.21-15.18,6.31-21.96l.3-24.21-.15-35.6c-.04-9.17.03-17.84-.59-26.98-.24-3.4-.65-7.3-3.05-9.7-4.56-4.56-12.78-4.2-12.93-5.15-.14-.85.3-1.1,1.15-1.1l30.71.2,18.05-.24c1.49-.03,3.02-.98,4.42.56-4.86,1.95-10.67,1.67-13.79,6.84-1.9,3.14-2.16,14.37-2.16,18.7l-.1,69.77.27,16.98c.29,17.4,15.71,12.13,15.39,15.72-.05.49-.56.26-1.08.25l-24.91-.33-21.44.3h.04Z"/>
    <path class="st1" d="M118.99,79.12s6.22-15.62,35.57-3.75c0,0,21.94,6.56,24.31-8.13,0,0,3.56-10.93-6.81-21.23,0,0-2.67,20-21.64,18.74,0,0-32.6-6.56-31.41,14.38h-.03,0Z"/>
  </g>
  <g>
    <path class="st1" d="M777.4,176.46c-1.06-1.33-2.34-2.13-2.81-3.83l12.68-3.67c7.34-2.12,15.5-7,19.15-14,4.54-8.66,4.84-21.08-.09-29.61-4.47-7.71-12.75-12.13-21.63-13.07-7.02-.74-13.94-.27-20.85.63-.42.85-.51,1.77-.51,2.73l-.05,56.09.12,38.22c.03,5.31.21,15.12,2.86,19.32,2.79,4.45,10.44,4.42,14.46,5.88.18,1.12-1.1,1.15-1.78,1.12l-4.27-.15-43.19-.03c-2.34,0-4.51.51-6.75-.05-.26-.6.6-1.01,1.16-1.12,8.36-1.6,13.75-4.42,14.38-13.64.32-4.59.59-8.77.59-13.41l.03-76.6-.51-10.71c-.14-2.91-.95-5.78-2.49-8.21-3.18-5.03-14.74-5.28-14.71-6.32,0-.35.2-.79.85-.78,14.64.25,28.99-.19,43.64-.83,6.23-.27,12-.15,18.17.05,12.84.42,27.78,2.91,37.52,11.77,5.31,4.82,8.53,10.53,9.3,17.72,1.6,14.78-4.69,25.52-17.45,32.82-4,2.29-8.38,3.4-12.81,5.21,2.22,3.68,4.84,6.49,7.32,9.63l14.23,17.96c5.87,7.41,11.59,14.53,18.19,21.29l6.23,6.38c4.39,4.49,9.12,8.3,14.28,12.07,8.09,5.91,17.04,10.38,26.68,13.39,9.51,2.94,22.18,3.77,32.02,2.45,11.83-1.6,22.76-6.73,31.09-15.18.19-.18.42-.32.57-.25,1.67.73-5.45,9.32-6.6,10.53-3.76,3.89-8.24,6.46-12.97,8.96-3.44,1.82-6.81,2.91-10.52,4.05-8.93,2.78-17.73,3.82-27.13,3.68-12.04-.18-23.26-2.91-34.35-7.45-8.34-3.41-15.68-7.92-23.04-13.04-4.41-3.05-7.98-6.45-11.86-10.08-9.14-8.53-12.99-13.61-20.71-23.12l-4.24-5.22-13.28-17.61c-3.59-4.75-7.09-9.21-10.89-14l-.03.04h0v-.02Z"/>
    <path class="st1" d="M611.55,119.62c-11.59,12.34-17.76,27.37-19.57,43.9-.57,5.3-.51,10.35-.48,15.63.04,4.78.8,9.17,1.71,13.84,2.64,13.72,9.52,28.16,19.97,37.73,3.25,2.97,7.24,6.23,11.12,8.18l4.66,2.17c0,3.27-.12,4.5,0,6.23-4.8-1.28-10.45-2.91-14.94-4.65-7.77-3.02-15.03-6.55-21.32-11.94-14.3-12.25-23.23-30.53-24.58-49.18-.93-12.75.19-23.83,4.78-35.72,3.65-9.46,9.04-17.66,16.24-24.82,9.32-9.27,18.95-14.85,31.55-18.93,9.17-2.97,21.14-3.61,30.8-3,10.26.64,19.87,2.85,29.19,7.34,14.53,6.99,26.53,18.74,33.37,33.32,7.21,15.38,8.71,32.29,5.47,48.8-2.23,11.41-6.65,21.93-13.96,30.91-4.27,5.25-8.75,9.64-14.31,13.58-9.14,6.47-23.53,12.48-34.56,14.31,0-1.67-.06-3.12.05-4.56,6.58-3.36,17.14-8.36,22.37-13.57,14.01-14,18.49-31.04,18.68-50.4.12-12.71-2.46-25.67-8.03-37.06-4.74-9.69-9.57-16.65-17.82-23.72-10.59-9.08-23.52-13.8-37.57-10.86-8.74,1.83-16.51,5.78-22.79,12.47h0s-.03,0-.03,0Z"/>
    <path class="st1" d="M604.24,285.81c-32.94-9.9-65.07-16.52-99.69-14.62l-14.62.8c-.68.04-1.23-.57-1.36-1-.54-1.96,13.49-1.24,23.77-9.15,6.17-4.73,7.11-14.31,7.68-21.46.98-11.92,1.03-23.45,1.01-35.5l-.11-69.33-.44-14.49c-.15-5.34-.62-10.53-2.58-15.45-2.86-7.17-11.44-8.69-18.47-9.33-.73-.08-1-.51-.95-1.03.1-.83.53-.75,1.36-.75l27.89.33c5.01.06,9.64-.12,14.61-.21l19.69-.35c.56,0,.85.27.97.5.18.38-.09,1.1-.69,1.09-3.77-.04-7.1,1.28-10.32,3.03-2.7,1.45-4.48,3.58-4.99,6.67-.59,3.59-.98,7.03-.98,10.89l-.06,68.18.21,65.46-.24,7.85c29.14-.09,55.37,7.91,83.06,15.35l-.04,21.49-5.45-1.78c-6.06-2.28-12.99-5.3-19.26-7.18h0v.02Z"/>
    <path class="st1" d="M920.31,149.43c2.94-1.92,5.01-4.98,6.25-8.08,5.06-12.69-.54-29.76-15.04-32.07-6.88-1.08-13.52.19-19.24,3.99-5.22,3.89-9.48,8.53-12.38,14.38-4.23,8.54-6.53,17.65-6.73,27.33l32.35-.18c5.39-.04,10.25-2.43,14.8-5.39h0ZM929.52,215.83c9.37-.48,24.01-5.43,30.24-11.14l11.41-10.45c-.26,3.29-2.07,6.02-3.9,8.62-12.6,17.94-37.2,24.87-58.54,23.84-11.17-.53-22.04-3.71-31.69-9.12-17.97-10.07-27.91-28.04-28.73-48.26-.56-13.75,1.4-26.26,8.32-38.22,3.01-5.19,6.62-9.32,11.06-13.3,11.26-10.13,25.82-15.08,41.07-14.88,13.96.18,28.63,3.47,37.14,15.29,4.03,5.58,5.19,12.45,4.24,19.26-.77,5.43-3.25,9.85-6.95,13.75-6.31,6.67-16.48,9.25-25.46,10.11-5.24.5-10.28.32-15.54.35l-29.09.2c.03,6.9,1.08,13.37,3.01,19.76,7.14,23.6,28.84,35.42,53.38,34.18h.03-.02Z"/>
    <path class="st1" d="M656.73,298.69c-.1-3.17-.1-17.64,0-19.28.03-.24.63-.25,1.03-.12l30.54,11.76,33.73,10.64,15.3,4.08c26.86,7.15,55.94,10.69,83.67,6.97,15.5-2.07,30.07-7.09,43.27-15.33,8.3-5.18,17.73-13.61,22.56-22.26l16.1.09c-.23,3.91-9.14,12.92-12.16,15.65-11.48,10.43-24.85,18.34-39.44,24.01-30.74,11.93-64.44,14.2-97.08,9.33-17.5-2.61-34.38-6.58-51.47-11.06-7.85-2.05-15.32-3.67-22.98-6.19l-23.07-8.29h-.03Z"/>
    <path class="st0" d="M647.8,185.12l-5.1-4.93c-.49.27-1.47,1.3-2.19,2.1-2.16,2.29-5.1,5.43-9.71,7.03-2.04.71-3.92,1.06-5.73,1.06-2.53,0-4.89-.71-7.18-2.1-3.68-2.23-6.28-5.93-7.1-10.2-.8-4.12.15-8.33,2.62-11.59,3.45-4.57,9.23-6.67,14.74-5.39.85.2,1.75.56,2.62.9,1.07.42,3.06,1.22,3.46.79.35-.38.12-.89-1.23-2.94-1.45-2.19-3.44-5.18-3.62-9.42-.23-5.25,3.29-10.64,8.19-12.49,5.49-2.1,11.08-.78,14.94,3.49,3.29,3.62,4.19,8.6,2.42,13.32-.75,2.02-1.72,3.61-2.49,4.89-1.09,1.82-1.51,2.6-1.23,3.17.11,0,.36-.06.74-.25,4.16-2.14,9.03-2.45,13.32-.83,4.06,1.52,7.17,4.57,8.74,8.6,1.25,3.21,1.15,7.65-.25,11.06-2.75,6.65-10.47,10.37-17.58,8.49-3.34-.88-5.84-2.29-8.36-4.75h.03-.03v-.02ZM678.63,189.51c4.44-5.49,5.86-13.08,3.8-20.3-1.4-4.93-5.98-11.47-10.89-13.46l-7.32-2.97-.1-.89c-.1-.88-.17-1.75-.24-2.6-.15-1.95-.29-3.79-.82-5.51-1.84-6.01-6.75-10.97-13.14-13.28-6.36-2.29-13.06-1.66-18.38,1.75-7.3,4.69-10.08,9.57-10.31,18.02-.05,1.66-.99,2.88-2.66,3.49-3.18,1.13-7.18,2.81-9.99,5.78-.85.92-1.6,1.92-2.36,2.99-.53.73-1.07,1.47-1.67,2.19-.51.63-.77,1.57-1.01,2.56-.17.63-.33,1.28-.59,1.92-1.23,3.11-1.42,6.52-.56,10.74,1.45,7.09,5.95,12.75,12.66,15.98,3.32,1.6,6.96,2.99,11.17,2.41l6.53-.89c.18-.03.33-.04.51-.04.73,0,1.42.21,1.93.63.56.45.93,1.12.98,1.88.23,2.71.36,5.61-.11,8.36l-.17.95-4.5,1.22c-.47.12-.73.65-.84.97-.39,1.06-.25,2.53.32,3.36.49.71,1.47,1.12,2.49,1.53.26.11.53.21.78.33,1.15.51,2.01,1.77,2.1,3.06.08,1.07-.41,2.04-1.28,2.57-.65.41-1.36.65-1.98.88-.77.27-1.45.5-1.8.95-.74.92-.85,2.66-.27,4.04.24.57.77.8,1.9,1.22,1.42.5,3.77,1.34,3.77,4.5l-.03,27.15-.15,77.93c0,1.82.5,5.09,3.91,6.55,1.36.57,3.56.56,5.02-.09,1.1-.48,2.51-1.86,2.94-2.9.82-1.92.83-4.27.85-6.75,0-.62,0-1.23.03-1.84.04-1.23.05-2.88.04-4.93l-.26-43.61-.04-51.6c0-3.15,2.29-3.82,3.67-4.21,1.38-.41,2.14-.63,2.36-2.42.06-.5.05-.98-.05-1.42-.36-1.69-1.38-2.14-3.29-2.84-.49-.18-.98-.35-1.47-.57-.63-.29-1.07-.85-1.21-1.6-.23-1.16.33-2.7.99-3.38.77-.8,1.77-1.16,2.66-1.48,1.6-.57,2.38-.86,2.38-2.93,0-1-.25-1.73-.79-2.31-.39-.41-.95-.48-1.82-.53-.93-.05-3.09-.15-3.21-2.49-.03-.5-.06-1-.1-1.49-.17-2.31-.33-4.69.36-7.1.25-.85,1.18-2.17,4.65-1.34,9.48,2.26,18.68-.78,24.6-8.13h0,.02Z"/>
    <path class="st0" d="M655.87,336.56l.33.21.05,2.04c.05,1.8,1.53,3.23,3.35,3.23h8.42c1.72,0,3.12-1.38,3.12-3.09v-7.4c0-1.8-1.47-3.23-3.26-3.23h-.09c-1.87,0-3.38,1.49-3.38,3.34v.82c0,1.37-1.13,2.47-2.49,2.47s-2.49-1.12-2.49-2.47v-1.09c0-1.68-.62-3.05-2.31-3.05l-1.16.03c-1.18,0-2.13-.93-2.13-2.1v-2.28c0-1.15.93-2.07,2.07-2.1l1.82-.05c1.38-.03,1.71-1.15,1.71-2.49v-.92c0-1.37,1.13-2.47,2.49-2.47s2.49,1.12,2.49,2.47v.04c0,1.84,1.51,3.34,3.36,3.34s3.36-1.49,3.36-3.34v-5.93c0-2.17-1.78-3.92-3.97-3.92h-6.51c-1.8,0-3.34,1.24-3.73,2.97,0,.05-.03.11-.04.18-.42,1.87-1.57,3.14-2.88,3.25-.83.06-1.57-.38-1.9-1.19-.23-.56-.42-1.42-.57-2.32-.27-1.67-1.75-2.88-3.45-2.88l-4.09.24.48,33.04,2.17.17c1.62,0,2.97-1.15,3.29-2.71.27-1.37.83-2.76,1.93-3.38,1.08-.63,2.45-.41,4.03.6h.03-.03,0Z"/>
  </g>
</svg>